<svg width="124" height="107" viewBox="0 0 124 107" fill="none" xmlns="http://www.w3.org/2000/svg">
<path d="M102.866 51.1674C92.2728 53.1554 86.8711 48.8031 85.4944 46.3784L81.7369 52.7622C88.0705 62.4986 99.7583 61.0596 104.811 59.1231C108.576 55.6428 113.459 49.1793 102.866 51.1674Z" fill="#66B4CE" stroke="#D9D9D9" stroke-width="0.275108"/>
<path d="M52.6831 24.7428C37.9373 20.5611 42.9167 15.114 52.6831 15.114L59.4232 27.2188L50.8949 77.701L15.6811 80.8648L11.509 74.8067C9.49926 77.1191 8.17989 78.477 11.2243 74.3932L5.63965 66.2841C13.3133 59.4181 14.3166 65.9239 13.7924 71.0103C21.2582 61.4492 24.3057 68.9823 24.8972 73.9871C27.0886 60.8383 35.1899 70.056 38.8804 75.5669C29.1689 61.0112 39.9932 63.8605 46.7682 67.9347C34.4434 57.3706 44.384 56.6553 50.8949 57.6182C38.0198 50.7955 46.7224 47.3475 52.6831 46.4763C36.7268 42.6248 46.0346 37.0768 52.6831 34.7842C33.6456 29.9423 44.7508 26.0725 52.6831 24.7428Z" fill="#3F95B2"/>
<path d="M84.458 0.395996C91.2952 0.395996 96.8379 6.86262 96.8379 14.8394C96.8379 15.5092 96.8345 16.1684 96.8271 16.814C104.737 17.2798 112.285 17.8411 118.159 18.5063C125.585 19.348 123.936 34.372 118.159 37.6733C111.458 38.9397 103.254 42.6973 94.4238 45.9526C102.676 85.3071 92.4759 87.8702 85.6699 89.5806L85.6133 89.5952V106.312H72.3018V91.1812L64.6162 92.5571V106.312H50.0693C50.0711 106.266 50.2428 101.89 50.4668 95.4731C26.3554 101.643 4.91826 82.2178 0 58.1685C28.1985 87.8801 50.7578 71.0985 50.7578 45.7886L51.5195 46.4185C51.5198 46.243 51.5193 46.0675 51.5195 45.8921C51.2191 45.692 50.9188 45.4867 50.6201 45.2739C50.6201 31.7434 50.6201 18.5041 50.6201 15.5747C50.5917 14.9472 50.5906 14.2896 50.6201 13.6011C50.6201 6.30812 55.6121 0.396098 62.4492 0.395996C67.3643 0.395996 71.6105 3.45121 73.6094 7.87842C75.7163 3.41812 79.7842 0.396037 84.458 0.395996Z" fill="#66B4CE"/>
<path d="M72.6285 14.0137C72.6285 19.1036 68.727 23.2298 63.9143 23.2298C59.1016 23.2298 55.2969 20.7338 55.5874 14.0137C55.5874 8.9238 59.1016 4.79761 63.9143 4.79761C68.727 4.79761 72.6285 8.9238 72.6285 14.0137Z" fill="white"/>
<path d="M94.0868 13.4634C94.0868 18.5533 90.1854 22.6795 85.3726 22.6795C80.5599 22.6795 76.7553 20.1835 77.0457 13.4634C77.0457 8.37351 80.5599 4.24731 85.3726 4.24731C90.1854 4.24731 94.0868 8.37351 94.0868 13.4634Z" fill="white"/>
<path d="M77.8555 49.2275C83.9079 50.0528 86.7966 48.9524 92.4362 46.3389C99.7266 83.8911 95.8751 88.843 71.3905 88.843C71.3905 88.843 78.8184 75.0876 77.8555 49.2275Z" fill="#CAE8F2"/>
<path d="M97.4082 63.5334C86.8787 65.8344 74.8201 63.9859 73.3721 61.6031L69.8055 68.0954C76.4248 77.6398 94.5951 73.5133 99.5877 71.428C103.249 67.8377 107.938 61.2323 97.4082 63.5334Z" fill="#66B4CE"/>
<ellipse cx="65.8883" cy="15.1142" rx="5.3646" ry="6.46503" fill="#3F95B2"/>
<ellipse cx="87.3467" cy="14.4266" rx="5.63971" ry="6.60259" fill="#3F95B2"/>
<ellipse cx="112.266" cy="20.6304" rx="3.7134" ry="6.42705" transform="rotate(-6.68011 112.266 20.6304)" fill="#66B4CE"/>
<path d="M122.48 19.4343C123.875 31.35 121.576 26.0111 119.539 26.2497C117.502 26.4882 115.516 23.8237 115.103 20.2982C114.691 16.7727 116.007 13.7214 118.044 13.4828C120.081 13.2443 122.067 15.9088 122.48 19.4343Z" fill="#66B4CE"/>
<ellipse cx="118.834" cy="18.9983" rx="1.57106" ry="2.71364" transform="rotate(-6.68011 118.834 18.9983)" fill="white"/>
<ellipse cx="112.309" cy="19.7627" rx="1.57106" ry="2.71364" transform="rotate(-6.68011 112.309 19.7627)" fill="white"/>
<path d="M123.386 27.3564C113.207 27.3564 84.9573 33.8215 76.0673 33.8215C71.8031 33.8215 65.4756 33.1337 62.1743 28.3193" stroke="#3F95B2" stroke-width="1.10043"/>
</svg>
