<svg width="318" height="84" viewBox="0 0 318 84" fill="none" xmlns="http://www.w3.org/2000/svg">
<path d="M9.85742 2.02441H308.143C312.468 2.02441 315.976 5.53168 315.976 9.85742V74.1426C315.976 78.4683 312.468 81.9756 308.143 81.9756H9.85742C5.53168 81.9756 2.02441 78.4683 2.02441 74.1426V9.85742C2.02441 5.53168 5.53168 2.02441 9.85742 2.02441Z" fill="#66B4CE"/>
<path d="M9.85742 2.02441H308.143C312.468 2.02441 315.976 5.53168 315.976 9.85742V74.1426C315.976 78.4683 312.468 81.9756 308.143 81.9756H9.85742C5.53168 81.9756 2.02441 78.4683 2.02441 74.1426V9.85742C2.02441 5.53168 5.53168 2.02441 9.85742 2.02441Z" stroke="black" stroke-width="4.04939"/>
<path d="M39.937 54.5V30.2524H55.6809V33.6334H41.6788L43.6254 31.6185V42.7519L41.6788 41.0102H55.0662V44.2887H41.6788L43.6254 42.547V54.5H39.937ZM66.3842 54.9098C64.6538 54.9098 63.1398 54.5228 61.842 53.7487C60.5443 52.9746 59.5425 51.8703 58.8367 50.436C58.1309 49.0016 57.778 47.3282 57.778 45.4157C57.778 43.4804 58.1309 41.807 58.8367 40.3954C59.5425 38.9838 60.5443 37.891 61.842 37.1169C63.1398 36.32 64.6538 35.9216 66.3842 35.9216C68.1145 35.9216 69.6286 36.32 70.9263 37.1169C72.2241 37.891 73.2259 38.9838 73.9317 40.3954C74.6375 41.807 74.9904 43.4804 74.9904 45.4157C74.9904 47.3282 74.6375 49.0016 73.9317 50.436C73.2259 51.8703 72.2241 52.9746 70.9263 53.7487C69.6286 54.5228 68.1145 54.9098 66.3842 54.9098ZM66.3842 51.7679C67.9324 51.7679 69.1277 51.2101 69.9701 50.0945C70.8125 48.9561 71.2337 47.3965 71.2337 45.4157C71.2337 43.4349 70.8125 41.8867 69.9701 40.7711C69.1277 39.6327 67.9324 39.0635 66.3842 39.0635C64.8587 39.0635 63.6634 39.6327 62.7983 40.7711C61.9559 41.8867 61.5347 43.4349 61.5347 45.4157C61.5347 47.3965 61.9559 48.9561 62.7983 50.0945C63.6634 51.2101 64.8587 51.7679 66.3842 51.7679ZM78.6488 54.5V36.3314H81.9615L82.0981 41.1468L81.7908 41.0443C82.0412 39.405 82.5421 38.2097 83.2934 37.4584C84.0675 36.7071 85.1035 36.3314 86.4012 36.3314H88.143V39.5758H86.4012C85.4905 39.5758 84.7278 39.7238 84.1131 40.0198C83.4984 40.3157 83.0316 40.7711 82.7129 41.3858C82.4169 42.0005 82.2689 42.7974 82.2689 43.7764V54.5H78.6488ZM100.769 54.5V30.2524H109.478C112.392 30.2524 114.589 30.7761 116.069 31.8234C117.549 32.8707 118.289 34.5327 118.289 36.8095C118.289 37.8341 118.073 38.7334 117.64 39.5075C117.208 40.2816 116.57 40.8963 115.728 41.3517C114.908 41.7843 113.929 42.0119 112.791 42.0347L112.757 41.8981C114.828 41.9436 116.434 42.5128 117.572 43.6057C118.733 44.6757 119.314 46.0873 119.314 47.8405C119.314 50.0489 118.574 51.711 117.094 52.8266C115.614 53.9422 113.508 54.5 110.776 54.5H100.769ZM104.458 51.1873H110.673C112.199 51.1873 113.383 50.8799 114.225 50.2652C115.09 49.6277 115.523 48.7056 115.523 47.4989C115.523 46.315 115.09 45.3929 114.225 44.7327C113.383 44.0724 112.199 43.7423 110.673 43.7423H104.458V51.1873ZM104.458 40.6003H109.41C111.026 40.6003 112.278 40.293 113.166 39.6782C114.054 39.0635 114.498 38.1983 114.498 37.0827C114.498 35.8988 114.066 35.0223 113.201 34.4531C112.358 33.8611 111.095 33.5651 109.41 33.5651H104.458V40.6003ZM129.483 54.9098C127.661 54.9098 126.204 54.3065 125.111 53.0998C124.041 51.8703 123.506 50.1741 123.506 48.0112V36.3314H127.126V47.0891C127.126 48.7284 127.411 49.9351 127.98 50.7092C128.549 51.4833 129.414 51.8703 130.575 51.8703C131.896 51.8703 132.92 51.4491 133.649 50.6067C134.4 49.7416 134.776 48.5349 134.776 46.9867V36.3314H138.396V54.5H135.015L134.947 49.7529L135.459 49.9578C135.14 51.5516 134.469 52.781 133.444 53.6462C132.42 54.4886 131.099 54.9098 129.483 54.9098ZM150.184 54.9098C148.477 54.9098 147.031 54.648 145.847 54.1243C144.686 53.6007 143.787 52.8835 143.149 51.9728C142.512 51.0393 142.147 49.9692 142.056 48.7625L145.779 48.5918C145.961 49.5936 146.393 50.3904 147.076 50.9824C147.76 51.5744 148.795 51.8703 150.184 51.8703C151.323 51.8703 152.222 51.6882 152.882 51.3239C153.542 50.9596 153.873 50.3791 153.873 49.5822C153.873 49.1496 153.759 48.7853 153.531 48.4893C153.326 48.1706 152.916 47.9088 152.302 47.7038C151.687 47.4762 150.776 47.2599 149.57 47.055C147.771 46.7135 146.359 46.315 145.335 45.8597C144.31 45.4043 143.582 44.8237 143.149 44.1179C142.716 43.4121 142.5 42.5584 142.5 41.5566C142.5 39.8945 143.115 38.5399 144.344 37.4925C145.597 36.4452 147.395 35.9216 149.74 35.9216C151.311 35.9216 152.632 36.1948 153.702 36.7412C154.772 37.2649 155.603 37.982 156.195 38.8928C156.81 39.7807 157.197 40.7825 157.356 41.8981L153.634 42.103C153.52 41.4655 153.292 40.9191 152.951 40.4637C152.632 39.9856 152.199 39.6213 151.653 39.3709C151.106 39.0977 150.457 38.9611 149.706 38.9611C148.545 38.9611 147.68 39.1887 147.111 39.6441C146.541 40.0994 146.257 40.6914 146.257 41.42C146.257 41.9664 146.382 42.4104 146.633 42.7519C146.906 43.0934 147.338 43.378 147.93 43.6057C148.522 43.8106 149.308 43.9927 150.287 44.1521C152.176 44.4708 153.656 44.8693 154.726 45.3474C155.796 45.8027 156.548 46.3719 156.98 47.055C157.413 47.738 157.629 48.569 157.629 49.548C157.629 50.6864 157.311 51.654 156.673 52.4509C156.036 53.2478 155.159 53.8625 154.043 54.2951C152.928 54.7049 151.641 54.9098 150.184 54.9098ZM161.293 54.5V36.3314H164.913V54.5H161.293ZM161.225 33.7017V30.0817H164.981V33.7017H161.225ZM170.331 54.5V36.3314H173.644L173.78 41.1809L173.336 40.9418C173.541 39.7579 173.928 38.8017 174.497 38.0731C175.067 37.3446 175.761 36.8095 176.581 36.468C177.4 36.1037 178.288 35.9216 179.245 35.9216C180.611 35.9216 181.738 36.2289 182.626 36.8437C183.536 37.4356 184.219 38.2553 184.675 39.3026C185.153 40.3271 185.392 41.4997 185.392 42.8202V54.5H181.772V43.913C181.772 42.8429 181.658 41.9436 181.43 41.2151C181.203 40.4865 180.827 39.9287 180.303 39.5416C179.78 39.1546 179.097 38.9611 178.254 38.9611C176.979 38.9611 175.943 39.3823 175.146 40.2247C174.349 41.0671 173.951 42.2965 173.951 43.913V54.5H170.331ZM197.587 54.9098C195.811 54.9098 194.275 54.5228 192.977 53.7487C191.702 52.9746 190.712 51.8703 190.006 50.436C189.323 49.0016 188.981 47.3282 188.981 45.4157C188.981 43.5032 189.323 41.8412 190.006 40.4296C190.712 38.9952 191.702 37.891 192.977 37.1169C194.252 36.32 195.755 35.9216 197.485 35.9216C199.124 35.9216 200.57 36.3086 201.822 37.0827C203.074 37.8341 204.042 38.9269 204.725 40.3613C205.431 41.7956 205.784 43.526 205.784 45.5523V46.4744H192.738C192.829 48.2503 193.296 49.5822 194.138 50.4701C195.003 51.3581 196.164 51.802 197.622 51.802C198.692 51.802 199.58 51.5516 200.285 51.0507C200.991 50.5498 201.481 49.8782 201.754 49.0358L205.511 49.2748C205.032 50.9596 204.088 52.3257 202.676 53.373C201.287 54.3975 199.591 54.9098 197.587 54.9098ZM192.738 43.7423H201.959C201.845 42.1258 201.378 40.9305 200.559 40.1564C199.762 39.3823 198.737 38.9952 197.485 38.9952C196.187 38.9952 195.117 39.405 194.275 40.2247C193.455 41.0215 192.943 42.1941 192.738 43.7423ZM216.453 54.9098C214.745 54.9098 213.3 54.648 212.116 54.1243C210.954 53.6007 210.055 52.8835 209.418 51.9728C208.78 51.0393 208.416 49.9692 208.325 48.7625L212.047 48.5918C212.229 49.5936 212.662 50.3904 213.345 50.9824C214.028 51.5744 215.064 51.8703 216.453 51.8703C217.591 51.8703 218.491 51.6882 219.151 51.3239C219.811 50.9596 220.141 50.3791 220.141 49.5822C220.141 49.1496 220.027 48.7853 219.8 48.4893C219.595 48.1706 219.185 47.9088 218.57 47.7038C217.956 47.4762 217.045 47.2599 215.838 47.055C214.04 46.7135 212.628 46.315 211.603 45.8597C210.579 45.4043 209.85 44.8237 209.418 44.1179C208.985 43.4121 208.769 42.5584 208.769 41.5566C208.769 39.8945 209.384 38.5399 210.613 37.4925C211.865 36.4452 213.664 35.9216 216.009 35.9216C217.58 35.9216 218.9 36.1948 219.97 36.7412C221.041 37.2649 221.872 37.982 222.464 38.8928C223.078 39.7807 223.465 40.7825 223.625 41.8981L219.902 42.103C219.788 41.4655 219.561 40.9191 219.219 40.4637C218.9 39.9856 218.468 39.6213 217.921 39.3709C217.375 39.0977 216.726 38.9611 215.975 38.9611C214.814 38.9611 213.948 39.1887 213.379 39.6441C212.81 40.0994 212.525 40.6914 212.525 41.42C212.525 41.9664 212.651 42.4104 212.901 42.7519C213.174 43.0934 213.607 43.378 214.199 43.6057C214.791 43.8106 215.576 43.9927 216.555 44.1521C218.445 44.4708 219.925 44.8693 220.995 45.3474C222.065 45.8027 222.816 46.3719 223.249 47.055C223.682 47.738 223.898 48.569 223.898 49.548C223.898 50.6864 223.579 51.654 222.942 52.4509C222.304 53.2478 221.428 53.8625 220.312 54.2951C219.196 54.7049 217.91 54.9098 216.453 54.9098ZM234.563 54.9098C232.855 54.9098 231.409 54.648 230.225 54.1243C229.064 53.6007 228.165 52.8835 227.527 51.9728C226.89 51.0393 226.526 49.9692 226.434 48.7625L230.157 48.5918C230.339 49.5936 230.772 50.3904 231.455 50.9824C232.138 51.5744 233.174 51.8703 234.563 51.8703C235.701 51.8703 236.6 51.6882 237.26 51.3239C237.921 50.9596 238.251 50.3791 238.251 49.5822C238.251 49.1496 238.137 48.7853 237.909 48.4893C237.704 48.1706 237.295 47.9088 236.68 47.7038C236.065 47.4762 235.154 47.2599 233.948 47.055C232.149 46.7135 230.738 46.315 229.713 45.8597C228.688 45.4043 227.96 44.8237 227.527 44.1179C227.095 43.4121 226.878 42.5584 226.878 41.5566C226.878 39.8945 227.493 38.5399 228.723 37.4925C229.975 36.4452 231.773 35.9216 234.119 35.9216C235.69 35.9216 237.01 36.1948 238.08 36.7412C239.15 37.2649 239.981 37.982 240.573 38.8928C241.188 39.7807 241.575 40.7825 241.734 41.8981L238.012 42.103C237.898 41.4655 237.67 40.9191 237.329 40.4637C237.01 39.9856 236.577 39.6213 236.031 39.3709C235.485 39.0977 234.836 38.9611 234.084 38.9611C232.923 38.9611 232.058 39.1887 231.489 39.6441C230.92 40.0994 230.635 40.6914 230.635 41.42C230.635 41.9664 230.76 42.4104 231.011 42.7519C231.284 43.0934 231.717 43.378 232.309 43.6057C232.9 43.8106 233.686 43.9927 234.665 44.1521C236.555 44.4708 238.035 44.8693 239.105 45.3474C240.175 45.8027 240.926 46.3719 241.359 47.055C241.791 47.738 242.008 48.569 242.008 49.548C242.008 50.6864 241.689 51.654 241.051 52.4509C240.414 53.2478 239.537 53.8625 238.422 54.2951C237.306 54.7049 236.02 54.9098 234.563 54.9098ZM253.15 54.9098C251.374 54.9098 249.838 54.5228 248.54 53.7487C247.265 52.9746 246.274 51.8703 245.569 50.436C244.886 49.0016 244.544 47.3282 244.544 45.4157C244.544 43.5032 244.886 41.8412 245.569 40.4296C246.274 38.9952 247.265 37.891 248.54 37.1169C249.815 36.32 251.317 35.9216 253.048 35.9216C254.687 35.9216 256.133 36.3086 257.385 37.0827C258.637 37.8341 259.605 38.9269 260.288 40.3613C260.994 41.7956 261.347 43.526 261.347 45.5523V46.4744H248.301C248.392 48.2503 248.859 49.5822 249.701 50.4701C250.566 51.3581 251.727 51.802 253.184 51.802C254.255 51.802 255.142 51.5516 255.848 51.0507C256.554 50.5498 257.044 49.8782 257.317 49.0358L261.073 49.2748C260.595 50.9596 259.65 52.3257 258.239 53.373C256.85 54.3975 255.154 54.9098 253.15 54.9098ZM248.301 43.7423H257.522C257.408 42.1258 256.941 40.9305 256.121 40.1564C255.325 39.3823 254.3 38.9952 253.048 38.9952C251.75 38.9952 250.68 39.405 249.838 40.2247C249.018 41.0215 248.506 42.1941 248.301 43.7423ZM272.016 54.9098C270.308 54.9098 268.862 54.648 267.679 54.1243C266.517 53.6007 265.618 52.8835 264.981 51.9728C264.343 51.0393 263.979 49.9692 263.888 48.7625L267.61 48.5918C267.792 49.5936 268.225 50.3904 268.908 50.9824C269.591 51.5744 270.627 51.8703 272.016 51.8703C273.154 51.8703 274.054 51.6882 274.714 51.3239C275.374 50.9596 275.704 50.3791 275.704 49.5822C275.704 49.1496 275.59 48.7853 275.363 48.4893C275.158 48.1706 274.748 47.9088 274.133 47.7038C273.518 47.4762 272.608 47.2599 271.401 47.055C269.602 46.7135 268.191 46.315 267.166 45.8597C266.142 45.4043 265.413 44.8237 264.981 44.1179C264.548 43.4121 264.332 42.5584 264.332 41.5566C264.332 39.8945 264.946 38.5399 266.176 37.4925C267.428 36.4452 269.227 35.9216 271.572 35.9216C273.143 35.9216 274.463 36.1948 275.533 36.7412C276.603 37.2649 277.435 37.982 278.026 38.8928C278.641 39.7807 279.028 40.7825 279.188 41.8981L275.465 42.103C275.351 41.4655 275.124 40.9191 274.782 40.4637C274.463 39.9856 274.031 39.6213 273.484 39.3709C272.938 39.0977 272.289 38.9611 271.538 38.9611C270.377 38.9611 269.511 39.1887 268.942 39.6441C268.373 40.0994 268.088 40.6914 268.088 41.42C268.088 41.9664 268.214 42.4104 268.464 42.7519C268.737 43.0934 269.17 43.378 269.762 43.6057C270.354 43.8106 271.139 43.9927 272.118 44.1521C274.008 44.4708 275.488 44.8693 276.558 45.3474C277.628 45.8027 278.379 46.3719 278.812 47.055C279.245 47.738 279.461 48.569 279.461 49.548C279.461 50.6864 279.142 51.654 278.505 52.4509C277.867 53.2478 276.991 53.8625 275.875 54.2951C274.759 54.7049 273.473 54.9098 272.016 54.9098Z" fill="#18181B"/>
</svg>
