<svg width="80" height="70" viewBox="0 0 80 70" fill="none" xmlns="http://www.w3.org/2000/svg">
<path d="M13.3046 33.5404C20.1729 34.8294 23.6752 32.0075 24.5678 30.4354L27.0041 34.5744C22.8975 40.8873 15.3195 39.9543 12.0437 38.6987C9.60223 36.4422 6.4363 32.2514 13.3046 33.5404Z" fill="#66B4CE" stroke="#D9D9D9" stroke-width="0.275108"/>
<path d="M45.8417 16.4073C55.4025 13.6961 52.1739 10.1643 45.8417 10.1643L41.4716 18.0127L47.0011 50.744L69.8328 52.7953L72.5379 48.8674C73.8409 50.3667 74.6964 51.2471 72.7225 48.5993L76.3434 43.3416C71.368 38.8899 70.7175 43.108 71.0574 46.4059C66.2167 40.2068 64.2408 45.091 63.8573 48.336C62.4365 39.811 57.1841 45.7868 54.7912 49.36C61.0875 39.9228 54.0694 41.7703 49.6767 44.4118C57.6678 37.5623 51.2226 37.0985 47.0011 37.7228C55.349 33.2992 49.7064 31.0636 45.8417 30.4988C56.1873 28.0015 50.1524 24.4044 45.8417 22.9179C58.1851 19.7786 50.9848 17.2695 45.8417 16.4073Z" fill="#3F95B2"/>
<path d="M25.2393 0.621582C20.8064 0.621836 17.2129 4.81411 17.2129 9.98584C17.2129 10.4208 17.215 10.8489 17.2197 11.2681C12.0913 11.5701 7.19729 11.9324 3.38867 12.3638C-1.42589 12.9096 -0.35633 22.6496 3.38867 24.7905C7.73339 25.6116 13.0531 28.048 18.7783 30.1587C13.4277 55.6755 20.0412 57.3378 24.4541 58.4468L24.4912 58.4556V69.2944H33.1221V59.4839L38.1045 60.3765V69.2944H47.5361C47.5347 69.2587 47.4273 66.4224 47.2822 62.2661C62.9141 66.2642 76.8113 53.6715 80 38.0796C61.717 57.3436 47.0901 46.4632 47.0898 30.0532L46.5967 30.4604C46.5965 30.3468 46.5968 30.2332 46.5967 30.1196C46.7914 29.99 46.9862 29.8571 47.1797 29.7192C47.1797 20.8964 47.1797 12.2646 47.1797 10.4312C47.1967 10.0338 47.1983 9.61798 47.1797 9.18311C47.1796 4.45465 43.9426 0.621749 39.5098 0.621582C36.3233 0.621582 33.5706 2.60213 32.2744 5.47217C30.9083 2.58034 28.2696 0.621582 25.2393 0.621582Z" fill="#66B4CE"/>
<path d="M32.9097 9.45106C32.9097 12.7512 35.4393 15.4265 38.5597 15.4265C41.6801 15.4265 44.147 13.8082 43.9586 9.45106C43.9586 6.1509 41.6801 3.47559 38.5597 3.47559C35.4393 3.47559 32.9097 6.1509 32.9097 9.45106Z" fill="white"/>
<path d="M18.9967 9.09413C18.9967 12.3943 21.5263 15.0696 24.6467 15.0696C27.7672 15.0696 30.234 13.4512 30.0457 9.09413C30.0457 5.79396 27.7672 3.11865 24.6467 3.11865C21.5263 3.11865 18.9967 5.79396 18.9967 9.09413Z" fill="white"/>
<path d="M29.5205 32.2826C25.5963 32.8177 23.7234 32.1042 20.0668 30.4097C15.3399 54.7575 17.8371 57.9682 33.7123 57.9682C33.7123 57.9682 28.8962 49.0496 29.5205 32.2826Z" fill="#CAE8F2"/>
<path d="M16.8431 41.5581C23.6702 43.05 31.4887 41.8515 32.4275 40.3066L34.74 44.516C30.4482 50.7043 18.6671 48.0288 15.43 46.6767C13.0564 44.3489 10.0161 40.0661 16.8431 41.5581Z" fill="#66B4CE"/>
<ellipse cx="3.47826" cy="4.19175" rx="3.47826" ry="4.19175" transform="matrix(-1 0 0 1 40.7581 5.97266)" fill="#3F95B2"/>
<ellipse cx="3.65663" cy="4.28094" rx="3.65663" ry="4.28094" transform="matrix(-1 0 0 1 27.0234 5.43774)" fill="#3F95B2"/>
<ellipse cx="2.40767" cy="4.16712" rx="2.40767" ry="4.16712" transform="matrix(-0.993211 -0.116326 -0.116326 0.993211 10.0856 9.88208)" fill="#66B4CE"/>
<path d="M0.587342 12.9654C-0.317514 20.6912 1.17323 17.2296 2.49392 17.3843C3.81462 17.539 5.10228 15.8114 5.36999 13.5256C5.63771 11.2397 4.7841 9.26133 3.46341 9.10664C2.14272 8.95196 0.855059 10.6796 0.587342 12.9654Z" fill="#66B4CE"/>
<ellipse cx="1.01863" cy="1.75945" rx="1.01863" ry="1.75945" transform="matrix(-0.993211 -0.116326 -0.116326 0.993211 4.16772 11.0537)" fill="white"/>
<ellipse cx="1.01863" cy="1.75945" rx="1.01863" ry="1.75945" transform="matrix(-0.993211 -0.116326 -0.116326 0.993211 8.39856 11.5493)" fill="white"/>
<path d="M7.65175e-06 18.1021C6.59979 18.1021 24.916 22.2938 30.6801 22.2938C33.4448 22.2938 37.5474 21.8479 39.6879 18.7264" stroke="#3F95B2" stroke-width="1.10043"/>
</svg>
