<svg width="1248" height="476" viewBox="0 0 1248 476" fill="none" xmlns="http://www.w3.org/2000/svg">
<path d="M366.527 0C416.714 0.000245176 457.398 40.3201 457.398 90.0566C457.398 139.793 416.714 180.113 366.527 180.113C316.34 180.113 275.655 139.794 275.655 90.0566C275.655 40.3199 316.34 0 366.527 0ZM366.189 20.9443C327.383 20.9443 295.924 51.9497 295.924 90.1963C295.924 128.443 327.383 159.447 366.189 159.447C404.995 159.447 436.454 128.443 436.454 90.1963C436.454 51.9498 404.995 20.9445 366.189 20.9443Z" fill="#223F43"/>
<path d="M299.657 307.887V190.818H350.937C359.511 190.818 366.931 192.247 373.197 195.105C379.572 197.963 384.464 202.03 387.871 207.306C391.279 212.473 392.983 218.628 392.983 225.774C392.983 231.16 391.829 235.942 389.52 240.119C387.322 244.296 384.244 247.704 380.287 250.342C376.439 252.98 371.987 254.629 366.931 255.288L366.436 253.804C374.241 253.804 380.177 255.508 384.244 258.916C388.311 262.214 390.62 267.325 391.169 274.25L394.137 307.887H368.58L366.436 278.208C366.106 273.701 364.677 270.403 362.149 268.314C359.731 266.116 355.554 265.017 349.618 265.017H324.72V307.887H299.657ZM324.72 244.076H348.134C354.18 244.076 358.851 242.702 362.149 239.954C365.557 237.096 367.261 233.084 367.261 227.917C367.261 222.641 365.557 218.683 362.149 216.045C358.741 213.297 353.795 211.923 347.309 211.923H324.72V244.076ZM450.477 309.866C441.463 309.866 433.603 307.997 426.898 304.26C420.193 300.412 414.971 295.026 411.234 288.101C407.496 281.176 405.628 273.041 405.628 263.698C405.628 254.354 407.496 246.274 411.234 239.459C414.971 232.534 420.193 227.148 426.898 223.3C433.603 219.453 441.463 217.529 450.477 217.529C459.491 217.529 467.35 219.453 474.056 223.3C480.761 227.148 485.983 232.534 489.72 239.459C493.457 246.274 495.326 254.354 495.326 263.698C495.326 273.041 493.457 281.176 489.72 288.101C485.983 295.026 480.761 300.412 474.056 304.26C467.35 307.997 459.491 309.866 450.477 309.866ZM450.477 290.904C456.633 290.904 461.414 288.54 464.822 283.814C468.23 278.977 469.934 272.272 469.934 263.698C469.934 255.123 468.23 248.473 464.822 243.746C461.414 238.91 456.633 236.491 450.477 236.491C444.321 236.491 439.539 238.91 436.132 243.746C432.724 248.473 431.02 255.123 431.02 263.698C431.02 272.272 432.724 278.977 436.132 283.814C439.539 288.54 444.321 290.904 450.477 290.904ZM550.794 309.866C541.78 309.866 533.92 307.997 527.215 304.26C520.51 300.412 515.288 295.026 511.551 288.101C507.813 281.176 505.945 273.041 505.945 263.698C505.945 254.354 507.813 246.274 511.551 239.459C515.288 232.534 520.51 227.148 527.215 223.3C533.92 219.453 541.78 217.529 550.794 217.529C559.808 217.529 567.667 219.453 574.373 223.3C581.078 227.148 586.299 232.534 590.037 239.459C593.774 246.274 595.643 254.354 595.643 263.698C595.643 273.041 593.774 281.176 590.037 288.101C586.299 295.026 581.078 300.412 574.373 304.26C567.667 307.997 559.808 309.866 550.794 309.866ZM550.794 290.904C556.95 290.904 561.731 288.54 565.139 283.814C568.547 278.977 570.25 272.272 570.25 263.698C570.25 255.123 568.547 248.473 565.139 243.746C561.731 238.91 556.95 236.491 550.794 236.491C544.638 236.491 539.856 238.91 536.449 243.746C533.041 248.473 531.337 255.123 531.337 263.698C531.337 272.272 533.041 278.977 536.449 283.814C539.856 288.54 544.638 290.904 550.794 290.904ZM611.043 307.887V219.508H633.303L634.127 240.778L631.819 239.789C633.028 235.062 634.842 231.05 637.26 227.752C639.788 224.454 642.811 221.926 646.329 220.167C649.847 218.409 653.694 217.529 657.871 217.529C665.236 217.529 671.172 219.673 675.679 223.96C680.296 228.247 683.264 234.018 684.583 241.273L681.45 241.438C682.439 236.271 684.143 231.929 686.561 228.412C689.09 224.784 692.167 222.091 695.795 220.332C699.423 218.464 703.49 217.529 707.997 217.529C714.152 217.529 719.429 218.793 723.826 221.322C728.223 223.85 731.63 227.642 734.049 232.699C736.467 237.645 737.676 243.746 737.676 251.001V307.887H712.943V257.927C712.943 251.001 711.899 245.835 709.81 242.427C707.722 238.91 704.314 237.151 699.587 237.151C696.619 237.151 694.091 237.975 692.003 239.624C689.914 241.273 688.265 243.691 687.056 246.879C685.957 249.957 685.407 253.749 685.407 258.256V307.887H663.147V258.256C663.147 251.441 662.158 246.22 660.179 242.592C658.201 238.965 654.793 237.151 649.956 237.151C646.989 237.151 644.405 237.975 642.207 239.624C640.118 241.273 638.524 243.691 637.425 246.879C636.326 250.067 635.776 253.859 635.776 258.256V307.887H611.043ZM758.057 307.887V219.508H782.79V307.887H758.057ZM757.562 208.625V188.839H783.119V208.625H757.562ZM851.98 310.525C840.658 310.525 830.985 307.942 822.96 302.776C814.936 297.609 808.725 290.464 804.328 281.34C800.041 272.107 797.897 261.499 797.897 249.517C797.897 237.755 800.096 227.258 804.493 218.024C808.89 208.79 815.21 201.535 823.455 196.259C831.809 190.873 841.812 188.179 853.464 188.179C863.577 188.179 872.096 189.883 879.022 193.291C886.057 196.589 891.663 201.315 895.84 207.471C900.017 213.627 902.93 220.882 904.579 229.236L878.692 230.39C877.483 223.905 874.899 218.793 870.942 215.056C867.095 211.209 861.324 209.285 853.629 209.285C846.924 209.285 841.317 211.044 836.811 214.561C832.414 218.079 829.116 222.861 826.917 228.906C824.829 234.952 823.785 241.823 823.785 249.517C823.785 257.322 824.829 264.247 826.917 270.293C829.116 276.229 832.414 280.901 836.811 284.308C841.317 287.716 847.089 289.42 854.124 289.42C859.29 289.42 863.742 288.376 867.48 286.287C871.327 284.198 874.295 281.34 876.383 277.713C878.582 274.085 879.901 269.963 880.341 265.346H853.629V247.044H904.909V307.887H889.409L888.09 282.824L891.058 284.144C889.959 289.31 887.541 293.872 883.803 297.829C880.066 301.786 875.449 304.919 869.953 307.228C864.567 309.426 858.576 310.525 851.98 310.525ZM949.321 309.866C940.198 309.866 932.723 307.777 926.897 303.6C921.181 299.313 918.323 293.377 918.323 285.792C918.323 277.988 920.741 271.997 925.578 267.82C930.524 263.533 937.779 260.4 947.343 258.421L975.868 252.815C975.868 247.099 974.549 242.812 971.911 239.954C969.383 236.986 965.7 235.502 960.863 235.502C956.137 235.502 952.454 236.601 949.816 238.8C947.178 240.888 945.474 244.021 944.705 248.198L919.807 247.044C921.455 237.371 925.797 230.061 932.833 225.114C939.978 220.057 949.321 217.529 960.863 217.529C974.054 217.529 983.948 220.662 990.543 226.928C997.248 233.193 1000.6 242.372 1000.6 254.464V284.638C1000.6 287.166 1000.99 288.87 1001.76 289.75C1002.63 290.519 1003.9 290.904 1005.55 290.904H1008.02V307.887C1007.25 308.107 1005.99 308.327 1004.23 308.547C1002.58 308.767 1000.93 308.877 999.282 308.877C995.764 308.877 992.467 308.272 989.389 307.063C986.421 305.854 984.003 303.82 982.134 300.962C980.265 297.994 979.331 293.817 979.331 288.431L981.474 290.079C980.375 294.037 978.396 297.499 975.538 300.467C972.79 303.435 969.163 305.744 964.656 307.393C960.259 309.041 955.147 309.866 949.321 309.866ZM955.257 292.883C959.324 292.883 962.897 292.113 965.975 290.574C969.053 288.925 971.471 286.562 973.23 283.484C974.989 280.406 975.868 276.779 975.868 272.601V268.314L955.752 272.601C951.795 273.371 948.772 274.69 946.683 276.559C944.705 278.318 943.715 280.626 943.715 283.484C943.715 286.452 944.705 288.76 946.683 290.409C948.662 292.058 951.52 292.883 955.257 292.883ZM1052.78 307.887C1043.66 307.887 1036.95 305.799 1032.66 301.622C1028.38 297.334 1026.23 290.574 1026.23 281.34V198.732H1050.97V278.372C1050.97 282.66 1051.85 285.573 1053.6 287.111C1055.47 288.65 1058.22 289.42 1061.85 289.42H1074.22V307.887H1052.78ZM1012.05 237.975V219.508H1074.22V237.975H1012.05ZM1127.41 309.866C1118.4 309.866 1110.54 307.997 1103.84 304.26C1097.13 300.412 1091.91 295.026 1088.17 288.101C1084.43 281.176 1082.57 273.041 1082.57 263.698C1082.57 254.354 1084.43 246.274 1088.17 239.459C1091.91 232.534 1097.13 227.148 1103.84 223.3C1110.54 219.453 1118.4 217.529 1127.41 217.529C1136.43 217.529 1144.29 219.453 1150.99 223.3C1157.7 227.148 1162.92 232.534 1166.66 239.459C1170.4 246.274 1172.26 254.354 1172.26 263.698C1172.26 273.041 1170.4 281.176 1166.66 288.101C1162.92 295.026 1157.7 300.412 1150.99 304.26C1144.29 307.997 1136.43 309.866 1127.41 309.866ZM1127.41 290.904C1133.57 290.904 1138.35 288.54 1141.76 283.814C1145.17 278.977 1146.87 272.272 1146.87 263.698C1146.87 255.123 1145.17 248.473 1141.76 243.746C1138.35 238.91 1133.57 236.491 1127.41 236.491C1121.26 236.491 1116.48 238.91 1113.07 243.746C1109.66 248.473 1107.96 255.123 1107.96 263.698C1107.96 272.272 1109.66 278.977 1113.07 283.814C1116.48 288.54 1121.26 290.904 1127.41 290.904ZM1187.66 307.887V219.508H1211.08L1211.9 245.23L1210.09 244.736C1211.52 235.832 1214.05 229.401 1217.67 225.444C1221.3 221.487 1226.3 219.508 1232.68 219.508H1240.76V239.954H1232.68C1228.06 239.954 1224.27 240.558 1221.3 241.768C1218.33 242.977 1216.08 244.9 1214.54 247.539C1213.11 250.177 1212.4 253.749 1212.4 258.256V307.887H1187.66Z" fill="#3F95B2"/>
<path d="M252.624 183.467C226.609 188.349 213.343 177.661 209.962 171.706L200.734 187.384C216.289 211.295 244.992 207.761 257.4 203.005C266.648 194.458 278.639 178.585 252.624 183.467Z" fill="#66B4CE"/>
<path d="M129.382 118.572C93.1686 108.303 105.397 94.9253 129.382 94.9253L145.935 124.653L124.991 248.63L38.5105 256.4L28.2645 241.522C23.3289 247.201 20.0887 250.536 27.5652 240.507L13.8502 220.592C32.6957 203.73 35.1597 219.707 33.8722 232.199C52.2071 208.718 59.6914 227.218 61.144 239.509C66.5257 207.219 86.4201 229.853 95.4839 243.388C71.6353 207.642 98.2179 214.64 114.856 224.645C84.5882 198.701 109.001 196.945 124.991 199.309C93.3713 182.554 114.744 174.086 129.382 171.947C90.1959 162.488 113.055 148.863 129.382 143.233C82.6289 131.341 109.902 121.838 129.382 118.572Z" fill="#3F95B2"/>
<path d="M207.417 58.7793C224.208 58.7793 237.82 74.6603 237.82 94.25C237.82 95.8958 237.818 97.5154 237.8 99.1016C257.223 100.245 275.756 101.622 290.181 103.256C308.419 105.321 304.367 142.219 290.181 150.326C273.724 153.436 253.58 162.671 231.895 170.665C252.159 267.309 227.108 273.604 210.394 277.805L210.254 277.84V310.788H177.562V281.735L158.688 285.114V310.788H122.964C122.964 310.788 123.28 303.6 123.727 292.33C64.5992 307.315 12.064 259.651 0 200.66C68.7164 273.064 125.791 231.715 124.358 169.023C124.344 169.013 124.33 169.003 124.315 168.993C124.315 135.762 124.315 103.245 124.315 96.0547C124.246 94.5142 124.243 92.9001 124.315 91.21C124.315 73.2994 136.576 58.7793 153.367 58.7793C165.437 58.7794 175.864 66.282 180.773 77.1533C185.948 66.2003 195.939 58.7793 207.417 58.7793Z" fill="#66B4CE"/>
<path d="M178.365 92.2228C178.365 104.723 168.784 114.856 156.964 114.856C145.145 114.856 135.801 108.726 136.515 92.2228C136.515 79.7227 145.145 69.5894 156.964 69.5894C168.784 69.5894 178.365 79.7227 178.365 92.2228Z" fill="white"/>
<path d="M231.064 90.8717C231.064 103.372 221.482 113.505 209.663 113.505C197.844 113.505 188.5 107.375 189.213 90.8717C189.213 78.3716 197.844 68.2383 209.663 68.2383C221.482 68.2383 231.064 78.3716 231.064 90.8717Z" fill="white"/>
<path d="M191.202 178.703C206.066 180.73 213.16 178.027 227.01 171.609C244.914 263.832 235.455 275.993 175.325 275.993C175.325 275.993 193.567 242.212 191.202 178.703Z" fill="#FFEFC9"/>
<path d="M224.983 214.303L308.368 141.206L320.246 159.312L235.93 231.739L224.983 214.303Z" fill="#223F43"/>
<path d="M239.221 213.836C213.362 219.488 183.747 214.948 180.191 209.096L171.432 225.04C187.688 248.48 232.312 238.346 244.573 233.225C253.564 224.407 265.08 208.185 239.221 213.836Z" fill="#66B4CE"/>
<ellipse cx="161.812" cy="94.9255" rx="13.1747" ry="15.8772" fill="#3F95B2"/>
<ellipse cx="214.511" cy="93.2365" rx="13.8503" ry="16.215" fill="#3F95B2"/>
<ellipse cx="275.71" cy="108.472" rx="9.11959" ry="15.7839" transform="rotate(-6.68011 275.71 108.472)" fill="#66B4CE"/>
<path d="M300.793 105.535C304.22 134.798 298.574 121.686 293.571 122.272C288.569 122.858 283.692 116.314 282.678 107.656C281.664 98.9982 284.897 91.5045 289.899 90.9186C294.902 90.3328 299.779 96.8765 300.793 105.535Z" fill="#66B4CE"/>
<ellipse cx="291.839" cy="104.464" rx="3.85829" ry="6.66432" transform="rotate(-6.68011 291.839 104.464)" fill="white"/>
<ellipse cx="275.814" cy="106.341" rx="3.85829" ry="6.66432" transform="rotate(-6.68011 275.814 106.341)" fill="white"/>
<path d="M301.329 124.653C276.331 124.653 208.643 140.868 186.81 140.868C176.338 140.868 160.799 139.179 152.691 127.355" stroke="#3F95B2" stroke-width="4.05375" stroke-linecap="round"/>
<path d="M308.117 387.887V357.257C308.117 354.249 308.926 351.936 310.543 350.319C312.16 348.665 314.68 347.837 318.102 347.837H324.532V354.155H319.907C318.741 354.155 317.895 354.456 317.368 355.058C316.842 355.622 316.579 356.487 316.579 357.652V387.887H308.117ZM303.718 365.098V358.78H324.081V365.098H303.718ZM329.327 387.887V357.652H337.788V387.887H329.327ZM329.158 353.929V347.16H337.901V353.929H329.158ZM345.554 387.887V357.652H353.17L353.508 366.508L352.436 366.226C352.737 363.97 353.339 362.165 354.241 360.811C355.182 359.457 356.347 358.48 357.739 357.878C359.13 357.276 360.653 356.975 362.308 356.975C364.489 356.975 366.332 357.445 367.836 358.386C369.378 359.326 370.543 360.661 371.333 362.391C372.16 364.083 372.574 366.095 372.574 368.426V387.887H364.113V371.247C364.113 369.63 363.981 368.257 363.718 367.129C363.455 366.001 362.985 365.155 362.308 364.591C361.631 363.989 360.691 363.688 359.487 363.688C357.72 363.688 356.366 364.346 355.426 365.662C354.486 366.941 354.016 368.802 354.016 371.247V387.887H345.554ZM390.096 388.564C387.539 388.564 385.32 387.925 383.44 386.646C381.598 385.33 380.169 383.506 379.153 381.175C378.175 378.805 377.687 376.004 377.687 372.77C377.687 369.536 378.194 366.753 379.21 364.421C380.225 362.052 381.654 360.228 383.497 358.95C385.377 357.634 387.577 356.975 390.096 356.975C392.24 356.975 394.083 357.427 395.624 358.329C397.204 359.194 398.388 360.398 399.178 361.939V347.837H407.639V387.887H399.573L399.404 383.431C398.576 385.048 397.335 386.308 395.681 387.21C394.064 388.113 392.202 388.564 390.096 388.564ZM392.86 382.077C394.214 382.077 395.361 381.72 396.301 381.005C397.241 380.291 397.956 379.257 398.445 377.903C398.934 376.512 399.178 374.8 399.178 372.77C399.178 370.701 398.934 368.99 398.445 367.637C397.956 366.245 397.241 365.211 396.301 364.534C395.361 363.82 394.214 363.462 392.86 363.462C390.867 363.462 389.288 364.309 388.122 366.001C386.956 367.655 386.373 369.912 386.373 372.77C386.373 375.59 386.956 377.847 388.122 379.539C389.325 381.231 390.905 382.077 392.86 382.077ZM436.877 388.564C433.756 388.564 431.199 387.85 429.206 386.421C427.25 384.954 426.273 382.923 426.273 380.328C426.273 377.658 427.1 375.609 428.755 374.18C430.447 372.713 432.929 371.642 436.201 370.965L445.959 369.047C445.959 367.091 445.508 365.625 444.605 364.647C443.74 363.632 442.481 363.124 440.826 363.124C439.209 363.124 437.949 363.5 437.047 364.252C436.144 364.967 435.561 366.038 435.298 367.467L426.78 367.073C427.344 363.763 428.83 361.262 431.237 359.57C433.681 357.84 436.877 356.975 440.826 356.975C445.339 356.975 448.723 358.047 450.98 360.191C453.273 362.334 454.42 365.474 454.42 369.611V379.934C454.42 380.799 454.552 381.381 454.815 381.682C455.116 381.946 455.549 382.077 456.113 382.077H456.959V387.887C456.696 387.962 456.263 388.038 455.661 388.113C455.097 388.188 454.533 388.226 453.969 388.226C452.766 388.226 451.638 388.019 450.585 387.605C449.569 387.192 448.742 386.496 448.103 385.518C447.463 384.503 447.144 383.074 447.144 381.231L447.877 381.795C447.501 383.149 446.824 384.333 445.846 385.349C444.906 386.364 443.665 387.154 442.123 387.718C440.619 388.282 438.871 388.564 436.877 388.564ZM438.908 382.754C440.3 382.754 441.522 382.491 442.575 381.964C443.628 381.4 444.455 380.592 445.057 379.539C445.658 378.486 445.959 377.245 445.959 375.816V374.349L439.077 375.816C437.724 376.079 436.689 376.53 435.975 377.17C435.298 377.771 434.96 378.561 434.96 379.539C434.96 380.554 435.298 381.344 435.975 381.908C436.652 382.472 437.63 382.754 438.908 382.754ZM461.401 387.887V357.652H469.016L469.355 366.508L468.283 366.226C468.584 363.97 469.185 362.165 470.088 360.811C471.028 359.457 472.194 358.48 473.585 357.878C474.977 357.276 476.5 356.975 478.154 356.975C480.335 356.975 482.178 357.445 483.682 358.386C485.224 359.326 486.39 360.661 487.18 362.391C488.007 364.083 488.421 366.095 488.421 368.426V387.887H479.959V371.247C479.959 369.63 479.828 368.257 479.564 367.129C479.301 366.001 478.831 365.155 478.154 364.591C477.477 363.989 476.537 363.688 475.334 363.688C473.566 363.688 472.213 364.346 471.272 365.662C470.332 366.941 469.862 368.802 469.862 371.247V387.887H461.401ZM496.549 396.348V390.031H500.554C501.532 390.031 502.246 389.88 502.698 389.579C503.186 389.316 503.563 388.827 503.826 388.113L504.446 386.364H502.134L491.529 357.652H500.159L507.097 378.467L513.584 357.652H522.215L510.595 390.764C509.918 392.757 508.94 394.186 507.662 395.051C506.383 395.916 504.597 396.348 502.303 396.348H496.549ZM539.954 387.887V357.652H547.964L548.246 366.452L547.626 366.283C548.114 363.237 548.979 361.037 550.22 359.683C551.461 358.329 553.172 357.652 555.354 357.652H558.118V364.647H555.354C553.774 364.647 552.477 364.854 551.461 365.267C550.446 365.681 549.675 366.339 549.149 367.242C548.66 368.144 548.415 369.366 548.415 370.908V387.887H539.954ZM575.365 388.564C572.282 388.564 569.593 387.925 567.299 386.646C565.005 385.33 563.219 383.487 561.94 381.118C560.661 378.749 560.022 375.966 560.022 372.77C560.022 369.573 560.661 366.809 561.94 364.478C563.219 362.109 565.005 360.266 567.299 358.95C569.593 357.634 572.282 356.975 575.365 356.975C578.449 356.975 581.138 357.634 583.432 358.95C585.726 360.266 587.512 362.109 588.79 364.478C590.069 366.809 590.708 369.573 590.708 372.77C590.708 375.966 590.069 378.749 588.79 381.118C587.512 383.487 585.726 385.33 583.432 386.646C581.138 387.925 578.449 388.564 575.365 388.564ZM575.365 382.077C577.471 382.077 579.107 381.269 580.273 379.652C581.439 377.997 582.021 375.703 582.021 372.77C582.021 369.837 581.439 367.561 580.273 365.944C579.107 364.29 577.471 363.462 575.365 363.462C573.259 363.462 571.623 364.29 570.458 365.944C569.292 367.561 568.709 369.837 568.709 372.77C568.709 375.703 569.292 377.997 570.458 379.652C571.623 381.269 573.259 382.077 575.365 382.077ZM609.684 388.564C606.6 388.564 603.912 387.925 601.618 386.646C599.324 385.33 597.537 383.487 596.259 381.118C594.98 378.749 594.341 375.966 594.341 372.77C594.341 369.573 594.98 366.809 596.259 364.478C597.537 362.109 599.324 360.266 601.618 358.95C603.912 357.634 606.6 356.975 609.684 356.975C612.768 356.975 615.456 357.634 617.75 358.95C620.044 360.266 621.831 362.109 623.109 364.478C624.388 366.809 625.027 369.573 625.027 372.77C625.027 375.966 624.388 378.749 623.109 381.118C621.831 383.487 620.044 385.33 617.75 386.646C615.456 387.925 612.768 388.564 609.684 388.564ZM609.684 382.077C611.79 382.077 613.426 381.269 614.591 379.652C615.757 377.997 616.34 375.703 616.34 372.77C616.34 369.837 615.757 367.561 614.591 365.944C613.426 364.29 611.79 363.462 609.684 363.462C607.578 363.462 605.942 364.29 604.776 365.944C603.611 367.561 603.028 369.837 603.028 372.77C603.028 375.703 603.611 377.997 604.776 379.652C605.942 381.269 607.578 382.077 609.684 382.077ZM630.296 387.887V357.652H637.911L638.193 364.929L637.403 364.591C637.817 362.974 638.437 361.601 639.265 360.473C640.129 359.345 641.164 358.48 642.367 357.878C643.57 357.276 644.887 356.975 646.316 356.975C648.835 356.975 650.866 357.709 652.408 359.175C653.987 360.642 655.002 362.616 655.454 365.098L654.382 365.155C654.72 363.387 655.303 361.902 656.131 360.698C656.996 359.457 658.049 358.536 659.289 357.934C660.53 357.295 661.922 356.975 663.464 356.975C665.57 356.975 667.375 357.408 668.879 358.273C670.383 359.138 671.549 360.435 672.376 362.165C673.204 363.857 673.617 365.944 673.617 368.426V387.887H665.156V370.795C665.156 368.426 664.799 366.659 664.084 365.493C663.37 364.29 662.204 363.688 660.587 363.688C659.572 363.688 658.707 363.97 657.992 364.534C657.278 365.098 656.714 365.926 656.3 367.016C655.924 368.069 655.736 369.366 655.736 370.908V387.887H648.121V370.908C648.121 368.577 647.782 366.79 647.105 365.549C646.428 364.309 645.263 363.688 643.608 363.688C642.593 363.688 641.709 363.97 640.957 364.534C640.242 365.098 639.697 365.926 639.321 367.016C638.945 368.107 638.757 369.404 638.757 370.908V387.887H630.296ZM693.92 387.887V357.652H702.381V387.887H693.92ZM693.751 353.929V347.16H702.494V353.929H693.751ZM710.171 387.887V357.652H717.786L718.124 366.508L717.053 366.226C717.353 363.97 717.955 362.165 718.858 360.811C719.798 359.457 720.964 358.48 722.355 357.878C723.746 357.276 725.269 356.975 726.924 356.975C729.105 356.975 730.948 357.445 732.452 358.386C733.994 359.326 735.16 360.661 735.949 362.391C736.777 364.083 737.19 366.095 737.19 368.426V387.887H728.729V371.247C728.729 369.63 728.597 368.257 728.334 367.129C728.071 366.001 727.601 365.155 726.924 364.591C726.247 363.989 725.307 363.688 724.104 363.688C722.336 363.688 720.982 364.346 720.042 365.662C719.102 366.941 718.632 368.802 718.632 371.247V387.887H710.171ZM756.856 388.564C753.735 388.564 751.121 388.132 749.015 387.267C746.909 386.364 745.292 385.161 744.164 383.657C743.074 382.115 742.453 380.347 742.303 378.354L750.877 378.072C751.14 379.501 751.742 380.611 752.682 381.4C753.622 382.19 755.013 382.585 756.856 382.585C758.36 382.585 759.526 382.34 760.353 381.852C761.218 381.363 761.651 380.611 761.651 379.595C761.651 378.956 761.5 378.429 761.199 378.016C760.899 377.564 760.297 377.188 759.394 376.888C758.529 376.549 757.232 376.248 755.502 375.985C752.306 375.421 749.805 374.763 748 374.011C746.195 373.259 744.916 372.281 744.164 371.078C743.412 369.874 743.036 368.408 743.036 366.678C743.036 363.782 744.145 361.45 746.364 359.683C748.62 357.878 751.986 356.975 756.461 356.975C759.319 356.975 761.707 357.427 763.625 358.329C765.581 359.232 767.085 360.473 768.138 362.052C769.228 363.594 769.905 365.361 770.168 367.355L761.651 367.693C761.538 366.715 761.237 365.888 760.748 365.211C760.297 364.497 759.714 363.951 759 363.575C758.285 363.162 757.42 362.955 756.405 362.955C754.901 362.955 753.735 363.274 752.907 363.914C752.118 364.515 751.723 365.324 751.723 366.339C751.723 367.091 751.892 367.712 752.231 368.201C752.607 368.652 753.208 369.028 754.036 369.329C754.863 369.63 755.972 369.874 757.364 370.062C760.598 370.513 763.155 371.153 765.035 371.98C766.953 372.77 768.326 373.766 769.153 374.97C769.98 376.173 770.394 377.658 770.394 379.426C770.394 381.381 769.83 383.036 768.702 384.39C767.574 385.744 765.994 386.778 763.963 387.492C761.97 388.207 759.601 388.564 756.856 388.564ZM787.199 387.887C784.078 387.887 781.784 387.173 780.318 385.744C778.851 384.277 778.118 381.964 778.118 378.805V350.545H786.579V377.79C786.579 379.257 786.88 380.253 787.481 380.78C788.121 381.306 789.061 381.569 790.302 381.569H794.532V387.887H787.199ZM773.266 363.97V357.652H794.532V363.97H773.266ZM808.324 388.564C805.203 388.564 802.646 387.85 800.653 386.421C798.697 384.954 797.72 382.923 797.72 380.328C797.72 377.658 798.547 375.609 800.202 374.18C801.894 372.713 804.376 371.642 807.647 370.965L817.406 369.047C817.406 367.091 816.955 365.625 816.052 364.647C815.187 363.632 813.928 363.124 812.273 363.124C810.656 363.124 809.396 363.5 808.494 364.252C807.591 364.967 807.008 366.038 806.745 367.467L798.227 367.073C798.791 363.763 800.277 361.262 802.683 359.57C805.128 357.84 808.324 356.975 812.273 356.975C816.786 356.975 820.17 358.047 822.426 360.191C824.72 362.334 825.867 365.474 825.867 369.611V379.934C825.867 380.799 825.999 381.381 826.262 381.682C826.563 381.946 826.995 382.077 827.56 382.077H828.406V387.887C828.142 387.962 827.71 388.038 827.108 388.113C826.544 388.188 825.98 388.226 825.416 388.226C824.213 388.226 823.085 388.019 822.032 387.605C821.016 387.192 820.189 386.496 819.55 385.518C818.91 384.503 818.591 383.074 818.591 381.231L819.324 381.795C818.948 383.149 818.271 384.333 817.293 385.349C816.353 386.364 815.112 387.154 813.57 387.718C812.066 388.282 810.317 388.564 808.324 388.564ZM810.355 382.754C811.746 382.754 812.969 382.491 814.022 381.964C815.075 381.4 815.902 380.592 816.504 379.539C817.105 378.486 817.406 377.245 817.406 375.816V374.349L810.524 375.816C809.17 376.079 808.136 376.53 807.422 377.17C806.745 377.771 806.406 378.561 806.406 379.539C806.406 380.554 806.745 381.344 807.422 381.908C808.099 382.472 809.076 382.754 810.355 382.754ZM832.848 387.887V357.652H840.463L840.801 366.508L839.73 366.226C840.03 363.97 840.632 362.165 841.535 360.811C842.475 359.457 843.641 358.48 845.032 357.878C846.423 357.276 847.946 356.975 849.601 356.975C851.782 356.975 853.625 357.445 855.129 358.386C856.671 359.326 857.837 360.661 858.626 362.391C859.454 364.083 859.867 366.095 859.867 368.426V387.887H851.406V371.247C851.406 369.63 851.275 368.257 851.011 367.129C850.748 366.001 850.278 365.155 849.601 364.591C848.924 363.989 847.984 363.688 846.781 363.688C845.013 363.688 843.659 364.346 842.719 365.662C841.779 366.941 841.309 368.802 841.309 371.247V387.887H832.848ZM877.871 387.887C874.75 387.887 872.456 387.173 870.99 385.744C869.523 384.277 868.79 381.964 868.79 378.805V350.545H877.251V377.79C877.251 379.257 877.552 380.253 878.154 380.78C878.793 381.306 879.733 381.569 880.974 381.569H885.205V387.887H877.871ZM863.939 363.97V357.652H885.205V363.97H863.939ZM898.365 387.887C895.883 387.887 893.947 387.267 892.555 386.026C891.164 384.785 890.468 382.773 890.468 379.99V347.837H898.929V379.088C898.929 379.99 899.136 380.629 899.55 381.005C899.963 381.381 900.565 381.569 901.355 381.569H903.386V387.887H898.365ZM908.705 396.348V390.031H912.71C913.688 390.031 914.402 389.88 914.853 389.579C915.342 389.316 915.718 388.827 915.981 388.113L916.602 386.364H914.289L903.684 357.652H912.315L919.253 378.467L925.74 357.652H934.371L922.75 390.764C922.074 392.757 921.096 394.186 919.817 395.051C918.539 395.916 916.752 396.348 914.458 396.348H908.705ZM934.774 387.887V379.257H943.969V387.887H934.774Z" fill="#3F95B2"/>
<path d="M10.5901 468.249C9.16433 468.249 7.94945 468.018 6.94541 467.556C5.96145 467.094 5.18835 466.461 4.62609 465.658C4.08391 464.835 3.77266 463.901 3.69233 462.857L6.34299 462.676C6.50363 463.64 6.91529 464.413 7.57795 464.996C8.24062 465.558 9.24465 465.839 10.5901 465.839C11.6744 465.839 12.5379 465.668 13.1805 465.327C13.8431 464.965 14.1745 464.393 14.1745 463.61C14.1745 463.188 14.0741 462.837 13.8733 462.556C13.6725 462.275 13.2809 462.034 12.6985 461.833C12.1162 461.612 11.2527 461.401 10.1081 461.2C8.58199 460.919 7.37715 460.578 6.49359 460.176C5.63012 459.755 5.00762 459.242 4.62609 458.64C4.26463 458.018 4.08391 457.285 4.08391 456.441C4.08391 455.015 4.60601 453.851 5.6502 452.947C6.6944 452.023 8.18038 451.562 10.1081 451.562C11.4134 451.562 12.5078 451.803 13.3913 452.284C14.295 452.746 14.9978 453.369 15.4998 454.152C16.0219 454.915 16.3633 455.758 16.5239 456.682L13.8733 456.863C13.7528 456.301 13.5319 455.809 13.2106 455.387C12.8893 454.945 12.4676 454.604 11.9455 454.363C11.4234 454.102 10.8009 453.971 10.078 453.971C8.9334 453.971 8.09001 454.192 7.54783 454.634C7.00565 455.076 6.73456 455.638 6.73456 456.321C6.73456 456.843 6.85505 457.275 7.09602 457.616C7.35707 457.937 7.76872 458.208 8.33098 458.429C8.89324 458.63 9.64627 458.811 10.5901 458.971C12.2166 459.252 13.4817 459.594 14.3853 459.995C15.289 460.397 15.9215 460.889 16.2829 461.471C16.6444 462.054 16.8251 462.767 16.8251 463.61C16.8251 464.594 16.544 465.437 15.9817 466.14C15.4396 466.823 14.6966 467.345 13.7528 467.706C12.8291 468.068 11.7748 468.249 10.5901 468.249ZM26.5135 468.249C25.0075 468.249 23.7022 467.907 22.5978 467.225C21.5134 466.542 20.67 465.578 20.0676 464.333C19.4853 463.068 19.1941 461.592 19.1941 459.905C19.1941 458.218 19.4853 456.752 20.0676 455.507C20.67 454.262 21.5034 453.299 22.5677 452.616C23.652 451.913 24.9272 451.562 26.393 451.562C27.7786 451.562 29.0035 451.893 30.0678 452.556C31.1321 453.198 31.9554 454.142 32.5377 455.387C33.1402 456.632 33.4414 458.148 33.4414 459.935V460.688H21.8448C21.9452 462.395 22.397 463.68 23.2002 464.544C24.0235 465.407 25.128 465.839 26.5135 465.839C27.5577 465.839 28.4112 465.598 29.0738 465.116C29.7566 464.614 30.2285 463.961 30.4895 463.158L33.2004 463.369C32.7787 464.795 31.9755 465.969 30.7907 466.893C29.626 467.797 28.2003 468.249 26.5135 468.249ZM21.8448 458.459H30.6702C30.5498 456.913 30.0979 455.779 29.3148 455.056C28.5517 454.333 27.5778 453.971 26.393 453.971C25.1681 453.971 24.154 454.353 23.3508 455.116C22.5677 455.859 22.0656 456.973 21.8448 458.459ZM41.5877 468.249C39.9411 468.249 38.6258 467.867 37.6419 467.104C36.678 466.341 36.196 465.277 36.196 463.911C36.196 462.546 36.5977 461.471 37.4009 460.688C38.2041 459.905 39.4792 459.353 41.2263 459.032L46.889 457.977C46.889 456.632 46.5677 455.628 45.9252 454.965C45.3027 454.303 44.3589 453.971 43.0938 453.971C41.9893 453.971 41.1158 454.222 40.4732 454.724C39.8307 455.206 39.3889 455.909 39.1479 456.833L36.4671 456.622C36.7683 455.116 37.4913 453.901 38.6359 452.977C39.8005 452.033 41.2865 451.562 43.0938 451.562C45.142 451.562 46.7083 452.144 47.7927 453.309C48.877 454.453 49.4192 456.04 49.4192 458.068V464.664C49.4192 465.026 49.4794 465.287 49.5999 465.447C49.7405 465.588 49.9614 465.658 50.2626 465.658H50.8951V467.887C50.8148 467.907 50.6843 467.917 50.5036 467.917C50.3228 467.937 50.1321 467.947 49.9313 467.947C49.2084 467.947 48.616 467.837 48.1541 467.616C47.7123 467.375 47.3911 467.014 47.1902 466.532C46.9894 466.03 46.889 465.377 46.889 464.574L47.1902 464.634C47.0497 465.317 46.7083 465.939 46.1661 466.502C45.6239 467.044 44.9512 467.476 44.148 467.797C43.3448 468.098 42.4914 468.249 41.5877 468.249ZM41.8287 466.02C42.893 466.02 43.7966 465.819 44.5396 465.417C45.3027 464.996 45.885 464.433 46.2866 463.73C46.6882 463.008 46.889 462.204 46.889 461.321V460.176L41.7082 461.14C40.6238 461.341 39.8708 461.652 39.4491 462.074C39.0475 462.475 38.8467 463.008 38.8467 463.67C38.8467 464.413 39.1078 464.996 39.6299 465.417C40.172 465.819 40.905 466.02 41.8287 466.02ZM53.7529 467.887V451.923H56.0722L56.1626 455.959L55.8011 455.839C55.9818 454.955 56.2931 454.202 56.7349 453.58C57.1967 452.937 57.759 452.445 58.4216 452.104C59.0843 451.742 59.8173 451.562 60.6205 451.562C62.0061 451.562 63.1306 451.943 63.9941 452.706C64.8776 453.469 65.4298 454.534 65.6507 455.899L65.1688 455.869C65.3294 454.945 65.6206 454.172 66.0423 453.55C66.4841 452.907 67.0463 452.415 67.7291 452.074C68.4118 451.732 69.195 451.562 70.0785 451.562C71.2231 451.562 72.187 451.803 72.9701 452.284C73.7533 452.746 74.3457 453.429 74.7473 454.333C75.1489 455.236 75.3497 456.331 75.3497 457.616V467.887H72.8195V458.158C72.8195 456.712 72.5384 455.628 71.9761 454.905C71.4139 454.162 70.5805 453.791 69.4761 453.791C68.7331 453.791 68.0805 453.971 67.5182 454.333C66.976 454.694 66.5543 455.216 66.2531 455.899C65.9519 456.562 65.8013 457.375 65.8013 458.339V467.887H63.2711V458.339C63.2711 456.913 63.0201 455.799 62.5181 454.995C62.0161 454.192 61.1727 453.791 59.9879 453.791C59.245 453.791 58.5923 453.971 58.0301 454.333C57.4879 454.694 57.0562 455.216 56.7349 455.899C56.4337 456.582 56.2831 457.395 56.2831 458.339V467.887H53.7529ZM82.859 467.887C81.9353 467.887 81.1823 467.646 80.5999 467.164C80.0176 466.682 79.7264 465.919 79.7264 464.875V446.501H82.2566V464.664C82.2566 464.986 82.3369 465.237 82.4976 465.417C82.6783 465.578 82.9293 465.658 83.2506 465.658H84.6362V467.887H82.859ZM93.8153 468.249C92.3093 468.249 91.004 467.907 89.8996 467.225C88.8152 466.542 87.9718 465.578 87.3694 464.333C86.7871 463.068 86.4959 461.592 86.4959 459.905C86.4959 458.218 86.7871 456.752 87.3694 455.507C87.9718 454.262 88.8052 453.299 89.8695 452.616C90.9538 451.913 92.229 451.562 93.6949 451.562C95.0804 451.562 96.3053 451.893 97.3696 452.556C98.4339 453.198 99.2572 454.142 99.8396 455.387C100.442 456.632 100.743 458.148 100.743 459.935V460.688H89.1466C89.247 462.395 89.6988 463.68 90.502 464.544C91.3253 465.407 92.4298 465.839 93.8153 465.839C94.8595 465.839 95.713 465.598 96.3756 465.116C97.0584 464.614 97.5303 463.961 97.7913 463.158L100.502 463.369C100.081 464.795 99.2773 465.969 98.0925 466.893C96.9279 467.797 95.5021 468.249 93.8153 468.249ZM89.1466 458.459H97.972C97.8516 456.913 97.3997 455.779 96.6166 455.056C95.8535 454.333 94.8796 453.971 93.6949 453.971C92.4699 453.971 91.4559 454.353 90.6526 455.116C89.8695 455.859 89.3675 456.973 89.1466 458.459ZM109.984 468.249C108.558 468.249 107.343 468.018 106.339 467.556C105.355 467.094 104.582 466.461 104.02 465.658C103.478 464.835 103.166 463.901 103.086 462.857L105.737 462.676C105.897 463.64 106.309 464.413 106.972 464.996C107.634 465.558 108.638 465.839 109.984 465.839C111.068 465.839 111.932 465.668 112.574 465.327C113.237 464.965 113.568 464.393 113.568 463.61C113.568 463.188 113.468 462.837 113.267 462.556C113.066 462.275 112.675 462.034 112.092 461.833C111.51 461.612 110.646 461.401 109.502 461.2C107.976 460.919 106.771 460.578 105.887 460.176C105.024 459.755 104.401 459.242 104.02 458.64C103.658 458.018 103.478 457.285 103.478 456.441C103.478 455.015 104 453.851 105.044 452.947C106.088 452.023 107.574 451.562 109.502 451.562C110.807 451.562 111.901 451.803 112.785 452.284C113.689 452.746 114.391 453.369 114.894 454.152C115.416 454.915 115.757 455.758 115.918 456.682L113.267 456.863C113.146 456.301 112.926 455.809 112.604 455.387C112.283 454.945 111.861 454.604 111.339 454.363C110.817 454.102 110.195 453.971 109.472 453.971C108.327 453.971 107.484 454.192 106.942 454.634C106.399 455.076 106.128 455.638 106.128 456.321C106.128 456.843 106.249 457.275 106.49 457.616C106.751 457.937 107.162 458.208 107.725 458.429C108.287 458.63 109.04 458.811 109.984 458.971C111.61 459.252 112.875 459.594 113.779 459.995C114.683 460.397 115.315 460.889 115.677 461.471C116.038 462.054 116.219 462.767 116.219 463.61C116.219 464.594 115.938 465.437 115.375 466.14C114.833 466.823 114.09 467.345 113.146 467.706C112.223 468.068 111.169 468.249 109.984 468.249ZM125.486 468.249C124.06 468.249 122.845 468.018 121.841 467.556C120.857 467.094 120.084 466.461 119.522 465.658C118.979 464.835 118.668 463.901 118.588 462.857L121.238 462.676C121.399 463.64 121.811 464.413 122.473 464.996C123.136 465.558 124.14 465.839 125.486 465.839C126.57 465.839 127.433 465.668 128.076 465.327C128.739 464.965 129.07 464.393 129.07 463.61C129.07 463.188 128.97 462.837 128.769 462.556C128.568 462.275 128.176 462.034 127.594 461.833C127.012 461.612 126.148 461.401 125.004 461.2C123.477 460.919 122.273 460.578 121.389 460.176C120.526 459.755 119.903 459.242 119.522 458.64C119.16 458.018 118.979 457.285 118.979 456.441C118.979 455.015 119.501 453.851 120.546 452.947C121.59 452.023 123.076 451.562 125.004 451.562C126.309 451.562 127.403 451.803 128.287 452.284C129.19 452.746 129.893 453.369 130.395 454.152C130.917 454.915 131.259 455.758 131.419 456.682L128.769 456.863C128.648 456.301 128.427 455.809 128.106 455.387C127.785 454.945 127.363 454.604 126.841 454.363C126.319 454.102 125.696 453.971 124.973 453.971C123.829 453.971 122.985 454.192 122.443 454.634C121.901 455.076 121.63 455.638 121.63 456.321C121.63 456.843 121.751 457.275 121.992 457.616C122.253 457.937 122.664 458.208 123.226 458.429C123.789 458.63 124.542 458.811 125.486 458.971C127.112 459.252 128.377 459.594 129.281 459.995C130.184 460.397 130.817 460.889 131.178 461.471C131.54 462.054 131.721 462.767 131.721 463.61C131.721 464.594 131.439 465.437 130.877 466.14C130.335 466.823 129.592 467.345 128.648 467.706C127.725 468.068 126.67 468.249 125.486 468.249ZM138.454 467.887C137.53 467.887 136.777 467.646 136.195 467.164C135.612 466.682 135.321 465.919 135.321 464.875V446.501H137.851V464.664C137.851 464.986 137.932 465.237 138.092 465.417C138.273 465.578 138.524 465.658 138.845 465.658H140.231V467.887H138.454ZM143.309 472.405V470.176H145.146C145.708 470.176 146.12 470.086 146.381 469.905C146.662 469.745 146.873 469.474 147.014 469.092L147.586 467.586H146.712L140.869 451.923H143.64L148.399 465.237L152.948 451.923H155.719L149.243 469.905C148.941 470.769 148.49 471.401 147.887 471.803C147.285 472.205 146.451 472.405 145.387 472.405H143.309ZM166.325 467.887V451.923H168.644L168.734 455.989L168.433 455.718C168.634 454.774 168.985 454.001 169.487 453.399C169.989 452.776 170.592 452.315 171.295 452.013C172.017 451.712 172.791 451.562 173.614 451.562C174.839 451.562 175.843 451.833 176.626 452.375C177.429 452.917 178.022 453.65 178.403 454.574C178.805 455.477 179.006 456.491 179.006 457.616V467.887H176.475V458.339C176.475 457.355 176.355 456.532 176.114 455.869C175.893 455.186 175.532 454.674 175.03 454.333C174.528 453.971 173.875 453.791 173.072 453.791C171.847 453.791 170.833 454.182 170.029 454.965C169.246 455.728 168.855 456.853 168.855 458.339V467.887H166.325ZM187.84 468.249C186.193 468.249 184.878 467.867 183.894 467.104C182.93 466.341 182.448 465.277 182.448 463.911C182.448 462.546 182.85 461.471 183.653 460.688C184.456 459.905 185.731 459.353 187.478 459.032L193.141 457.977C193.141 456.632 192.82 455.628 192.177 454.965C191.555 454.303 190.611 453.971 189.346 453.971C188.241 453.971 187.368 454.222 186.725 454.724C186.083 455.206 185.641 455.909 185.4 456.833L182.719 456.622C183.02 455.116 183.743 453.901 184.888 452.977C186.053 452.033 187.539 451.562 189.346 451.562C191.394 451.562 192.96 452.144 194.045 453.309C195.129 454.453 195.671 456.04 195.671 458.068V464.664C195.671 465.026 195.731 465.287 195.852 465.447C195.993 465.588 196.213 465.658 196.515 465.658H197.147V467.887C197.067 467.907 196.936 467.917 196.756 467.917C196.575 467.937 196.384 467.947 196.183 467.947C195.46 467.947 194.868 467.837 194.406 467.616C193.964 467.375 193.643 467.014 193.442 466.532C193.241 466.03 193.141 465.377 193.141 464.574L193.442 464.634C193.302 465.317 192.96 465.939 192.418 466.502C191.876 467.044 191.203 467.476 190.4 467.797C189.597 468.098 188.743 468.249 187.84 468.249ZM188.081 466.02C189.145 466.02 190.049 465.819 190.792 465.417C191.555 464.996 192.137 464.433 192.539 463.73C192.94 463.008 193.141 462.204 193.141 461.321V460.176L187.96 461.14C186.876 461.341 186.123 461.652 185.701 462.074C185.3 462.475 185.099 463.008 185.099 463.67C185.099 464.413 185.36 464.996 185.882 465.417C186.424 465.819 187.157 466.02 188.081 466.02ZM203.454 467.887L197.64 451.923H200.411L205.05 465.297L209.689 451.923H212.46L206.646 467.887H203.454ZM215.242 467.887V451.923H217.772V467.887H215.242ZM215.182 449.423V446.471H217.832V449.423H215.182ZM228.356 472.767C227.211 472.767 226.177 472.576 225.253 472.195C224.33 471.813 223.557 471.271 222.934 470.568C222.312 469.865 221.89 469.052 221.669 468.128L224.32 467.947C224.561 468.69 224.982 469.273 225.585 469.694C226.207 470.136 227.131 470.357 228.356 470.357C229.802 470.357 230.906 470.066 231.669 469.484C232.452 468.901 232.844 468.028 232.844 466.863V464.273C232.462 465.116 231.85 465.789 231.007 466.291C230.163 466.793 229.219 467.044 228.175 467.044C226.83 467.044 225.625 466.712 224.561 466.05C223.516 465.387 222.693 464.473 222.091 463.309C221.508 462.144 221.217 460.809 221.217 459.303C221.217 457.777 221.508 456.441 222.091 455.297C222.673 454.132 223.476 453.218 224.5 452.556C225.545 451.893 226.729 451.562 228.055 451.562C229.179 451.562 230.183 451.823 231.067 452.345C231.97 452.867 232.603 453.57 232.964 454.453V451.923H235.374V466.803C235.374 468.048 235.093 469.112 234.531 469.996C233.968 470.899 233.165 471.582 232.121 472.044C231.077 472.526 229.822 472.767 228.356 472.767ZM228.296 464.634C229.661 464.634 230.756 464.162 231.579 463.218C232.402 462.255 232.824 460.949 232.844 459.303C232.864 458.198 232.683 457.254 232.302 456.471C231.94 455.668 231.408 455.056 230.705 454.634C230.023 454.192 229.219 453.971 228.296 453.971C226.89 453.971 225.796 454.453 225.012 455.417C224.249 456.361 223.868 457.656 223.868 459.303C223.868 460.949 224.259 462.255 225.043 463.218C225.846 464.162 226.93 464.634 228.296 464.634ZM244.493 468.249C242.847 468.249 241.531 467.867 240.547 467.104C239.584 466.341 239.102 465.277 239.102 463.911C239.102 462.546 239.503 461.471 240.306 460.688C241.11 459.905 242.385 459.353 244.132 459.032L249.795 457.977C249.795 456.632 249.473 455.628 248.831 454.965C248.208 454.303 247.264 453.971 245.999 453.971C244.895 453.971 244.021 454.222 243.379 454.724C242.736 455.206 242.294 455.909 242.053 456.833L239.373 456.622C239.674 455.116 240.397 453.901 241.541 452.977C242.706 452.033 244.192 451.562 245.999 451.562C248.048 451.562 249.614 452.144 250.698 453.309C251.783 454.453 252.325 456.04 252.325 458.068V464.664C252.325 465.026 252.385 465.287 252.505 465.447C252.646 465.588 252.867 465.658 253.168 465.658H253.801V467.887C253.72 467.907 253.59 467.917 253.409 467.917C253.228 467.937 253.038 467.947 252.837 467.947C252.114 467.947 251.522 467.837 251.06 467.616C250.618 467.375 250.297 467.014 250.096 466.532C249.895 466.03 249.795 465.377 249.795 464.574L250.096 464.634C249.955 465.317 249.614 465.939 249.072 466.502C248.529 467.044 247.857 467.476 247.054 467.797C246.25 468.098 245.397 468.249 244.493 468.249ZM244.734 466.02C245.799 466.02 246.702 465.819 247.445 465.417C248.208 464.996 248.791 464.433 249.192 463.73C249.594 463.008 249.795 462.204 249.795 461.321V460.176L244.614 461.14C243.529 461.341 242.776 461.652 242.355 462.074C241.953 462.475 241.752 463.008 241.752 463.67C241.752 464.413 242.013 464.996 242.535 465.417C243.078 465.819 243.811 466.02 244.734 466.02ZM261.708 467.887C260.262 467.887 259.188 467.556 258.485 466.893C257.802 466.231 257.461 465.196 257.461 463.791V448.188H259.991V463.73C259.991 464.453 260.151 464.955 260.473 465.237C260.794 465.518 261.286 465.658 261.949 465.658H264.238V467.887H261.708ZM255.111 454.152V451.923H264.238V454.152H255.111ZM273.424 468.249C271.918 468.249 270.613 467.907 269.508 467.225C268.424 466.542 267.581 465.578 266.978 464.333C266.396 463.068 266.105 461.592 266.105 459.905C266.105 458.218 266.396 456.752 266.978 455.507C267.581 454.262 268.414 453.299 269.478 452.616C270.563 451.913 271.838 451.562 273.304 451.562C274.689 451.562 275.914 451.893 276.978 452.556C278.043 453.198 278.866 454.142 279.448 455.387C280.051 456.632 280.352 458.148 280.352 459.935V460.688H268.755C268.856 462.395 269.308 463.68 270.111 464.544C270.934 465.407 272.039 465.839 273.424 465.839C274.468 465.839 275.322 465.598 275.984 465.116C276.667 464.614 277.139 463.961 277.4 463.158L280.111 463.369C279.689 464.795 278.886 465.969 277.701 466.893C276.537 467.797 275.111 468.249 273.424 468.249ZM268.755 458.459H277.581C277.46 456.913 277.009 455.779 276.225 455.056C275.462 454.333 274.488 453.971 273.304 453.971C272.079 453.971 271.065 454.353 270.261 455.116C269.478 455.859 268.976 456.973 268.755 458.459ZM298.923 468.249C297.819 468.249 296.835 468.008 295.971 467.526C295.108 467.024 294.445 466.341 293.983 465.478L293.893 467.887H291.604V446.501H294.134V454.152C294.535 453.489 295.158 452.897 296.001 452.375C296.845 451.833 297.819 451.562 298.923 451.562C300.329 451.562 301.544 451.903 302.568 452.586C303.592 453.268 304.385 454.232 304.947 455.477C305.509 456.722 305.791 458.198 305.791 459.905C305.791 461.612 305.509 463.088 304.947 464.333C304.385 465.578 303.592 466.542 302.568 467.225C301.544 467.907 300.329 468.249 298.923 468.249ZM298.772 465.839C300.118 465.839 301.182 465.307 301.965 464.243C302.748 463.178 303.14 461.732 303.14 459.905C303.14 458.058 302.748 456.612 301.965 455.568C301.182 454.503 300.138 453.971 298.833 453.971C297.849 453.971 297.005 454.212 296.302 454.694C295.6 455.156 295.057 455.829 294.676 456.712C294.314 457.596 294.134 458.66 294.134 459.905C294.134 461.11 294.314 462.164 294.676 463.068C295.057 463.951 295.59 464.634 296.272 465.116C296.975 465.598 297.809 465.839 298.772 465.839ZM314.464 468.249C312.878 468.249 311.603 467.717 310.639 466.652C309.695 465.568 309.223 464.082 309.223 462.194V451.923H311.753V461.502C311.753 463.048 312.025 464.192 312.567 464.935C313.129 465.658 313.982 466.02 315.127 466.02C316.392 466.02 317.386 465.618 318.109 464.815C318.832 463.992 319.193 462.867 319.193 461.441V451.923H321.724V467.887H319.314V463.941L319.705 464.152C319.384 465.457 318.772 466.472 317.868 467.194C316.964 467.897 315.83 468.249 314.464 468.249ZM326.108 467.887V451.923H328.638V467.887H326.108ZM326.047 449.423V446.471H328.698V449.423H326.047ZM336.3 467.887C335.376 467.887 334.623 467.646 334.041 467.164C333.458 466.682 333.167 465.919 333.167 464.875V446.501H335.697V464.664C335.697 464.986 335.778 465.237 335.938 465.417C336.119 465.578 336.37 465.658 336.691 465.658H338.077V467.887H336.3ZM346.684 468.249C345.298 468.249 344.093 467.907 343.069 467.225C342.065 466.542 341.292 465.578 340.75 464.333C340.208 463.088 339.937 461.612 339.937 459.905C339.937 458.198 340.208 456.722 340.75 455.477C341.292 454.232 342.065 453.268 343.069 452.586C344.093 451.903 345.298 451.562 346.684 451.562C347.748 451.562 348.722 451.793 349.606 452.254C350.489 452.696 351.152 453.329 351.594 454.152V446.501H354.124V467.887H351.834L351.744 465.478C351.302 466.341 350.63 467.024 349.726 467.526C348.822 468.008 347.808 468.249 346.684 468.249ZM347.196 465.839C348.14 465.839 348.933 465.598 349.575 465.116C350.238 464.634 350.74 463.951 351.081 463.068C351.423 462.164 351.594 461.11 351.594 459.905C351.594 458.66 351.423 457.596 351.081 456.712C350.74 455.829 350.238 455.156 349.575 454.694C348.933 454.212 348.14 453.971 347.196 453.971C345.79 453.971 344.666 454.503 343.822 455.568C342.999 456.612 342.587 458.058 342.587 459.905C342.587 461.732 342.999 463.178 343.822 464.243C344.666 465.307 345.79 465.839 347.196 465.839ZM358.347 467.887V451.923H360.877V467.887H358.347ZM358.286 449.423V446.471H360.937V449.423H358.286ZM365.994 467.887V451.923H368.314L368.404 455.989L368.103 455.718C368.304 454.774 368.655 454.001 369.157 453.399C369.659 452.776 370.262 452.315 370.964 452.013C371.687 451.712 372.46 451.562 373.284 451.562C374.509 451.562 375.513 451.833 376.296 452.375C377.099 452.917 377.691 453.65 378.073 454.574C378.475 455.477 378.675 456.491 378.675 457.616V467.887H376.145V458.339C376.145 457.355 376.025 456.532 375.784 455.869C375.563 455.186 375.201 454.674 374.699 454.333C374.197 453.971 373.545 453.791 372.742 453.791C371.517 453.791 370.503 454.182 369.699 454.965C368.916 455.728 368.525 456.853 368.525 458.339V467.887H365.994ZM389.198 472.767C388.053 472.767 387.019 472.576 386.095 472.195C385.172 471.813 384.399 471.271 383.776 470.568C383.154 469.865 382.732 469.052 382.511 468.128L385.162 467.947C385.403 468.69 385.824 469.273 386.427 469.694C387.049 470.136 387.973 470.357 389.198 470.357C390.644 470.357 391.748 470.066 392.511 469.484C393.294 468.901 393.686 468.028 393.686 466.863V464.273C393.304 465.116 392.692 465.789 391.848 466.291C391.005 466.793 390.061 467.044 389.017 467.044C387.672 467.044 386.467 466.712 385.403 466.05C384.358 465.387 383.535 464.473 382.933 463.309C382.35 462.144 382.059 460.809 382.059 459.303C382.059 457.777 382.35 456.441 382.933 455.297C383.515 454.132 384.318 453.218 385.342 452.556C386.387 451.893 387.571 451.562 388.897 451.562C390.021 451.562 391.025 451.823 391.909 452.345C392.812 452.867 393.445 453.57 393.806 454.453V451.923H396.216V466.803C396.216 468.048 395.935 469.112 395.373 469.996C394.81 470.899 394.007 471.582 392.963 472.044C391.919 472.526 390.664 472.767 389.198 472.767ZM389.138 464.634C390.503 464.634 391.597 464.162 392.421 463.218C393.244 462.255 393.666 460.949 393.686 459.303C393.706 458.198 393.525 457.254 393.144 456.471C392.782 455.668 392.25 455.056 391.547 454.634C390.865 454.192 390.061 453.971 389.138 453.971C387.732 453.971 386.638 454.453 385.854 455.417C385.091 456.361 384.71 457.656 384.71 459.303C384.71 460.949 385.101 462.255 385.885 463.218C386.688 464.162 387.772 464.634 389.138 464.634ZM406.547 468.249C405.121 468.249 403.906 468.018 402.902 467.556C401.918 467.094 401.145 466.461 400.583 465.658C400.041 464.835 399.73 463.901 399.649 462.857L402.3 462.676C402.461 463.64 402.872 464.413 403.535 464.996C404.198 465.558 405.202 465.839 406.547 465.839C407.631 465.839 408.495 465.668 409.138 465.327C409.8 464.965 410.132 464.393 410.132 463.61C410.132 463.188 410.031 462.837 409.83 462.556C409.629 462.275 409.238 462.034 408.656 461.833C408.073 461.612 407.21 461.401 406.065 461.2C404.539 460.919 403.334 460.578 402.451 460.176C401.587 459.755 400.965 459.242 400.583 458.64C400.222 458.018 400.041 457.285 400.041 456.441C400.041 455.015 400.563 453.851 401.607 452.947C402.651 452.023 404.137 451.562 406.065 451.562C407.37 451.562 408.465 451.803 409.348 452.284C410.252 452.746 410.955 453.369 411.457 454.152C411.979 454.915 412.32 455.758 412.481 456.682L409.83 456.863C409.71 456.301 409.489 455.809 409.168 455.387C408.846 454.945 408.425 454.604 407.903 454.363C407.38 454.102 406.758 453.971 406.035 453.971C404.89 453.971 404.047 454.192 403.505 454.634C402.963 455.076 402.692 455.638 402.692 456.321C402.692 456.843 402.812 457.275 403.053 457.616C403.314 457.937 403.726 458.208 404.288 458.429C404.85 458.63 405.603 458.811 406.547 458.971C408.174 459.252 409.439 459.594 410.342 459.995C411.246 460.397 411.879 460.889 412.24 461.471C412.601 462.054 412.782 462.767 412.782 463.61C412.782 464.594 412.501 465.437 411.939 466.14C411.397 466.823 410.654 467.345 409.71 467.706C408.786 468.068 407.732 468.249 406.547 468.249ZM415.536 472.586L416.981 467.887H415.445V464.484H418.849V467.466L417.042 472.586H415.536ZM436.355 468.249C434.869 468.249 433.573 467.907 432.469 467.225C431.385 466.542 430.541 465.578 429.939 464.333C429.336 463.068 429.035 461.592 429.035 459.905C429.035 458.218 429.336 456.752 429.939 455.507C430.541 454.262 431.385 453.299 432.469 452.616C433.573 451.913 434.869 451.562 436.355 451.562C437.579 451.562 438.664 451.782 439.608 452.224C440.571 452.646 441.355 453.268 441.957 454.092C442.559 454.915 442.951 455.919 443.132 457.104L440.481 457.285C440.3 456.22 439.839 455.407 439.096 454.845C438.353 454.262 437.439 453.971 436.355 453.971C434.889 453.971 433.744 454.503 432.921 455.568C432.097 456.612 431.686 458.058 431.686 459.905C431.686 461.753 432.097 463.208 432.921 464.273C433.744 465.317 434.889 465.839 436.355 465.839C437.439 465.839 438.353 465.538 439.096 464.935C439.839 464.333 440.3 463.429 440.481 462.224L443.132 462.405C442.951 463.59 442.559 464.624 441.957 465.508C441.355 466.371 440.571 467.044 439.608 467.526C438.664 468.008 437.579 468.249 436.355 468.249ZM449.548 467.887C448.624 467.887 447.871 467.646 447.289 467.164C446.707 466.682 446.415 465.919 446.415 464.875V446.501H448.946V464.664C448.946 464.986 449.026 465.237 449.187 465.417C449.367 465.578 449.618 465.658 449.94 465.658H451.325V467.887H449.548ZM458.753 468.249C457.106 468.249 455.791 467.867 454.807 467.104C453.843 466.341 453.361 465.277 453.361 463.911C453.361 462.546 453.763 461.471 454.566 460.688C455.369 459.905 456.645 459.353 458.392 459.032L464.054 457.977C464.054 456.632 463.733 455.628 463.09 454.965C462.468 454.303 461.524 453.971 460.259 453.971C459.155 453.971 458.281 454.222 457.639 454.724C456.996 455.206 456.554 455.909 456.313 456.833L453.632 456.622C453.934 455.116 454.657 453.901 455.801 452.977C456.966 452.033 458.452 451.562 460.259 451.562C462.307 451.562 463.874 452.144 464.958 453.309C466.042 454.453 466.585 456.04 466.585 458.068V464.664C466.585 465.026 466.645 465.287 466.765 465.447C466.906 465.588 467.127 465.658 467.428 465.658H468.06V467.887C467.98 467.907 467.85 467.917 467.669 467.917C467.488 467.937 467.297 467.947 467.097 467.947C466.374 467.947 465.781 467.837 465.319 467.616C464.878 467.375 464.556 467.014 464.356 466.532C464.155 466.03 464.054 465.377 464.054 464.574L464.356 464.634C464.215 465.317 463.874 465.939 463.331 466.502C462.789 467.044 462.117 467.476 461.313 467.797C460.51 468.098 459.657 468.249 458.753 468.249ZM458.994 466.02C460.058 466.02 460.962 465.819 461.705 465.417C462.468 464.996 463.05 464.433 463.452 463.73C463.854 463.008 464.054 462.204 464.054 461.321V460.176L458.874 461.14C457.789 461.341 457.036 461.652 456.614 462.074C456.213 462.475 456.012 463.008 456.012 463.67C456.012 464.413 456.273 464.996 456.795 465.417C457.337 465.819 458.07 466.02 458.994 466.02ZM476.673 468.249C475.247 468.249 474.032 468.018 473.028 467.556C472.044 467.094 471.271 466.461 470.709 465.658C470.167 464.835 469.855 463.901 469.775 462.857L472.426 462.676C472.586 463.64 472.998 464.413 473.661 464.996C474.323 465.558 475.327 465.839 476.673 465.839C477.757 465.839 478.621 465.668 479.263 465.327C479.926 464.965 480.257 464.393 480.257 463.61C480.257 463.188 480.157 462.837 479.956 462.556C479.755 462.275 479.364 462.034 478.781 461.833C478.199 461.612 477.335 461.401 476.191 461.2C474.665 460.919 473.46 460.578 472.576 460.176C471.713 459.755 471.09 459.242 470.709 458.64C470.347 458.018 470.167 457.285 470.167 456.441C470.167 455.015 470.689 453.851 471.733 452.947C472.777 452.023 474.263 451.562 476.191 451.562C477.496 451.562 478.59 451.803 479.474 452.284C480.378 452.746 481.08 453.369 481.583 454.152C482.105 454.915 482.446 455.758 482.607 456.682L479.956 456.863C479.835 456.301 479.615 455.809 479.293 455.387C478.972 454.945 478.55 454.604 478.028 454.363C477.506 454.102 476.884 453.971 476.161 453.971C475.016 453.971 474.173 454.192 473.631 454.634C473.088 455.076 472.817 455.638 472.817 456.321C472.817 456.843 472.938 457.275 473.179 457.616C473.44 457.937 473.851 458.208 474.414 458.429C474.976 458.63 475.729 458.811 476.673 458.971C478.299 459.252 479.564 459.594 480.468 459.995C481.372 460.397 482.004 460.889 482.366 461.471C482.727 462.054 482.908 462.767 482.908 463.61C482.908 464.594 482.627 465.437 482.064 466.14C481.522 466.823 480.779 467.345 479.835 467.706C478.912 468.068 477.858 468.249 476.673 468.249ZM492.175 468.249C490.749 468.249 489.534 468.018 488.53 467.556C487.546 467.094 486.773 466.461 486.211 465.658C485.668 464.835 485.357 463.901 485.277 462.857L487.927 462.676C488.088 463.64 488.5 464.413 489.162 464.996C489.825 465.558 490.829 465.839 492.175 465.839C493.259 465.839 494.122 465.668 494.765 465.327C495.428 464.965 495.759 464.393 495.759 463.61C495.759 463.188 495.659 462.837 495.458 462.556C495.257 462.275 494.865 462.034 494.283 461.833C493.701 461.612 492.837 461.401 491.693 461.2C490.166 460.919 488.962 460.578 488.078 460.176C487.215 459.755 486.592 459.242 486.211 458.64C485.849 458.018 485.668 457.285 485.668 456.441C485.668 455.015 486.19 453.851 487.235 452.947C488.279 452.023 489.765 451.562 491.693 451.562C492.998 451.562 494.092 451.803 494.976 452.284C495.879 452.746 496.582 453.369 497.084 454.152C497.606 454.915 497.948 455.758 498.108 456.682L495.458 456.863C495.337 456.301 495.116 455.809 494.795 455.387C494.474 454.945 494.052 454.604 493.53 454.363C493.008 454.102 492.385 453.971 491.662 453.971C490.518 453.971 489.674 454.192 489.132 454.634C488.59 455.076 488.319 455.638 488.319 456.321C488.319 456.843 488.44 457.275 488.68 457.616C488.942 457.937 489.353 458.208 489.915 458.429C490.478 458.63 491.231 458.811 492.175 458.971C493.801 459.252 495.066 459.594 495.97 459.995C496.873 460.397 497.506 460.889 497.867 461.471C498.229 462.054 498.41 462.767 498.41 463.61C498.41 464.594 498.128 465.437 497.566 466.14C497.024 466.823 496.281 467.345 495.337 467.706C494.414 468.068 493.359 468.249 492.175 468.249ZM501.863 467.887V451.923H504.092L504.212 455.959L503.971 455.869C504.172 454.503 504.604 453.509 505.267 452.887C505.949 452.244 506.853 451.923 507.978 451.923H509.544V454.333H508.008C507.204 454.333 506.532 454.483 505.99 454.785C505.467 455.066 505.066 455.497 504.785 456.08C504.524 456.642 504.393 457.365 504.393 458.248V467.887H501.863ZM518.305 468.249C516.839 468.249 515.554 467.907 514.45 467.225C513.345 466.542 512.492 465.578 511.889 464.333C511.287 463.068 510.986 461.592 510.986 459.905C510.986 458.198 511.287 456.722 511.889 455.477C512.492 454.232 513.345 453.268 514.45 452.586C515.554 451.903 516.839 451.562 518.305 451.562C519.771 451.562 521.046 451.903 522.13 452.586C523.235 453.268 524.088 454.232 524.691 455.477C525.293 456.722 525.594 458.198 525.594 459.905C525.594 461.592 525.293 463.068 524.691 464.333C524.088 465.578 523.235 466.542 522.13 467.225C521.046 467.907 519.771 468.249 518.305 468.249ZM518.305 465.839C519.771 465.839 520.905 465.317 521.709 464.273C522.532 463.208 522.944 461.753 522.944 459.905C522.944 458.058 522.532 456.612 521.709 455.568C520.905 454.503 519.771 453.971 518.305 453.971C516.839 453.971 515.695 454.503 514.871 455.568C514.048 456.612 513.636 458.058 513.636 459.905C513.636 461.753 514.048 463.208 514.871 464.273C515.695 465.317 516.839 465.839 518.305 465.839ZM535.278 468.249C533.812 468.249 532.527 467.907 531.422 467.225C530.318 466.542 529.464 465.578 528.862 464.333C528.259 463.068 527.958 461.592 527.958 459.905C527.958 458.198 528.259 456.722 528.862 455.477C529.464 454.232 530.318 453.268 531.422 452.586C532.527 451.903 533.812 451.562 535.278 451.562C536.743 451.562 538.019 451.903 539.103 452.586C540.207 453.268 541.061 454.232 541.663 455.477C542.266 456.722 542.567 458.198 542.567 459.905C542.567 461.592 542.266 463.068 541.663 464.333C541.061 465.578 540.207 466.542 539.103 467.225C538.019 467.907 536.743 468.249 535.278 468.249ZM535.278 465.839C536.743 465.839 537.878 465.317 538.681 464.273C539.505 463.208 539.916 461.753 539.916 459.905C539.916 458.058 539.505 456.612 538.681 455.568C537.878 454.503 536.743 453.971 535.278 453.971C533.812 453.971 532.667 454.503 531.844 455.568C531.02 456.612 530.609 458.058 530.609 459.905C530.609 461.753 531.02 463.208 531.844 464.273C532.667 465.317 533.812 465.839 535.278 465.839ZM546.015 467.887V451.923H548.334L548.425 455.959L548.063 455.839C548.244 454.955 548.555 454.202 548.997 453.58C549.459 452.937 550.021 452.445 550.684 452.104C551.346 451.742 552.079 451.562 552.883 451.562C554.268 451.562 555.393 451.943 556.256 452.706C557.14 453.469 557.692 454.534 557.913 455.899L557.431 455.869C557.592 454.945 557.883 454.172 558.304 453.55C558.746 452.907 559.308 452.415 559.991 452.074C560.674 451.732 561.457 451.562 562.341 451.562C563.485 451.562 564.449 451.803 565.232 452.284C566.015 452.746 566.608 453.429 567.009 454.333C567.411 455.236 567.612 456.331 567.612 457.616V467.887H565.082V458.158C565.082 456.712 564.801 455.628 564.238 454.905C563.676 454.162 562.843 453.791 561.738 453.791C560.995 453.791 560.343 453.971 559.78 454.333C559.238 454.694 558.816 455.216 558.515 455.899C558.214 456.562 558.063 457.375 558.063 458.339V467.887H555.533V458.339C555.533 456.913 555.282 455.799 554.78 454.995C554.278 454.192 553.435 453.791 552.25 453.791C551.507 453.791 550.854 453.971 550.292 454.333C549.75 454.694 549.318 455.216 548.997 455.899C548.696 456.582 548.545 457.395 548.545 458.339V467.887H546.015ZM577.89 468.249C576.465 468.249 575.25 468.018 574.246 467.556C573.262 467.094 572.489 466.461 571.926 465.658C571.384 464.835 571.073 463.901 570.993 462.857L573.643 462.676C573.804 463.64 574.215 464.413 574.878 464.996C575.541 465.558 576.545 465.839 577.89 465.839C578.975 465.839 579.838 465.668 580.481 465.327C581.143 464.965 581.475 464.393 581.475 463.61C581.475 463.188 581.374 462.837 581.173 462.556C580.973 462.275 580.581 462.034 579.999 461.833C579.416 461.612 578.553 461.401 577.408 461.2C575.882 460.919 574.677 460.578 573.794 460.176C572.93 459.755 572.308 459.242 571.926 458.64C571.565 458.018 571.384 457.285 571.384 456.441C571.384 455.015 571.906 453.851 572.95 452.947C573.995 452.023 575.481 451.562 577.408 451.562C578.714 451.562 579.808 451.803 580.691 452.284C581.595 452.746 582.298 453.369 582.8 454.152C583.322 454.915 583.663 455.758 583.824 456.682L581.173 456.863C581.053 456.301 580.832 455.809 580.511 455.387C580.189 454.945 579.768 454.604 579.246 454.363C578.724 454.102 578.101 453.971 577.378 453.971C576.234 453.971 575.39 454.192 574.848 454.634C574.306 455.076 574.035 455.638 574.035 456.321C574.035 456.843 574.155 457.275 574.396 457.616C574.657 457.937 575.069 458.208 575.631 458.429C576.193 458.63 576.946 458.811 577.89 458.971C579.517 459.252 580.782 459.594 581.685 459.995C582.589 460.397 583.222 460.889 583.583 461.471C583.945 462.054 584.125 462.767 584.125 463.61C584.125 464.594 583.844 465.437 583.282 466.14C582.74 466.823 581.997 467.345 581.053 467.706C580.129 468.068 579.075 468.249 577.89 468.249ZM586.879 472.586L588.325 467.887H586.788V464.484H590.192V467.466L588.385 472.586H586.879ZM605.77 468.249C604.123 468.249 602.808 467.867 601.824 467.104C600.86 466.341 600.378 465.277 600.378 463.911C600.378 462.546 600.78 461.471 601.583 460.688C602.386 459.905 603.661 459.353 605.408 459.032L611.071 457.977C611.071 456.632 610.75 455.628 610.107 454.965C609.485 454.303 608.541 453.971 607.276 453.971C606.171 453.971 605.298 454.222 604.655 454.724C604.013 455.206 603.571 455.909 603.33 456.833L600.649 456.622C600.95 455.116 601.673 453.901 602.818 452.977C603.983 452.033 605.469 451.562 607.276 451.562C609.324 451.562 610.89 452.144 611.975 453.309C613.059 454.453 613.601 456.04 613.601 458.068V464.664C613.601 465.026 613.662 465.287 613.782 465.447C613.923 465.588 614.144 465.658 614.445 465.658H615.077V467.887C614.997 467.907 614.866 467.917 614.686 467.917C614.505 467.937 614.314 467.947 614.113 467.947C613.39 467.947 612.798 467.837 612.336 467.616C611.894 467.375 611.573 467.014 611.372 466.532C611.172 466.03 611.071 465.377 611.071 464.574L611.372 464.634C611.232 465.317 610.89 465.939 610.348 466.502C609.806 467.044 609.133 467.476 608.33 467.797C607.527 468.098 606.673 468.249 605.77 468.249ZM606.011 466.02C607.075 466.02 607.979 465.819 608.722 465.417C609.485 464.996 610.067 464.433 610.469 463.73C610.87 463.008 611.071 462.204 611.071 461.321V460.176L605.89 461.14C604.806 461.341 604.053 461.652 603.631 462.074C603.23 462.475 603.029 463.008 603.029 463.67C603.029 464.413 603.29 464.996 603.812 465.417C604.354 465.819 605.087 466.02 606.011 466.02ZM617.935 467.887V451.923H620.254L620.345 455.989L620.043 455.718C620.244 454.774 620.596 454.001 621.098 453.399C621.6 452.776 622.202 452.315 622.905 452.013C623.628 451.712 624.401 451.562 625.224 451.562C626.449 451.562 627.453 451.833 628.236 452.375C629.04 452.917 629.632 453.65 630.014 454.574C630.415 455.477 630.616 456.491 630.616 457.616V467.887H628.086V458.339C628.086 457.355 627.965 456.532 627.724 455.869C627.503 455.186 627.142 454.674 626.64 454.333C626.138 453.971 625.485 453.791 624.682 453.791C623.457 453.791 622.443 454.182 621.64 454.965C620.857 455.728 620.465 456.853 620.465 458.339V467.887H617.935ZM640.747 468.249C639.361 468.249 638.156 467.907 637.132 467.225C636.128 466.542 635.355 465.578 634.813 464.333C634.271 463.088 634 461.612 634 459.905C634 458.198 634.271 456.722 634.813 455.477C635.355 454.232 636.128 453.268 637.132 452.586C638.156 451.903 639.361 451.562 640.747 451.562C641.811 451.562 642.785 451.793 643.669 452.254C644.552 452.696 645.215 453.329 645.657 454.152V446.501H648.187V467.887H645.898L645.807 465.478C645.365 466.341 644.693 467.024 643.789 467.526C642.885 468.008 641.871 468.249 640.747 468.249ZM641.259 465.839C642.203 465.839 642.996 465.598 643.638 465.116C644.301 464.634 644.803 463.951 645.145 463.068C645.486 462.164 645.657 461.11 645.657 459.905C645.657 458.66 645.486 457.596 645.145 456.712C644.803 455.829 644.301 455.156 643.638 454.694C642.996 454.212 642.203 453.971 641.259 453.971C639.853 453.971 638.729 454.503 637.885 455.568C637.062 456.612 636.65 458.058 636.65 459.905C636.65 461.732 637.062 463.178 637.885 464.243C638.729 465.307 639.853 465.839 641.259 465.839ZM666.763 468.249C665.297 468.249 664.012 467.907 662.908 467.225C661.803 466.542 660.95 465.578 660.347 464.333C659.745 463.068 659.444 461.592 659.444 459.905C659.444 458.198 659.745 456.722 660.347 455.477C660.95 454.232 661.803 453.268 662.908 452.586C664.012 451.903 665.297 451.562 666.763 451.562C668.229 451.562 669.504 451.903 670.589 452.586C671.693 453.268 672.546 454.232 673.149 455.477C673.751 456.722 674.052 458.198 674.052 459.905C674.052 461.592 673.751 463.068 673.149 464.333C672.546 465.578 671.693 466.542 670.589 467.225C669.504 467.907 668.229 468.249 666.763 468.249ZM666.763 465.839C668.229 465.839 669.364 465.317 670.167 464.273C670.99 463.208 671.402 461.753 671.402 459.905C671.402 458.058 670.99 456.612 670.167 455.568C669.364 454.503 668.229 453.971 666.763 453.971C665.297 453.971 664.153 454.503 663.329 455.568C662.506 456.612 662.094 458.058 662.094 459.905C662.094 461.753 662.506 463.208 663.329 464.273C664.153 465.317 665.297 465.839 666.763 465.839ZM678.449 467.887V450.477C678.449 449.292 678.791 448.339 679.473 447.616C680.156 446.873 681.22 446.501 682.666 446.501H685.196V448.73H682.847C682.224 448.73 681.753 448.901 681.431 449.242C681.13 449.584 680.979 450.056 680.979 450.658V467.887H678.449ZM676.281 454.152V451.923H684.986V454.152H676.281ZM687.124 467.887V450.477C687.124 449.292 687.465 448.339 688.148 447.616C688.831 446.873 689.895 446.501 691.341 446.501H693.871V448.73H691.522C690.899 448.73 690.427 448.901 690.106 449.242C689.805 449.584 689.654 450.056 689.654 450.658V467.887H687.124ZM684.955 454.152V451.923H693.66V454.152H684.955ZM696.973 467.887V451.923H699.504V467.887H696.973ZM696.913 449.423V446.471H699.564V449.423H696.913ZM710.268 468.249C708.782 468.249 707.487 467.907 706.383 467.225C705.298 466.542 704.455 465.578 703.852 464.333C703.25 463.068 702.949 461.592 702.949 459.905C702.949 458.218 703.25 456.752 703.852 455.507C704.455 454.262 705.298 453.299 706.383 452.616C707.487 451.913 708.782 451.562 710.268 451.562C711.493 451.562 712.577 451.782 713.521 452.224C714.485 452.646 715.268 453.268 715.871 454.092C716.473 454.915 716.865 455.919 717.045 457.104L714.395 457.285C714.214 456.22 713.752 455.407 713.009 454.845C712.266 454.262 711.353 453.971 710.268 453.971C708.802 453.971 707.658 454.503 706.834 455.568C706.011 456.612 705.599 458.058 705.599 459.905C705.599 461.753 706.011 463.208 706.834 464.273C707.658 465.317 708.802 465.839 710.268 465.839C711.353 465.839 712.266 465.538 713.009 464.935C713.752 464.333 714.214 463.429 714.395 462.224L717.045 462.405C716.865 463.59 716.473 464.624 715.871 465.508C715.268 466.371 714.485 467.044 713.521 467.526C712.577 468.008 711.493 468.249 710.268 468.249ZM726.417 468.249C724.911 468.249 723.606 467.907 722.501 467.225C721.417 466.542 720.574 465.578 719.971 464.333C719.389 463.068 719.098 461.592 719.098 459.905C719.098 458.218 719.389 456.752 719.971 455.507C720.574 454.262 721.407 453.299 722.471 452.616C723.556 451.913 724.831 451.562 726.297 451.562C727.682 451.562 728.907 451.893 729.971 452.556C731.036 453.198 731.859 454.142 732.441 455.387C733.044 456.632 733.345 458.148 733.345 459.935V460.688H721.748C721.849 462.395 722.301 463.68 723.104 464.544C723.927 465.407 725.032 465.839 726.417 465.839C727.461 465.839 728.315 465.598 728.977 465.116C729.66 464.614 730.132 463.961 730.393 463.158L733.104 463.369C732.682 464.795 731.879 465.969 730.694 466.893C729.53 467.797 728.104 468.249 726.417 468.249ZM721.748 458.459H730.574C730.453 456.913 730.002 455.779 729.218 455.056C728.455 454.333 727.481 453.971 726.297 453.971C725.072 453.971 724.058 454.353 723.254 455.116C722.471 455.859 721.969 456.973 721.748 458.459ZM742.585 468.249C741.16 468.249 739.945 468.018 738.941 467.556C737.957 467.094 737.184 466.461 736.622 465.658C736.079 464.835 735.768 463.901 735.688 462.857L738.338 462.676C738.499 463.64 738.911 464.413 739.573 464.996C740.236 465.558 741.24 465.839 742.585 465.839C743.67 465.839 744.533 465.668 745.176 465.327C745.839 464.965 746.17 464.393 746.17 463.61C746.17 463.188 746.069 462.837 745.869 462.556C745.668 462.275 745.276 462.034 744.694 461.833C744.112 461.612 743.248 461.401 742.104 461.2C740.577 460.919 739.373 460.578 738.489 460.176C737.626 459.755 737.003 459.242 736.622 458.64C736.26 458.018 736.079 457.285 736.079 456.441C736.079 455.015 736.601 453.851 737.646 452.947C738.69 452.023 740.176 451.562 742.104 451.562C743.409 451.562 744.503 451.803 745.387 452.284C746.29 452.746 746.993 453.369 747.495 454.152C748.017 454.915 748.359 455.758 748.519 456.682L745.869 456.863C745.748 456.301 745.527 455.809 745.206 455.387C744.885 454.945 744.463 454.604 743.941 454.363C743.419 454.102 742.796 453.971 742.073 453.971C740.929 453.971 740.085 454.192 739.543 454.634C739.001 455.076 738.73 455.638 738.73 456.321C738.73 456.843 738.85 457.275 739.091 457.616C739.352 457.937 739.764 458.208 740.326 458.429C740.889 458.63 741.642 458.811 742.585 458.971C744.212 459.252 745.477 459.594 746.381 459.995C747.284 460.397 747.917 460.889 748.278 461.471C748.64 462.054 748.821 462.767 748.821 463.61C748.821 464.594 748.539 465.437 747.977 466.14C747.435 466.823 746.692 467.345 745.748 467.706C744.824 468.068 743.77 468.249 742.585 468.249ZM763.291 467.887L758.351 451.923H761.122L764.857 465.237L768.653 451.923H771.364L775.159 465.237L778.924 451.923H781.695L776.755 467.887H773.562L770.008 455.748L766.454 467.887H763.291ZM784.483 467.887V451.923H787.014V467.887H784.483ZM784.423 449.423V446.471H787.074V449.423H784.423ZM796.475 467.887C795.029 467.887 793.955 467.556 793.252 466.893C792.569 466.231 792.228 465.196 792.228 463.791V448.188H794.758V463.73C794.758 464.453 794.918 464.955 795.24 465.237C795.561 465.518 796.053 465.658 796.716 465.658H799.005V467.887H796.475ZM789.878 454.152V451.923H799.005V454.152H789.878ZM802.25 467.887V446.501H804.78V455.447L804.479 455.387C804.68 454.503 805.021 453.78 805.503 453.218C805.985 452.656 806.578 452.244 807.28 451.983C807.983 451.702 808.756 451.562 809.6 451.562C810.744 451.562 811.708 451.823 812.491 452.345C813.295 452.847 813.897 453.56 814.299 454.483C814.72 455.387 814.931 456.431 814.931 457.616V467.887H812.401V458.339C812.401 456.793 812.12 455.648 811.558 454.905C811.015 454.162 810.182 453.791 809.058 453.791C807.772 453.791 806.738 454.182 805.955 454.965C805.172 455.748 804.78 456.883 804.78 458.369V467.887H802.25ZM827.282 467.887V451.923H829.511L829.632 455.959L829.391 455.869C829.592 454.503 830.024 453.509 830.686 452.887C831.369 452.244 832.273 451.923 833.397 451.923H834.963V454.333H833.427C832.624 454.333 831.951 454.483 831.409 454.785C830.887 455.066 830.485 455.497 830.204 456.08C829.943 456.642 829.813 457.365 829.813 458.248V467.887H827.282ZM843.725 468.249C842.219 468.249 840.913 467.907 839.809 467.225C838.724 466.542 837.881 465.578 837.279 464.333C836.696 463.068 836.405 461.592 836.405 459.905C836.405 458.218 836.696 456.752 837.279 455.507C837.881 454.262 838.714 453.299 839.779 452.616C840.863 451.913 842.138 451.562 843.604 451.562C844.99 451.562 846.215 451.893 847.279 452.556C848.343 453.198 849.166 454.142 849.749 455.387C850.351 456.632 850.652 458.148 850.652 459.935V460.688H839.056C839.156 462.395 839.608 463.68 840.411 464.544C841.235 465.407 842.339 465.839 843.725 465.839C844.769 465.839 845.622 465.598 846.285 465.116C846.968 464.614 847.44 463.961 847.701 463.158L850.411 463.369C849.99 464.795 849.187 465.969 848.002 466.893C846.837 467.797 845.411 468.249 843.725 468.249ZM839.056 458.459H847.881C847.761 456.913 847.309 455.779 846.526 455.056C845.763 454.333 844.789 453.971 843.604 453.971C842.379 453.971 841.365 454.353 840.562 455.116C839.779 455.859 839.277 456.973 839.056 458.459ZM858.799 468.249C857.152 468.249 855.837 467.867 854.853 467.104C853.889 466.341 853.407 465.277 853.407 463.911C853.407 462.546 853.809 461.471 854.612 460.688C855.415 459.905 856.69 459.353 858.437 459.032L864.1 457.977C864.1 456.632 863.779 455.628 863.136 454.965C862.514 454.303 861.57 453.971 860.305 453.971C859.2 453.971 858.327 454.222 857.684 454.724C857.042 455.206 856.6 455.909 856.359 456.833L853.678 456.622C853.979 455.116 854.702 453.901 855.847 452.977C857.012 452.033 858.498 451.562 860.305 451.562C862.353 451.562 863.919 452.144 865.004 453.309C866.088 454.453 866.63 456.04 866.63 458.068V464.664C866.63 465.026 866.691 465.287 866.811 465.447C866.952 465.588 867.172 465.658 867.474 465.658H868.106V467.887C868.026 467.907 867.895 467.917 867.715 467.917C867.534 467.937 867.343 467.947 867.142 467.947C866.419 467.947 865.827 467.837 865.365 467.616C864.923 467.375 864.602 467.014 864.401 466.532C864.201 466.03 864.1 465.377 864.1 464.574L864.401 464.634C864.261 465.317 863.919 465.939 863.377 466.502C862.835 467.044 862.162 467.476 861.359 467.797C860.556 468.098 859.702 468.249 858.799 468.249ZM859.04 466.02C860.104 466.02 861.008 465.819 861.751 465.417C862.514 464.996 863.096 464.433 863.498 463.73C863.899 463.008 864.1 462.204 864.1 461.321V460.176L858.919 461.14C857.835 461.341 857.082 461.652 856.66 462.074C856.259 462.475 856.058 463.008 856.058 463.67C856.058 464.413 856.319 464.996 856.841 465.417C857.383 465.819 858.116 466.02 859.04 466.02ZM873.92 467.887C872.996 467.887 872.243 467.646 871.661 467.164C871.079 466.682 870.787 465.919 870.787 464.875V446.501H873.318V464.664C873.318 464.986 873.398 465.237 873.559 465.417C873.739 465.578 873.99 465.658 874.312 465.658H875.697V467.887H873.92ZM877.733 460.297V457.917H887.703V460.297H877.733ZM897.28 467.887C895.835 467.887 894.76 467.556 894.057 466.893C893.375 466.231 893.033 465.196 893.033 463.791V448.188H895.563V463.73C895.563 464.453 895.724 464.955 896.045 465.237C896.367 465.518 896.859 465.658 897.521 465.658H899.811V467.887H897.28ZM890.684 454.152V451.923H899.811V454.152H890.684ZM903.056 467.887V451.923H905.586V467.887H903.056ZM902.996 449.423V446.471H905.646V449.423H902.996ZM910.704 467.887V451.923H913.023L913.113 455.959L912.752 455.839C912.933 454.955 913.244 454.202 913.686 453.58C914.148 452.937 914.71 452.445 915.373 452.104C916.035 451.742 916.768 451.562 917.571 451.562C918.957 451.562 920.081 451.943 920.945 452.706C921.828 453.469 922.381 454.534 922.602 455.899L922.12 455.869C922.28 454.945 922.571 454.172 922.993 453.55C923.435 452.907 923.997 452.415 924.68 452.074C925.363 451.732 926.146 451.562 927.029 451.562C928.174 451.562 929.138 451.803 929.921 452.284C930.704 452.746 931.297 453.429 931.698 454.333C932.1 455.236 932.301 456.331 932.301 457.616V467.887H929.77V458.158C929.77 456.712 929.489 455.628 928.927 454.905C928.365 454.162 927.531 453.791 926.427 453.791C925.684 453.791 925.031 453.971 924.469 454.333C923.927 454.694 923.505 455.216 923.204 455.899C922.903 456.562 922.752 457.375 922.752 458.339V467.887H920.222V458.339C920.222 456.913 919.971 455.799 919.469 454.995C918.967 454.192 918.124 453.791 916.939 453.791C916.196 453.791 915.543 453.971 914.981 454.333C914.439 454.694 914.007 455.216 913.686 455.899C913.385 456.582 913.234 457.395 913.234 458.339V467.887H910.704ZM943.001 468.249C941.495 468.249 940.189 467.907 939.085 467.225C938.001 466.542 937.157 465.578 936.555 464.333C935.972 463.068 935.681 461.592 935.681 459.905C935.681 458.218 935.972 456.752 936.555 455.507C937.157 454.262 937.991 453.299 939.055 452.616C940.139 451.913 941.414 451.562 942.88 451.562C944.266 451.562 945.491 451.893 946.555 452.556C947.619 453.198 948.443 454.142 949.025 455.387C949.627 456.632 949.929 458.148 949.929 459.935V460.688H938.332C938.432 462.395 938.884 463.68 939.687 464.544C940.511 465.407 941.615 465.839 943.001 465.839C944.045 465.839 944.898 465.598 945.561 465.116C946.244 464.614 946.716 463.961 946.977 463.158L949.688 463.369C949.266 464.795 948.463 465.969 947.278 466.893C946.113 467.797 944.687 468.249 943.001 468.249ZM938.332 458.459H947.157C947.037 456.913 946.585 455.779 945.802 455.056C945.039 454.333 944.065 453.971 942.88 453.971C941.655 453.971 940.641 454.353 939.838 455.116C939.055 455.859 938.553 456.973 938.332 458.459ZM961.18 467.887V451.923H963.499L963.59 455.959L963.228 455.839C963.409 454.955 963.72 454.202 964.162 453.58C964.624 452.937 965.186 452.445 965.849 452.104C966.512 451.742 967.245 451.562 968.048 451.562C969.433 451.562 970.558 451.943 971.421 452.706C972.305 453.469 972.857 454.534 973.078 455.899L972.596 455.869C972.757 454.945 973.048 454.172 973.47 453.55C973.911 452.907 974.474 452.415 975.156 452.074C975.839 451.732 976.622 451.562 977.506 451.562C978.65 451.562 979.614 451.803 980.397 452.284C981.181 452.746 981.773 453.429 982.175 454.333C982.576 455.236 982.777 456.331 982.777 457.616V467.887H980.247V458.158C980.247 456.712 979.966 455.628 979.403 454.905C978.841 454.162 978.008 453.791 976.903 453.791C976.16 453.791 975.508 453.971 974.945 454.333C974.403 454.694 973.982 455.216 973.68 455.899C973.379 456.562 973.229 457.375 973.229 458.339V467.887H970.698V458.339C970.698 456.913 970.447 455.799 969.945 454.995C969.443 454.192 968.6 453.791 967.415 453.791C966.672 453.791 966.02 453.971 965.457 454.333C964.915 454.694 964.483 455.216 964.162 455.899C963.861 456.582 963.71 457.395 963.71 458.339V467.887H961.18ZM991.608 468.249C989.961 468.249 988.646 467.867 987.662 467.104C986.698 466.341 986.216 465.277 986.216 463.911C986.216 462.546 986.618 461.471 987.421 460.688C988.224 459.905 989.5 459.353 991.247 459.032L996.909 457.977C996.909 456.632 996.588 455.628 995.945 454.965C995.323 454.303 994.379 453.971 993.114 453.971C992.01 453.971 991.136 454.222 990.494 454.724C989.851 455.206 989.409 455.909 989.168 456.833L986.487 456.622C986.789 455.116 987.512 453.901 988.656 452.977C989.821 452.033 991.307 451.562 993.114 451.562C995.162 451.562 996.729 452.144 997.813 453.309C998.897 454.453 999.44 456.04 999.44 458.068V464.664C999.44 465.026 999.5 465.287 999.62 465.447C999.761 465.588 999.982 465.658 1000.28 465.658H1000.92V467.887C1000.84 467.907 1000.7 467.917 1000.52 467.917C1000.34 467.937 1000.15 467.947 999.952 467.947C999.229 467.947 998.636 467.837 998.174 467.616C997.733 467.375 997.411 467.014 997.211 466.532C997.01 466.03 996.909 465.377 996.909 464.574L997.211 464.634C997.07 465.317 996.729 465.939 996.186 466.502C995.644 467.044 994.972 467.476 994.168 467.797C993.365 468.098 992.512 468.249 991.608 468.249ZM991.849 466.02C992.913 466.02 993.817 465.819 994.56 465.417C995.323 464.996 995.905 464.433 996.307 463.73C996.709 463.008 996.909 462.204 996.909 461.321V460.176L991.729 461.14C990.644 461.341 989.891 461.652 989.469 462.074C989.068 462.475 988.867 463.008 988.867 463.67C988.867 464.413 989.128 464.996 989.65 465.417C990.192 465.819 990.925 466.02 991.849 466.02ZM1003.77 472.405V451.923H1006.12L1006.18 455.357L1005.82 455.176C1006.22 453.991 1006.89 453.098 1007.81 452.495C1008.75 451.873 1009.84 451.562 1011.06 451.562C1012.65 451.562 1013.94 451.953 1014.95 452.736C1015.97 453.519 1016.73 454.544 1017.21 455.809C1017.71 457.074 1017.96 458.439 1017.96 459.905C1017.96 461.371 1017.71 462.737 1017.21 464.002C1016.73 465.267 1015.97 466.291 1014.95 467.074C1013.94 467.857 1012.65 468.249 1011.06 468.249C1010.24 468.249 1009.47 468.108 1008.74 467.827C1008.04 467.546 1007.44 467.154 1006.94 466.652C1006.45 466.15 1006.12 465.558 1005.94 464.875L1006.3 464.453V472.405H1003.77ZM1010.82 465.839C1012.21 465.839 1013.3 465.317 1014.1 464.273C1014.91 463.228 1015.31 461.773 1015.31 459.905C1015.31 458.038 1014.91 456.582 1014.1 455.538C1013.3 454.493 1012.21 453.971 1010.82 453.971C1009.9 453.971 1009.09 454.192 1008.41 454.634C1007.75 455.076 1007.23 455.738 1006.85 456.622C1006.48 457.505 1006.3 458.6 1006.3 459.905C1006.3 461.21 1006.48 462.305 1006.85 463.188C1007.21 464.072 1007.73 464.735 1008.41 465.176C1009.09 465.618 1009.9 465.839 1010.82 465.839ZM1021.39 472.405V451.923H1023.74L1023.8 455.357L1023.44 455.176C1023.84 453.991 1024.51 453.098 1025.43 452.495C1026.37 451.873 1027.46 451.562 1028.68 451.562C1030.27 451.562 1031.56 451.953 1032.57 452.736C1033.59 453.519 1034.34 454.544 1034.83 455.809C1035.33 457.074 1035.58 458.439 1035.58 459.905C1035.58 461.371 1035.33 462.737 1034.83 464.002C1034.34 465.267 1033.59 466.291 1032.57 467.074C1031.56 467.857 1030.27 468.249 1028.68 468.249C1027.86 468.249 1027.09 468.108 1026.36 467.827C1025.66 467.546 1025.06 467.154 1024.56 466.652C1024.07 466.15 1023.74 465.558 1023.56 464.875L1023.92 464.453V472.405H1021.39ZM1028.44 465.839C1029.83 465.839 1030.92 465.317 1031.72 464.273C1032.53 463.228 1032.93 461.773 1032.93 459.905C1032.93 458.038 1032.53 456.582 1031.72 455.538C1030.92 454.493 1029.83 453.971 1028.44 453.971C1027.52 453.971 1026.71 454.192 1026.03 454.634C1025.37 455.076 1024.85 455.738 1024.47 456.622C1024.1 457.505 1023.92 458.6 1023.92 459.905C1023.92 461.21 1024.1 462.305 1024.47 463.188C1024.83 464.072 1025.35 464.735 1026.03 465.176C1026.71 465.618 1027.52 465.839 1028.44 465.839ZM1039.01 467.887V451.923H1041.54V467.887H1039.01ZM1038.95 449.423V446.471H1041.6V449.423H1038.95ZM1046.66 467.887V451.923H1048.98L1049.07 455.989L1048.77 455.718C1048.97 454.774 1049.32 454.001 1049.82 453.399C1050.33 452.776 1050.93 452.315 1051.63 452.013C1052.35 451.712 1053.13 451.562 1053.95 451.562C1055.17 451.562 1056.18 451.833 1056.96 452.375C1057.77 452.917 1058.36 453.65 1058.74 454.574C1059.14 455.477 1059.34 456.491 1059.34 457.616V467.887H1056.81V458.339C1056.81 457.355 1056.69 456.532 1056.45 455.869C1056.23 455.186 1055.87 454.674 1055.37 454.333C1054.86 453.971 1054.21 453.791 1053.41 453.791C1052.18 453.791 1051.17 454.182 1050.37 454.965C1049.58 455.728 1049.19 456.853 1049.19 458.339V467.887H1046.66ZM1069.86 472.767C1068.72 472.767 1067.69 472.576 1066.76 472.195C1065.84 471.813 1065.06 471.271 1064.44 470.568C1063.82 469.865 1063.4 469.052 1063.18 468.128L1065.83 467.947C1066.07 468.69 1066.49 469.273 1067.09 469.694C1067.72 470.136 1068.64 470.357 1069.86 470.357C1071.31 470.357 1072.41 470.066 1073.18 469.484C1073.96 468.901 1074.35 468.028 1074.35 466.863V464.273C1073.97 465.116 1073.36 465.789 1072.51 466.291C1071.67 466.793 1070.73 467.044 1069.68 467.044C1068.34 467.044 1067.13 466.712 1066.07 466.05C1065.02 465.387 1064.2 464.473 1063.6 463.309C1063.02 462.144 1062.73 460.809 1062.73 459.303C1062.73 457.777 1063.02 456.441 1063.6 455.297C1064.18 454.132 1064.98 453.218 1066.01 452.556C1067.05 451.893 1068.24 451.562 1069.56 451.562C1070.69 451.562 1071.69 451.823 1072.57 452.345C1073.48 452.867 1074.11 453.57 1074.47 454.453V451.923H1076.88V466.803C1076.88 468.048 1076.6 469.112 1076.04 469.996C1075.48 470.899 1074.67 471.582 1073.63 472.044C1072.58 472.526 1071.33 472.767 1069.86 472.767ZM1069.8 464.634C1071.17 464.634 1072.26 464.162 1073.09 463.218C1073.91 462.255 1074.33 460.949 1074.35 459.303C1074.37 458.198 1074.19 457.254 1073.81 456.471C1073.45 455.668 1072.92 455.056 1072.21 454.634C1071.53 454.192 1070.73 453.971 1069.8 453.971C1068.4 453.971 1067.3 454.453 1066.52 455.417C1065.76 456.361 1065.38 457.656 1065.38 459.303C1065.38 460.949 1065.77 462.255 1066.55 463.218C1067.35 464.162 1068.44 464.634 1069.8 464.634ZM1093.53 468.249C1091.88 468.249 1090.57 467.867 1089.59 467.104C1088.62 466.341 1088.14 465.277 1088.14 463.911C1088.14 462.546 1088.54 461.471 1089.34 460.688C1090.15 459.905 1091.42 459.353 1093.17 459.032L1098.83 457.977C1098.83 456.632 1098.51 455.628 1097.87 454.965C1097.25 454.303 1096.3 453.971 1095.04 453.971C1093.93 453.971 1093.06 454.222 1092.42 454.724C1091.77 455.206 1091.33 455.909 1091.09 456.833L1088.41 456.622C1088.71 455.116 1089.43 453.901 1090.58 452.977C1091.74 452.033 1093.23 451.562 1095.04 451.562C1097.09 451.562 1098.65 452.144 1099.74 453.309C1100.82 454.453 1101.36 456.04 1101.36 458.068V464.664C1101.36 465.026 1101.42 465.287 1101.54 465.447C1101.68 465.588 1101.91 465.658 1102.21 465.658H1102.84V467.887C1102.76 467.907 1102.63 467.917 1102.45 467.917C1102.27 467.937 1102.08 467.947 1101.87 467.947C1101.15 467.947 1100.56 467.837 1100.1 467.616C1099.66 467.375 1099.33 467.014 1099.13 466.532C1098.93 466.03 1098.83 465.377 1098.83 464.574L1099.13 464.634C1098.99 465.317 1098.65 465.939 1098.11 466.502C1097.57 467.044 1096.89 467.476 1096.09 467.797C1095.29 468.098 1094.44 468.249 1093.53 468.249ZM1093.77 466.02C1094.84 466.02 1095.74 465.819 1096.48 465.417C1097.25 464.996 1097.83 464.433 1098.23 463.73C1098.63 463.008 1098.83 462.204 1098.83 461.321V460.176L1093.65 461.14C1092.57 461.341 1091.81 461.652 1091.39 462.074C1090.99 462.475 1090.79 463.008 1090.79 463.67C1090.79 464.413 1091.05 464.996 1091.57 465.417C1092.12 465.819 1092.85 466.02 1093.77 466.02ZM1105.7 467.887V451.923H1108.02L1108.11 455.989L1107.81 455.718C1108.01 454.774 1108.36 454.001 1108.86 453.399C1109.36 452.776 1109.96 452.315 1110.67 452.013C1111.39 451.712 1112.16 451.562 1112.99 451.562C1114.21 451.562 1115.21 451.833 1116 452.375C1116.8 452.917 1117.39 453.65 1117.78 454.574C1118.18 455.477 1118.38 456.491 1118.38 457.616V467.887H1115.85V458.339C1115.85 457.355 1115.73 456.532 1115.49 455.869C1115.27 455.186 1114.9 454.674 1114.4 454.333C1113.9 453.971 1113.25 453.791 1112.44 453.791C1111.22 453.791 1110.2 454.182 1109.4 454.965C1108.62 455.728 1108.23 456.853 1108.23 458.339V467.887H1105.7ZM1128.51 468.249C1127.12 468.249 1125.92 467.907 1124.89 467.225C1123.89 466.542 1123.12 465.578 1122.57 464.333C1122.03 463.088 1121.76 461.612 1121.76 459.905C1121.76 458.198 1122.03 456.722 1122.57 455.477C1123.12 454.232 1123.89 453.268 1124.89 452.586C1125.92 451.903 1127.12 451.562 1128.51 451.562C1129.57 451.562 1130.55 451.793 1131.43 452.254C1132.31 452.696 1132.98 453.329 1133.42 454.152V446.501H1135.95V467.887H1133.66L1133.57 465.478C1133.13 466.341 1132.45 467.024 1131.55 467.526C1130.65 468.008 1129.63 468.249 1128.51 468.249ZM1129.02 465.839C1129.96 465.839 1130.76 465.598 1131.4 465.116C1132.06 464.634 1132.56 463.951 1132.91 463.068C1133.25 462.164 1133.42 461.11 1133.42 459.905C1133.42 458.66 1133.25 457.596 1132.91 456.712C1132.56 455.829 1132.06 455.156 1131.4 454.694C1130.76 454.212 1129.96 453.971 1129.02 453.971C1127.61 453.971 1126.49 454.503 1125.65 455.568C1124.82 456.612 1124.41 458.058 1124.41 459.905C1124.41 461.732 1124.82 463.178 1125.65 464.243C1126.49 465.307 1127.61 465.839 1129.02 465.839ZM1154.1 468.249C1152.68 468.249 1151.46 468.018 1150.46 467.556C1149.47 467.094 1148.7 466.461 1148.14 465.658C1147.6 464.835 1147.29 463.901 1147.21 462.857L1149.86 462.676C1150.02 463.64 1150.43 464.413 1151.09 464.996C1151.75 465.558 1152.76 465.839 1154.1 465.839C1155.19 465.839 1156.05 465.668 1156.69 465.327C1157.36 464.965 1157.69 464.393 1157.69 463.61C1157.69 463.188 1157.59 462.837 1157.39 462.556C1157.19 462.275 1156.79 462.034 1156.21 461.833C1155.63 461.612 1154.77 461.401 1153.62 461.2C1152.1 460.919 1150.89 460.578 1150.01 460.176C1149.14 459.755 1148.52 459.242 1148.14 458.64C1147.78 458.018 1147.6 457.285 1147.6 456.441C1147.6 455.015 1148.12 453.851 1149.16 452.947C1150.21 452.023 1151.69 451.562 1153.62 451.562C1154.93 451.562 1156.02 451.803 1156.9 452.284C1157.81 452.746 1158.51 453.369 1159.01 454.152C1159.54 454.915 1159.88 455.758 1160.04 456.682L1157.39 456.863C1157.27 456.301 1157.05 455.809 1156.72 455.387C1156.4 454.945 1155.98 454.604 1155.46 454.363C1154.94 454.102 1154.31 453.971 1153.59 453.971C1152.45 453.971 1151.6 454.192 1151.06 454.634C1150.52 455.076 1150.25 455.638 1150.25 456.321C1150.25 456.843 1150.37 457.275 1150.61 457.616C1150.87 457.937 1151.28 458.208 1151.84 458.429C1152.41 458.63 1153.16 458.811 1154.1 458.971C1155.73 459.252 1156.99 459.594 1157.9 459.995C1158.8 460.397 1159.43 460.889 1159.8 461.471C1160.16 462.054 1160.34 462.767 1160.34 463.61C1160.34 464.594 1160.06 465.437 1159.49 466.14C1158.95 466.823 1158.21 467.345 1157.27 467.706C1156.34 468.068 1155.29 468.249 1154.1 468.249ZM1170.03 468.249C1168.52 468.249 1167.22 467.907 1166.11 467.225C1165.03 466.542 1164.18 465.578 1163.58 464.333C1163 463.068 1162.71 461.592 1162.71 459.905C1162.71 458.218 1163 456.752 1163.58 455.507C1164.18 454.262 1165.02 453.299 1166.08 452.616C1167.17 451.913 1168.44 451.562 1169.91 451.562C1171.29 451.562 1172.52 451.893 1173.58 452.556C1174.65 453.198 1175.47 454.142 1176.05 455.387C1176.65 456.632 1176.95 458.148 1176.95 459.935V460.688H1165.36C1165.46 462.395 1165.91 463.68 1166.71 464.544C1167.54 465.407 1168.64 465.839 1170.03 465.839C1171.07 465.839 1171.92 465.598 1172.59 465.116C1173.27 464.614 1173.74 463.961 1174 463.158L1176.71 463.369C1176.29 464.795 1175.49 465.969 1174.3 466.893C1173.14 467.797 1171.71 468.249 1170.03 468.249ZM1165.36 458.459H1174.18C1174.06 456.913 1173.61 455.779 1172.83 455.056C1172.06 454.333 1171.09 453.971 1169.91 453.971C1168.68 453.971 1167.67 454.353 1166.86 455.116C1166.08 455.859 1165.58 456.973 1165.36 458.459ZM1185.1 468.249C1183.45 468.249 1182.14 467.867 1181.15 467.104C1180.19 466.341 1179.71 465.277 1179.71 463.911C1179.71 462.546 1180.11 461.471 1180.91 460.688C1181.72 459.905 1182.99 459.353 1184.74 459.032L1190.4 457.977C1190.4 456.632 1190.08 455.628 1189.44 454.965C1188.82 454.303 1187.87 453.971 1186.61 453.971C1185.5 453.971 1184.63 454.222 1183.99 454.724C1183.34 455.206 1182.9 455.909 1182.66 456.833L1179.98 456.622C1180.28 455.116 1181 453.901 1182.15 452.977C1183.31 452.033 1184.8 451.562 1186.61 451.562C1188.66 451.562 1190.22 452.144 1191.31 453.309C1192.39 454.453 1192.93 456.04 1192.93 458.068V464.664C1192.93 465.026 1192.99 465.287 1193.11 465.447C1193.25 465.588 1193.47 465.658 1193.78 465.658H1194.41V467.887C1194.33 467.907 1194.2 467.917 1194.02 467.917C1193.84 467.937 1193.65 467.947 1193.44 467.947C1192.72 467.947 1192.13 467.837 1191.67 467.616C1191.23 467.375 1190.9 467.014 1190.7 466.532C1190.5 466.03 1190.4 465.377 1190.4 464.574L1190.7 464.634C1190.56 465.317 1190.22 465.939 1189.68 466.502C1189.14 467.044 1188.46 467.476 1187.66 467.797C1186.86 468.098 1186 468.249 1185.1 468.249ZM1185.34 466.02C1186.41 466.02 1187.31 465.819 1188.05 465.417C1188.82 464.996 1189.4 464.433 1189.8 463.73C1190.2 463.008 1190.4 462.204 1190.4 461.321V460.176L1185.22 461.14C1184.14 461.341 1183.38 461.652 1182.96 462.074C1182.56 462.475 1182.36 463.008 1182.36 463.67C1182.36 464.413 1182.62 464.996 1183.14 465.417C1183.69 465.819 1184.42 466.02 1185.34 466.02ZM1197.27 467.887V451.923H1199.49L1199.62 455.959L1199.37 455.869C1199.58 454.503 1200.01 453.509 1200.67 452.887C1201.35 452.244 1202.26 451.923 1203.38 451.923H1204.95V454.333H1203.41C1202.61 454.333 1201.93 454.483 1201.39 454.785C1200.87 455.066 1200.47 455.497 1200.19 456.08C1199.93 456.642 1199.8 457.365 1199.8 458.248V467.887H1197.27ZM1213.71 468.249C1212.22 468.249 1210.93 467.907 1209.82 467.225C1208.74 466.542 1207.89 465.578 1207.29 464.333C1206.69 463.068 1206.39 461.592 1206.39 459.905C1206.39 458.218 1206.69 456.752 1207.29 455.507C1207.89 454.262 1208.74 453.299 1209.82 452.616C1210.93 451.913 1212.22 451.562 1213.71 451.562C1214.93 451.562 1216.02 451.782 1216.96 452.224C1217.92 452.646 1218.71 453.268 1219.31 454.092C1219.91 454.915 1220.3 455.919 1220.49 457.104L1217.83 457.285C1217.65 456.22 1217.19 455.407 1216.45 454.845C1215.71 454.262 1214.79 453.971 1213.71 453.971C1212.24 453.971 1211.1 454.503 1210.27 455.568C1209.45 456.612 1209.04 458.058 1209.04 459.905C1209.04 461.753 1209.45 463.208 1210.27 464.273C1211.1 465.317 1212.24 465.839 1213.71 465.839C1214.79 465.839 1215.71 465.538 1216.45 464.935C1217.19 464.333 1217.65 463.429 1217.83 462.224L1220.49 462.405C1220.3 463.59 1219.91 464.624 1219.31 465.508C1218.71 466.371 1217.92 467.044 1216.96 467.526C1216.02 468.008 1214.93 468.249 1213.71 468.249ZM1223.62 467.887V446.501H1226.15V455.447L1225.85 455.387C1226.05 454.503 1226.39 453.78 1226.87 453.218C1227.36 452.656 1227.95 452.244 1228.65 451.983C1229.35 451.702 1230.13 451.562 1230.97 451.562C1232.12 451.562 1233.08 451.823 1233.86 452.345C1234.67 452.847 1235.27 453.56 1235.67 454.483C1236.09 455.387 1236.3 456.431 1236.3 457.616V467.887H1233.77V458.339C1233.77 456.793 1233.49 455.648 1232.93 454.905C1232.39 454.162 1231.55 453.791 1230.43 453.791C1229.14 453.791 1228.11 454.182 1227.33 454.965C1226.54 455.748 1226.15 456.883 1226.15 458.369V467.887H1223.62ZM1240.04 467.887V464.484H1243.44V467.887H1240.04Z" fill="black"/>
</svg>
