<svg width="430" height="346" viewBox="0 0 430 346" fill="none" xmlns="http://www.w3.org/2000/svg">
<path d="M366.654 344.43H-64.8741C-69.7525 344.43 -73.7072 340.475 -73.7072 335.597V307.478V146.632V124.895V57.2819C-73.7072 49.8989 -65.1874 45.7739 -59.3959 50.3528L14.9521 109.133C21.522 114.328 17.8491 124.895 9.47393 124.895H-73.7072V146.632H10.3254C14.2038 146.632 23.512 148.153 29.7175 154.239C35.923 160.325 45.2312 169.817 49.1096 173.802L49.929 174.322C69.3648 186.667 99.6917 205.931 111.164 210.753C126.678 217.274 172.503 226.372 212.003 232.489C261.13 240.097 312.842 259.659 345.163 290.089H440.722C442.478 290.089 444.194 290.613 445.652 291.593L482.2 316.173C487.372 237.923 593.382 217.274 642.509 270.527V205.319H608.896H575.077C574.476 205.319 573.99 204.832 573.99 204.232H546.624C541.746 204.232 537.791 200.277 537.791 195.399V190.242C537.791 185.364 541.746 181.409 546.624 181.409H573.99C573.99 178.408 576.423 175.975 579.424 175.975H608.896H654.144V140.111H527.449H499.007H461.515H425.317H383.947H319.306H276.644H230.103H154.903C150.025 140.111 146.07 136.156 146.07 131.278V1H113.75V16.0766C113.75 20.955 109.795 24.9097 104.917 24.9097H52.988V9.83306C52.988 4.95469 56.9427 1 61.8211 1H113.75H146.07H221.27C226.148 1 230.103 4.9547 230.103 9.83307V45.5589H276.644H319.306H425.317C425.317 40.7571 429.209 36.8645 434.011 36.8645H490.174C495.052 36.8645 499.007 40.8192 499.007 45.6976V46.6457H527.449H645.311C650.189 46.6457 654.144 50.6004 654.144 55.4788V140.111V175.975H671.167C676.045 175.975 680 179.93 680 184.808V196.486C680 201.364 676.045 205.319 671.167 205.319H642.509V270.527V307.34C642.509 312.218 638.554 316.173 633.676 316.173H482.2L445.652 291.593C444.194 290.613 442.478 290.089 440.722 290.089H345.163C360.667 303.775 369.877 321.572 374.424 334.052C376.339 339.306 372.246 344.43 366.654 344.43Z" fill="#CAE8F2"/>
<path d="M-75 24.9097H52.988M345.163 290.089C360.667 303.775 369.877 321.572 374.424 334.052C376.339 339.306 372.246 344.43 366.654 344.43H-64.8741C-69.7525 344.43 -73.7072 340.475 -73.7072 335.597V307.478M345.163 290.089H440.722C442.478 290.089 444.194 290.613 445.652 291.593L482.2 316.173M345.163 290.089C312.842 259.659 261.13 240.097 212.003 232.489M52.988 24.9097V9.83306C52.988 4.95469 56.9427 1 61.8211 1H113.75M52.988 24.9097H104.917C109.795 24.9097 113.75 20.955 113.75 16.0766V1M230.103 45.5589V9.83307C230.103 4.9547 226.148 1 221.27 1H146.07M230.103 45.5589V140.111M230.103 45.5589H276.644M425.317 45.5589H319.306M425.317 45.5589V92.8348M425.317 45.5589C425.317 40.7571 429.209 36.8645 434.011 36.8645H490.174C495.052 36.8645 499.007 40.8192 499.007 45.6976V46.6457M499.007 46.6457H527.449M499.007 46.6457V95.5518M654.144 175.975H671.167C676.045 175.975 680 179.93 680 184.808V196.486C680 201.364 676.045 205.319 671.167 205.319H642.509M654.144 175.975V140.111M654.144 175.975H608.896M642.509 205.319V270.527M642.509 205.319H608.896M482.2 316.173H633.676C638.554 316.173 642.509 312.218 642.509 307.34V270.527M482.2 316.173C487.372 237.923 593.382 217.274 642.509 270.527M113.75 1H146.07M-73.7072 146.632H10.3254C14.2038 146.632 23.512 148.153 29.7175 154.239C35.923 160.325 45.2312 169.817 49.1096 173.802M-73.7072 146.632V307.478M-73.7072 146.632V124.895M49.1096 173.802C68.5017 186.119 99.5291 205.862 111.164 210.753M49.1096 173.802L31.9594 193.025C30.5155 194.643 29.7175 196.736 29.7175 198.905V291.176M111.164 210.753C126.678 217.274 172.503 226.372 212.003 232.489M111.164 210.753L70.8949 239.627C68.5812 241.286 67.2089 243.959 67.2089 246.806V291.176M212.003 232.489C192.567 231.489 150.639 231.409 127.155 238.183C123.685 239.184 121.507 242.464 121.507 246.075V282.343C121.507 287.222 117.552 291.176 112.674 291.176H67.2089M-73.7072 307.478H-40.4883C-35.9866 307.478 -32.3373 303.829 -32.3373 299.327C-32.3373 294.826 -28.688 291.176 -24.1863 291.176H29.7175M29.7175 291.176H67.2089M-73.7072 124.895H9.47393C17.8491 124.895 21.522 114.328 14.9521 109.133L-59.3959 50.3528C-65.1874 45.7739 -73.7072 49.8989 -73.7072 57.2819V124.895ZM146.07 1V131.278C146.07 136.156 150.025 140.111 154.903 140.111H230.103M654.144 140.111V55.4788C654.144 50.6004 650.189 46.6457 645.311 46.6457H527.449M654.144 140.111H527.449M230.103 140.111H276.644M276.644 45.5589V140.111M276.644 45.5589H319.306M276.644 140.111H319.306M319.306 45.5589V140.111M319.306 140.111H383.947M425.317 140.111V92.8348M425.317 140.111H383.947M425.317 140.111H461.515M425.317 92.8348H404.415C399.537 92.8348 395.582 96.7895 395.582 101.668V118.12C395.582 119.709 395.153 121.269 394.341 122.635L383.947 140.111M425.317 92.8348H461.515M461.515 92.8348V88.0829C461.515 83.2045 465.47 79.2498 470.348 79.2498H499.007M461.515 92.8348V140.111M499.007 140.111H461.515M499.007 140.111H527.449M499.007 140.111V95.5518M527.449 46.6457V95.5518M527.449 140.111V95.5518M499.007 95.5518H527.449M573.99 181.409H546.624C541.746 181.409 537.791 185.364 537.791 190.242V195.399C537.791 200.277 541.746 204.232 546.624 204.232H573.99M573.99 181.409V204.232M573.99 181.409C573.99 178.408 576.423 175.975 579.424 175.975H608.896M573.99 204.232C573.99 204.832 574.476 205.319 575.077 205.319H608.896M608.896 175.975V205.319M669.658 186.982V193.225C669.658 198.104 665.703 202.058 660.824 202.058H625.485C620.607 202.058 616.652 198.104 616.652 193.225V186.982C616.652 182.104 620.607 178.149 625.485 178.149H660.824C665.703 178.149 669.658 182.104 669.658 186.982Z" stroke="black" stroke-width="1.26187"/>
<path d="M71.8019 256.588V252.916H70.4643V252.108H74.1111V252.916H72.7672V256.588H71.8019ZM74.5217 256.588V252.108H75.4807V254.234L75.058 253.931H77.6069L77.1779 254.234V252.108H78.1369V256.588H77.1779V254.436L77.6069 254.739H75.058L75.4807 254.436V256.588H74.5217ZM78.9826 256.588V252.108H82.0994V252.916H79.9416V253.944H82.0237V254.739H79.9416V255.78H82.1499V256.588H78.9826ZM86.2422 256.689C85.8342 256.689 85.4703 256.596 85.1506 256.411C84.8352 256.226 84.587 255.959 84.4061 255.61C84.2295 255.261 84.1411 254.842 84.1411 254.354C84.1411 253.879 84.2274 253.467 84.3998 253.118C84.5723 252.764 84.8183 252.491 85.138 252.297C85.4577 252.104 85.832 252.007 86.2611 252.007C86.8457 252.007 87.3 252.152 87.6239 252.442C87.952 252.728 88.1623 253.139 88.2548 253.673L87.258 253.711C87.2075 253.429 87.0981 253.21 86.9299 253.054C86.7616 252.895 86.5387 252.815 86.2611 252.815C86.0213 252.815 85.8173 252.878 85.6491 253.004C85.4808 253.13 85.3525 253.309 85.2642 253.54C85.1759 253.772 85.1317 254.043 85.1317 254.354C85.1317 254.67 85.1759 254.943 85.2642 255.174C85.3567 255.401 85.4871 255.576 85.6554 255.698C85.8236 255.82 86.0234 255.881 86.2548 255.881C86.5576 255.881 86.7911 255.797 86.9551 255.629C87.1234 255.456 87.2285 255.219 87.2706 254.916L88.2738 254.954C88.2149 255.319 88.0992 255.631 87.9267 255.887C87.7543 256.144 87.5272 256.342 87.2453 256.48C86.9677 256.619 86.6333 256.689 86.2422 256.689ZM90.9576 256.689C90.5033 256.689 90.1121 256.594 89.7841 256.405C89.4602 256.215 89.2099 255.946 89.0332 255.597C88.8608 255.248 88.7746 254.834 88.7746 254.354C88.7746 253.875 88.8608 253.46 89.0332 253.111C89.2099 252.758 89.4602 252.487 89.7841 252.297C90.1121 252.104 90.5033 252.007 90.9576 252.007C91.4119 252.007 91.8009 252.104 92.1248 252.297C92.4529 252.487 92.7032 252.758 92.8756 253.111C93.0523 253.46 93.1406 253.875 93.1406 254.354C93.1406 254.834 93.0523 255.248 92.8756 255.597C92.7032 255.946 92.4529 256.215 92.1248 256.405C91.8009 256.594 91.4119 256.689 90.9576 256.689ZM90.9513 255.881C91.2037 255.881 91.4182 255.822 91.5948 255.704C91.7757 255.582 91.9124 255.408 92.0049 255.181C92.1017 254.954 92.1501 254.678 92.1501 254.354C92.1501 254.03 92.1017 253.755 92.0049 253.528C91.9124 253.296 91.7757 253.12 91.5948 252.998C91.4182 252.876 91.2037 252.815 90.9513 252.815C90.7031 252.815 90.4907 252.876 90.314 252.998C90.1374 253.12 90.0007 253.296 89.9039 253.528C89.8114 253.755 89.7651 254.03 89.7651 254.354C89.7651 254.678 89.8114 254.954 89.9039 255.181C90.0007 255.408 90.1374 255.582 90.314 255.704C90.4949 255.822 90.7073 255.881 90.9513 255.881ZM93.7762 256.588V252.108H95.057L96.199 255.37L97.3347 252.108H98.6155V256.588H97.6565V253.685L96.6028 256.575H95.7826L94.7353 253.685V256.588H93.7762ZM99.4633 256.588V252.108H100.744L101.886 255.37L103.022 252.108H104.303V256.588H103.344V253.685L102.29 256.575H101.47L100.422 253.685V256.588H99.4633ZM107.119 256.689C106.665 256.689 106.274 256.594 105.946 256.405C105.622 256.215 105.371 255.946 105.195 255.597C105.022 255.248 104.936 254.834 104.936 254.354C104.936 253.875 105.022 253.46 105.195 253.111C105.371 252.758 105.622 252.487 105.946 252.297C106.274 252.104 106.665 252.007 107.119 252.007C107.573 252.007 107.962 252.104 108.286 252.297C108.614 252.487 108.865 252.758 109.037 253.111C109.214 253.46 109.302 253.875 109.302 254.354C109.302 254.834 109.214 255.248 109.037 255.597C108.865 255.946 108.614 256.215 108.286 256.405C107.962 256.594 107.573 256.689 107.119 256.689ZM107.113 255.881C107.365 255.881 107.58 255.822 107.756 255.704C107.937 255.582 108.074 255.408 108.166 255.181C108.263 254.954 108.312 254.678 108.312 254.354C108.312 254.03 108.263 253.755 108.166 253.528C108.074 253.296 107.937 253.12 107.756 252.998C107.58 252.876 107.365 252.815 107.113 252.815C106.865 252.815 106.652 252.876 106.476 252.998C106.299 253.12 106.162 253.296 106.065 253.528C105.973 253.755 105.927 254.03 105.927 254.354C105.927 254.678 105.973 254.954 106.065 255.181C106.162 255.408 106.299 255.582 106.476 255.704C106.656 255.822 106.869 255.881 107.113 255.881ZM109.938 256.588V252.108H110.998L112.777 255.2V252.108H113.736V256.588H112.663L110.897 253.603V256.588H109.938ZM116.344 256.689C115.957 256.689 115.625 256.623 115.347 256.493C115.07 256.363 114.853 256.18 114.697 255.944C114.542 255.709 114.453 255.431 114.432 255.111L115.398 255.067C115.423 255.244 115.473 255.395 115.549 255.521C115.629 255.643 115.734 255.736 115.865 255.799C115.999 255.862 116.163 255.894 116.357 255.894C116.517 255.894 116.651 255.875 116.76 255.837C116.874 255.799 116.96 255.742 117.019 255.666C117.078 255.587 117.108 255.49 117.108 255.376C117.108 255.271 117.082 255.181 117.032 255.105C116.981 255.025 116.885 254.954 116.742 254.89C116.599 254.823 116.388 254.758 116.111 254.695C115.728 254.607 115.419 254.508 115.183 254.398C114.952 254.289 114.784 254.152 114.678 253.988C114.573 253.82 114.521 253.61 114.521 253.357C114.521 253.088 114.586 252.853 114.716 252.651C114.851 252.449 115.044 252.291 115.297 252.177C115.549 252.064 115.85 252.007 116.199 252.007C116.569 252.007 116.882 252.072 117.139 252.203C117.396 252.333 117.595 252.512 117.738 252.739C117.886 252.966 117.974 253.227 118.003 253.521L117.044 253.572C117.032 253.416 116.99 253.282 116.918 253.168C116.847 253.05 116.75 252.96 116.628 252.897C116.506 252.834 116.359 252.802 116.186 252.802C115.968 252.802 115.795 252.85 115.669 252.947C115.547 253.044 115.486 253.17 115.486 253.326C115.486 253.435 115.513 253.528 115.568 253.603C115.627 253.675 115.722 253.738 115.852 253.793C115.987 253.847 116.176 253.9 116.42 253.95C116.836 254.034 117.164 254.142 117.404 254.272C117.648 254.398 117.82 254.55 117.921 254.726C118.022 254.903 118.073 255.105 118.073 255.332C118.073 255.61 118.001 255.852 117.858 256.058C117.72 256.26 117.52 256.415 117.259 256.525C117.002 256.634 116.697 256.689 116.344 256.689ZM86.3486 266.588V262.108H87.3076V266.329L86.7776 265.78H89.3708V266.588H86.3486ZM89.9099 266.588V262.108H90.8689V266.329L90.339 265.78H92.9321V266.588H89.9099ZM94.3698 266.588V263.641H93.3981V262.941H93.783C93.9681 262.941 94.1174 262.916 94.231 262.865C94.3488 262.81 94.4329 262.724 94.4834 262.606C94.538 262.484 94.5654 262.318 94.5654 262.108H95.3288V266.588H94.3698ZM98.1023 266.689C97.707 266.689 97.3663 266.596 97.0802 266.411C96.7942 266.222 96.5734 265.953 96.4178 265.603C96.2663 265.254 96.1906 264.838 96.1906 264.354C96.1906 263.87 96.2684 263.454 96.4241 263.105C96.5797 262.752 96.7984 262.48 97.0802 262.291C97.3663 262.102 97.707 262.007 98.1023 262.007C98.4935 262.007 98.83 262.102 99.1118 262.291C99.3979 262.48 99.6187 262.752 99.7743 263.105C99.9299 263.454 100.008 263.87 100.008 264.354C100.008 264.834 99.9299 265.248 99.7743 265.597C99.6229 265.946 99.4042 266.215 99.1181 266.405C98.8321 266.594 98.4935 266.689 98.1023 266.689ZM98.1023 265.881C98.3968 265.881 98.6218 265.753 98.7774 265.496C98.9373 265.24 99.0172 264.859 99.0172 264.354C99.0172 264.013 98.9814 263.73 98.9099 263.502C98.8426 263.275 98.7396 263.105 98.6008 262.991C98.4662 262.874 98.3 262.815 98.1023 262.815C97.9004 262.815 97.7301 262.874 97.5913 262.991C97.4567 263.105 97.3536 263.275 97.2821 263.502C97.2148 263.73 97.1812 264.013 97.1812 264.354C97.1812 264.859 97.259 265.24 97.4146 265.496C97.5745 265.753 97.8037 265.881 98.1023 265.881ZM100.592 266.588C100.592 266.205 100.642 265.873 100.743 265.591C100.848 265.309 101.016 265.057 101.248 264.834C101.483 264.611 101.795 264.398 102.181 264.196C102.388 264.091 102.55 263.999 102.667 263.919C102.789 263.835 102.876 263.751 102.926 263.666C102.976 263.582 103.002 263.483 103.002 263.37C103.002 263.261 102.976 263.166 102.926 263.086C102.88 263.002 102.81 262.937 102.718 262.89C102.625 262.84 102.51 262.815 102.371 262.815C102.144 262.815 101.963 262.882 101.828 263.017C101.698 263.147 101.616 263.338 101.582 263.591L100.598 263.534C100.64 263.059 100.812 262.686 101.115 262.417C101.422 262.144 101.837 262.007 102.358 262.007C102.703 262.007 102.995 262.064 103.235 262.177C103.479 262.291 103.664 262.449 103.79 262.651C103.921 262.853 103.986 263.088 103.986 263.357C103.986 263.593 103.946 263.791 103.866 263.95C103.79 264.11 103.666 264.257 103.494 264.392C103.321 264.527 103.094 264.67 102.812 264.821C102.451 265.015 102.184 265.193 102.011 265.357C101.839 265.517 101.746 265.658 101.734 265.78H103.986V266.588H100.592Z" fill="#151515"/>
<path d="M37.9061 217.47V213.798H36.5685V212.99H40.2153V213.798H38.8714V217.47H37.9061ZM40.6259 217.47V212.99H41.585V215.116L41.1622 214.813H43.7112L43.2822 215.116V212.99H44.2412V217.47H43.2822V215.318L43.7112 215.621H41.1622L41.585 215.318V217.47H40.6259ZM45.0868 217.47V212.99H48.2036V213.798H46.0458V214.826H48.1279V215.621H46.0458V216.662H48.2541V217.47H45.0868ZM50.4473 217.47V212.99H53.5389V213.798H50.8763L51.4063 213.249V215.299L50.8763 214.883H53.4253V215.678H50.8763L51.4063 215.261V217.47H50.4473ZM54.101 217.47V212.99H55.0601V217.211L54.5301 216.662H57.1232V217.47H54.101ZM57.3462 217.47L58.9613 212.99H60.097L61.7122 217.47H60.7153L60.3873 216.517H58.6648L58.3367 217.47H57.3462ZM58.9361 215.728H60.1223L59.5292 214L58.9361 215.728ZM62.8431 217.47L61.2279 212.99H62.2184L63.4109 216.391L64.6034 212.99H65.5939L63.9724 217.47H62.8431ZM67.8629 217.571C67.4086 217.571 67.0174 217.476 66.6893 217.287C66.3655 217.097 66.1152 216.828 65.9385 216.479C65.7661 216.13 65.6799 215.716 65.6799 215.236C65.6799 214.757 65.7661 214.342 65.9385 213.993C66.1152 213.64 66.3655 213.369 66.6893 213.179C67.0174 212.986 67.4086 212.889 67.8629 212.889C68.3172 212.889 68.7062 212.986 69.0301 213.179C69.3582 213.369 69.6085 213.64 69.7809 213.993C69.9576 214.342 70.0459 214.757 70.0459 215.236C70.0459 215.716 69.9576 216.13 69.7809 216.479C69.6085 216.828 69.3582 217.097 69.0301 217.287C68.7062 217.476 68.3172 217.571 67.8629 217.571ZM67.8566 216.763C68.1089 216.763 68.3235 216.704 68.5001 216.586C68.681 216.464 68.8177 216.29 68.9102 216.063C69.007 215.836 69.0553 215.56 69.0553 215.236C69.0553 214.912 69.007 214.637 68.9102 214.41C68.8177 214.178 68.681 214.002 68.5001 213.88C68.3235 213.758 68.1089 213.697 67.8566 213.697C67.6084 213.697 67.396 213.758 67.2193 213.88C67.0427 214.002 66.906 214.178 66.8092 214.41C66.7167 214.637 66.6704 214.912 66.6704 215.236C66.6704 215.56 66.7167 215.836 66.8092 216.063C66.906 216.29 67.0427 216.464 67.2193 216.586C67.4002 216.704 67.6126 216.763 67.8566 216.763ZM72.5341 217.571C72.1555 217.571 71.8275 217.501 71.5498 217.362C71.2764 217.224 71.064 217.026 70.9126 216.769C70.7612 216.509 70.6855 216.204 70.6855 215.855V212.984H71.6445V215.855C71.6445 216.145 71.7202 216.37 71.8716 216.53C72.0273 216.685 72.2481 216.763 72.5341 216.763C72.8201 216.763 73.0388 216.685 73.1903 216.53C73.3417 216.37 73.4174 216.145 73.4174 215.855V212.984H74.3764V215.855C74.3764 216.204 74.3007 216.509 74.1493 216.769C74.0021 217.026 73.7897 217.224 73.512 217.362C73.2344 217.501 72.9085 217.571 72.5341 217.571ZM75.3088 217.47V212.99H77.271C77.5991 212.99 77.883 213.045 78.1227 213.154C78.3667 213.264 78.5539 213.419 78.6843 213.621C78.8147 213.819 78.8799 214.054 78.8799 214.328C78.8799 214.534 78.8357 214.717 78.7474 214.877C78.6632 215.036 78.5455 215.167 78.394 215.268C78.2468 215.369 78.0765 215.432 77.883 215.457L77.8641 215.4C78.1627 215.4 78.3898 215.465 78.5455 215.596C78.7011 215.722 78.7894 215.918 78.8105 216.183L78.924 217.47H77.9461L77.8641 216.334C77.8514 216.162 77.7968 216.035 77.7 215.955C77.6075 215.871 77.4476 215.829 77.2205 215.829H76.2678V217.47H75.3088ZM76.2678 215.028H77.1637C77.3951 215.028 77.5738 214.975 77.7 214.87C77.8304 214.761 77.8956 214.607 77.8956 214.41C77.8956 214.208 77.8304 214.056 77.7 213.955C77.5696 213.85 77.3803 213.798 77.1322 213.798H76.2678V215.028ZM81.1437 217.47V212.99H82.1027V217.211L81.5727 216.662H84.1659V217.47H81.1437ZM84.3888 217.47L86.004 212.99H87.1397L88.7549 217.47H87.758L87.4299 216.517H85.7074L85.3794 217.47H84.3888ZM85.9788 215.728H87.1649L86.5718 214L85.9788 215.728ZM89.1844 217.47V212.99H90.9258C91.481 212.99 91.9058 213.089 92.2002 213.287C92.4947 213.48 92.6419 213.787 92.6419 214.208C92.6419 214.393 92.604 214.555 92.5283 214.694C92.4526 214.828 92.3412 214.935 92.1939 215.015C92.0509 215.095 91.8764 215.144 91.6703 215.161V215.148C92.0446 215.173 92.3306 215.282 92.5283 215.476C92.7302 215.665 92.8312 215.918 92.8312 216.233C92.8312 216.65 92.684 216.961 92.3895 217.167C92.0993 217.369 91.6829 217.47 91.1403 217.47H89.1844ZM90.1434 216.687H91.0961C91.3275 216.687 91.5125 216.641 91.6513 216.549C91.7943 216.452 91.8659 216.309 91.8659 216.12C91.8659 215.93 91.7943 215.787 91.6513 215.69C91.5125 215.59 91.3275 215.539 91.0961 215.539H90.1434V216.687ZM90.1434 214.845H90.9005C91.1361 214.845 91.3232 214.799 91.4621 214.706C91.6051 214.614 91.6766 214.481 91.6766 214.309C91.6766 214.124 91.6072 213.989 91.4684 213.905C91.3338 213.817 91.1445 213.772 90.9005 213.772H90.1434V214.845ZM56.7474 227.47V222.99H57.7064V227.211L57.1764 226.662H59.7696V227.47H56.7474ZM60.3087 227.47V222.99H61.2677V227.211L60.7377 226.662H63.3309V227.47H60.3087ZM64.7686 227.47V224.523H63.7969V223.823H64.1818C64.3669 223.823 64.5162 223.798 64.6298 223.747C64.7475 223.693 64.8317 223.606 64.8821 223.489C64.9368 223.367 64.9642 223.2 64.9642 222.99H65.7276V227.47H64.7686ZM68.5011 227.571C68.1057 227.571 67.765 227.478 67.479 227.293C67.193 227.104 66.9722 226.835 66.8165 226.485C66.6651 226.136 66.5894 225.72 66.5894 225.236C66.5894 224.753 66.6672 224.336 66.8229 223.987C66.9785 223.634 67.1972 223.362 67.479 223.173C67.765 222.984 68.1057 222.889 68.5011 222.889C68.8923 222.889 69.2288 222.984 69.5106 223.173C69.7967 223.362 70.0175 223.634 70.1731 223.987C70.3287 224.336 70.4066 224.753 70.4066 225.236C70.4066 225.716 70.3287 226.13 70.1731 226.479C70.0217 226.828 69.803 227.097 69.5169 227.287C69.2309 227.476 68.8923 227.571 68.5011 227.571ZM68.5011 226.763C68.7956 226.763 69.0206 226.635 69.1762 226.378C69.3361 226.122 69.416 225.741 69.416 225.236C69.416 224.896 69.3802 224.612 69.3087 224.384C69.2414 224.157 69.1384 223.987 68.9996 223.873C68.865 223.756 68.6988 223.697 68.5011 223.697C68.2992 223.697 68.1289 223.756 67.9901 223.873C67.8555 223.987 67.7524 224.157 67.6809 224.384C67.6136 224.612 67.58 224.896 67.58 225.236C67.58 225.741 67.6578 226.122 67.8134 226.378C67.9733 226.635 68.2025 226.763 68.5011 226.763ZM72.7487 227.571C72.1935 227.571 71.7644 227.444 71.4616 227.192C71.1629 226.936 71.0031 226.591 70.9821 226.157L71.96 226.12C71.9811 226.342 72.0589 226.507 72.1935 226.612C72.3323 226.713 72.5174 226.763 72.7487 226.763C72.9001 226.763 73.0347 226.742 73.1525 226.7C73.2703 226.654 73.3628 226.584 73.4301 226.492C73.5016 226.399 73.5374 226.284 73.5374 226.145C73.5374 225.93 73.4638 225.77 73.3165 225.665C73.1693 225.556 72.9695 225.501 72.7171 225.501H72.3197V224.788H72.7171C72.9106 224.788 73.0705 224.748 73.1967 224.668C73.3271 224.584 73.3922 224.443 73.3922 224.246C73.3922 224.077 73.3397 223.945 73.2345 223.848C73.1294 223.747 72.9632 223.697 72.7361 223.697C72.5089 223.697 72.3386 223.743 72.225 223.836C72.1115 223.928 72.0421 224.048 72.0168 224.195L71.0515 224.145C71.0935 223.766 71.2597 223.463 71.5499 223.236C71.8444 223.005 72.2397 222.889 72.7361 222.889C73.0894 222.889 73.388 222.94 73.632 223.041C73.876 223.142 74.061 223.287 74.1872 223.476C74.3134 223.665 74.3765 223.888 74.3765 224.145C74.3765 224.41 74.2882 224.628 74.1115 224.801C73.9391 224.973 73.6888 225.091 73.3607 225.154V225.047C73.7351 225.102 74.0232 225.23 74.2251 225.432C74.427 225.634 74.5279 225.894 74.5279 226.214C74.5279 226.496 74.4543 226.74 74.3071 226.946C74.1599 227.148 73.9538 227.304 73.6888 227.413C73.4238 227.518 73.1104 227.571 72.7487 227.571Z" fill="#151515"/>
<path d="M192.9 295.706V292.034H191.562V291.226H195.209V292.034H193.865V295.706H192.9ZM195.619 295.706V291.226H196.578V293.352L196.156 293.049H198.705L198.276 293.352V291.226H199.235V295.706H198.276V293.554L198.705 293.857H196.156L196.578 293.554V295.706H195.619ZM200.08 295.706V291.226H203.197V292.034H201.039V293.062H203.121V293.857H201.039V294.898H203.248V295.706H200.08ZM205.441 295.706V291.226H207.233C207.771 291.226 208.192 291.356 208.494 291.617C208.801 291.878 208.955 292.235 208.955 292.69C208.955 292.988 208.886 293.249 208.747 293.472C208.612 293.691 208.415 293.861 208.154 293.983C207.897 294.101 207.59 294.16 207.233 294.16H206.4V295.706H205.441ZM206.4 293.352H207.176C207.428 293.352 207.624 293.298 207.763 293.188C207.901 293.075 207.971 292.908 207.971 292.69C207.971 292.475 207.901 292.313 207.763 292.204C207.628 292.09 207.432 292.034 207.176 292.034H206.4V293.352ZM209.557 295.706V291.226H210.516V295.706H209.557ZM212.21 295.706V292.034H210.872V291.226H214.519V292.034H213.175V295.706H212.21ZM195.592 305.706V301.226H196.551V305.447L196.021 304.898H198.614V305.706H195.592ZM199.153 305.706V301.226H200.112V305.447L199.582 304.898H202.175V305.706H199.153ZM203.613 305.706V302.759H202.641V302.059H203.026C203.211 302.059 203.36 302.034 203.474 301.983C203.592 301.928 203.676 301.842 203.726 301.724C203.781 301.602 203.808 301.436 203.808 301.226H204.572V305.706H203.613ZM207.345 305.807C206.95 305.807 206.609 305.714 206.323 305.529C206.037 305.34 205.816 305.07 205.661 304.721C205.509 304.372 205.434 303.956 205.434 303.472C205.434 302.988 205.511 302.572 205.667 302.223C205.823 301.869 206.041 301.598 206.323 301.409C206.609 301.22 206.95 301.125 207.345 301.125C207.737 301.125 208.073 301.22 208.355 301.409C208.641 301.598 208.862 301.869 209.017 302.223C209.173 302.572 209.251 302.988 209.251 303.472C209.251 303.952 209.173 304.366 209.017 304.715C208.866 305.064 208.647 305.333 208.361 305.523C208.075 305.712 207.737 305.807 207.345 305.807ZM207.345 304.999C207.64 304.999 207.865 304.871 208.02 304.614C208.18 304.357 208.26 303.977 208.26 303.472C208.26 303.131 208.224 302.847 208.153 302.62C208.086 302.393 207.983 302.223 207.844 302.109C207.709 301.991 207.543 301.933 207.345 301.933C207.143 301.933 206.973 301.991 206.834 302.109C206.7 302.223 206.597 302.393 206.525 302.62C206.458 302.847 206.424 303.131 206.424 303.472C206.424 303.977 206.502 304.357 206.658 304.614C206.817 304.871 207.047 304.999 207.345 304.999ZM210.76 305.706V302.759H209.788V302.059H210.173C210.358 302.059 210.508 302.034 210.621 301.983C210.739 301.928 210.823 301.842 210.874 301.724C210.928 301.602 210.956 301.436 210.956 301.226H211.719V305.706H210.76Z" fill="#151515"/>
<path d="M171.712 67.3076V62.828H172.671V67.3076H171.712ZM173.517 67.3076V62.828H174.577L176.356 65.9196V62.828H177.315V67.3076H176.243L174.476 64.3233V67.3076H173.517ZM179.923 67.4086C179.536 67.4086 179.204 67.3434 178.926 67.213C178.649 67.0826 178.432 66.8996 178.277 66.6641C178.121 66.4285 178.033 66.1509 178.012 65.8312L178.977 65.7871C179.002 65.9637 179.053 66.1152 179.128 66.2413C179.208 66.3633 179.313 66.4559 179.444 66.519C179.578 66.582 179.742 66.6136 179.936 66.6136C180.096 66.6136 180.23 66.5947 180.34 66.5568C180.453 66.519 180.539 66.4622 180.598 66.3865C180.657 66.3065 180.687 66.2098 180.687 66.0962C180.687 65.9911 180.661 65.9006 180.611 65.8249C180.561 65.745 180.464 65.6735 180.321 65.6104C180.178 65.5431 179.967 65.4779 179.69 65.4148C179.307 65.3265 178.998 65.2276 178.762 65.1183C178.531 65.0089 178.363 64.8722 178.258 64.7082C178.152 64.5399 178.1 64.3296 178.1 64.0772C178.1 63.808 178.165 63.5725 178.295 63.3706C178.43 63.1687 178.624 63.011 178.876 62.8974C179.128 62.7838 179.429 62.727 179.778 62.727C180.148 62.727 180.462 62.7922 180.718 62.9226C180.975 63.053 181.175 63.2318 181.318 63.4589C181.465 63.6861 181.553 63.9468 181.583 64.2413L180.624 64.2918C180.611 64.1361 180.569 64.0015 180.497 63.888C180.426 63.7702 180.329 63.6798 180.207 63.6167C180.085 63.5536 179.938 63.522 179.766 63.522C179.547 63.522 179.374 63.5704 179.248 63.6671C179.126 63.7639 179.065 63.8901 179.065 64.0457C179.065 64.1551 179.093 64.2476 179.147 64.3233C179.206 64.3948 179.301 64.4579 179.431 64.5126C179.566 64.5673 179.755 64.6198 179.999 64.6703C180.415 64.7544 180.743 64.8617 180.983 64.9921C181.227 65.1183 181.4 65.2697 181.501 65.4464C181.602 65.623 181.652 65.8249 181.652 66.0521C181.652 66.3297 181.581 66.5715 181.438 66.7776C181.299 66.9795 181.099 67.1352 180.838 67.2445C180.582 67.3539 180.277 67.4086 179.923 67.4086ZM183.88 67.3076V62.828H185.161L186.303 66.0899L187.439 62.828H188.72V67.3076H187.761V64.4053L186.707 67.295H185.887L184.84 64.4053V67.3076H183.88ZM189.245 67.3076L190.86 62.828H191.996L193.611 67.3076H192.614L192.286 66.3549H190.564L190.236 67.3076H189.245ZM190.835 65.5662H192.021L191.428 63.8375L190.835 65.5662ZM194.041 67.3076V62.828H196.003C196.331 62.828 196.615 62.8827 196.855 62.992C197.099 63.1014 197.286 63.257 197.416 63.4589C197.547 63.6566 197.612 63.8922 197.612 64.1656C197.612 64.3717 197.568 64.5546 197.479 64.7145C197.395 64.8743 197.277 65.0047 197.126 65.1057C196.979 65.2066 196.808 65.2697 196.615 65.2949L196.596 65.2382C196.895 65.2382 197.122 65.3034 197.277 65.4337C197.433 65.5599 197.521 65.7555 197.542 66.0205L197.656 67.3076H196.678L196.596 66.1719C196.583 65.9995 196.529 65.8733 196.432 65.7934C196.339 65.7093 196.18 65.6672 195.952 65.6672H195V67.3076H194.041ZM195 64.8659H195.896C196.127 64.8659 196.306 64.8133 196.432 64.7082C196.562 64.5988 196.628 64.4453 196.628 64.2476C196.628 64.0457 196.562 63.8943 196.432 63.7933C196.302 63.6882 196.112 63.6356 195.864 63.6356H195V64.8659ZM198.36 67.3076V62.828H199.319V64.7839L200.947 62.828H202.064L200.417 64.8028L202.164 67.3076H201.073L199.786 65.4464L199.319 65.989V67.3076H198.36ZM202.648 67.3076V62.828H205.765V63.6356H203.607V64.664H205.689V65.459H203.607V66.5H205.816V67.3076H202.648ZM207.513 67.3076V63.6356H206.176V62.828H209.822V63.6356H208.479V67.3076H207.513ZM181.718 77.3076V72.828H182.677V77.0489L182.147 76.5H184.74V77.3076H181.718ZM185.279 77.3076V72.828H186.238V77.0489L185.708 76.5H188.301V77.3076H185.279ZM190.572 77.4086C190.017 77.4086 189.588 77.2824 189.285 77.03C188.986 76.7734 188.826 76.4285 188.805 75.9953L189.783 75.9574C189.804 76.1803 189.882 76.3444 190.017 76.4495C190.155 76.5505 190.341 76.601 190.572 76.601C190.723 76.601 190.858 76.5799 190.976 76.5379C191.093 76.4916 191.186 76.4222 191.253 76.3297C191.325 76.2371 191.361 76.1215 191.361 75.9827C191.361 75.7681 191.287 75.6083 191.14 75.5031C190.992 75.3938 190.793 75.3391 190.54 75.3391H190.143V74.6262H190.54C190.734 74.6262 190.894 74.5862 191.02 74.5063C191.15 74.4221 191.215 74.2812 191.215 74.0835C191.215 73.9153 191.163 73.7828 191.058 73.6861C190.953 73.5851 190.786 73.5346 190.559 73.5346C190.332 73.5346 190.162 73.5809 190.048 73.6734C189.935 73.766 189.865 73.8859 189.84 74.0331L188.875 73.9826C188.917 73.604 189.083 73.3012 189.373 73.0741C189.668 72.8427 190.063 72.727 190.559 72.727C190.913 72.727 191.211 72.7775 191.455 72.8785C191.699 72.9794 191.884 73.1245 192.01 73.3138C192.137 73.5031 192.2 73.726 192.2 73.9826C192.2 74.2476 192.111 74.4663 191.935 74.6388C191.762 74.8112 191.512 74.929 191.184 74.9921V74.8848C191.558 74.9395 191.846 75.0678 192.048 75.2697C192.25 75.4716 192.351 75.7324 192.351 76.0521C192.351 76.3339 192.277 76.5778 192.13 76.7839C191.983 76.9858 191.777 77.1415 191.512 77.2508C191.247 77.356 190.934 77.4086 190.572 77.4086ZM194.839 77.4086C194.444 77.4086 194.103 77.316 193.817 77.131C193.531 76.9417 193.31 76.6725 193.155 76.3234C193.003 75.9742 192.928 75.5578 192.928 75.0741C192.928 74.5904 193.006 74.174 193.161 73.8249C193.317 73.4715 193.535 73.2002 193.817 73.011C194.103 72.8217 194.444 72.727 194.839 72.727C195.231 72.727 195.567 72.8217 195.849 73.011C196.135 73.2002 196.356 73.4715 196.511 73.8249C196.667 74.174 196.745 74.5904 196.745 75.0741C196.745 75.5536 196.667 75.9679 196.511 76.3171C196.36 76.6662 196.141 76.9354 195.855 77.1246C195.569 77.3139 195.231 77.4086 194.839 77.4086ZM194.839 76.601C195.134 76.601 195.359 76.4727 195.515 76.2161C195.674 75.9595 195.754 75.5789 195.754 75.0741C195.754 74.7334 195.719 74.4495 195.647 74.2224C195.58 73.9952 195.477 73.8249 195.338 73.7113C195.203 73.5935 195.037 73.5346 194.839 73.5346C194.638 73.5346 194.467 73.5935 194.328 73.7113C194.194 73.8249 194.091 73.9952 194.019 74.2224C193.952 74.4495 193.918 74.7334 193.918 75.0741C193.918 75.5789 193.996 75.9595 194.152 76.2161C194.312 76.4727 194.541 76.601 194.839 76.601ZM198.254 77.3076V74.3612H197.283V73.6608H197.667C197.852 73.6608 198.002 73.6356 198.115 73.5851C198.233 73.5304 198.317 73.4442 198.368 73.3264C198.422 73.2044 198.45 73.0383 198.45 72.828H199.213V77.3076H198.254Z" fill="#151515"/>
<path d="M242.838 85.0748C242.43 85.0748 242.066 84.9823 241.746 84.7972C241.431 84.6121 241.183 84.345 241.002 83.9959C240.825 83.6468 240.737 83.2283 240.737 82.7404C240.737 82.2651 240.823 81.8529 240.995 81.5037C241.168 81.1504 241.414 80.877 241.734 80.6835C242.053 80.49 242.428 80.3933 242.857 80.3933C243.441 80.3933 243.896 80.5384 244.22 80.8286C244.548 81.1147 244.758 81.5248 244.85 82.059L243.854 82.0968C243.803 81.815 243.694 81.5963 243.526 81.4407C243.357 81.2808 243.134 81.2009 242.857 81.2009C242.617 81.2009 242.413 81.264 242.245 81.3902C242.076 81.5164 241.948 81.6951 241.86 81.9265C241.772 82.1578 241.727 82.4291 241.727 82.7404C241.727 83.0558 241.772 83.3292 241.86 83.5606C241.952 83.7877 242.083 83.9623 242.251 84.0843C242.419 84.2062 242.619 84.2672 242.85 84.2672C243.153 84.2672 243.387 84.1831 243.551 84.0149C243.719 83.8424 243.824 83.6048 243.866 83.3019L244.869 83.3398C244.811 83.7057 244.695 84.017 244.522 84.2735C244.35 84.5301 244.123 84.7278 243.841 84.8666C243.563 85.0054 243.229 85.0748 242.838 85.0748ZM245.04 84.9739L246.655 80.4943H247.791L249.406 84.9739H248.409L248.081 84.0212H246.359L246.031 84.9739H245.04ZM246.63 83.2325H247.816L247.223 81.5037L246.63 83.2325ZM249.836 84.9739V80.4943H251.117L252.259 83.7562L253.394 80.4943H254.675V84.9739H253.716V82.0716L252.662 84.9613H251.842L250.795 82.0716V84.9739H249.836ZM255.523 84.9739V80.4943H257.315C257.853 80.4943 258.274 80.6246 258.577 80.8854C258.884 81.1462 259.037 81.5037 259.037 81.958C259.037 82.2567 258.968 82.5174 258.829 82.7404C258.694 82.9591 258.497 83.1294 258.236 83.2514C257.979 83.3692 257.672 83.4281 257.315 83.4281H256.482V84.9739H255.523ZM256.482 82.6205H257.258C257.51 82.6205 257.706 82.5658 257.845 82.4565C257.984 82.3429 258.053 82.1767 258.053 81.958C258.053 81.7435 257.984 81.5816 257.845 81.4722C257.71 81.3586 257.515 81.3018 257.258 81.3018H256.482V82.6205ZM261.516 85.0748C261.137 85.0748 260.809 85.0054 260.532 84.8666C260.258 84.7278 260.046 84.5301 259.894 84.2735C259.743 84.0128 259.667 83.7078 259.667 83.3587V80.4879H260.626V83.3587C260.626 83.6489 260.702 83.8739 260.853 84.0338C261.009 84.1894 261.23 84.2672 261.516 84.2672C261.802 84.2672 262.021 84.1894 262.172 84.0338C262.324 83.8739 262.399 83.6489 262.399 83.3587V80.4879H263.358V83.3587C263.358 83.7078 263.283 84.0128 263.131 84.2735C262.984 84.5301 262.772 84.7278 262.494 84.8666C262.216 85.0054 261.89 85.0748 261.516 85.0748ZM265.971 85.0748C265.584 85.0748 265.252 85.0096 264.974 84.8792C264.697 84.7488 264.48 84.5659 264.324 84.3303C264.169 84.0948 264.08 83.8172 264.059 83.4975L265.025 83.4533C265.05 83.63 265.1 83.7814 265.176 83.9076C265.256 84.0296 265.361 84.1221 265.492 84.1852C265.626 84.2483 265.79 84.2799 265.984 84.2799C266.144 84.2799 266.278 84.2609 266.388 84.2231C266.501 84.1852 266.587 84.1284 266.646 84.0527C266.705 83.9728 266.735 83.8761 266.735 83.7625C266.735 83.6573 266.709 83.5669 266.659 83.4912C266.608 83.4113 266.512 83.3398 266.369 83.2767C266.226 83.2094 266.015 83.1442 265.738 83.0811C265.355 82.9927 265.046 82.8939 264.81 82.7845C264.579 82.6752 264.411 82.5385 264.305 82.3744C264.2 82.2062 264.148 81.9959 264.148 81.7435C264.148 81.4743 264.213 81.2388 264.343 81.0369C264.478 80.835 264.671 80.6772 264.924 80.5637C265.176 80.4501 265.477 80.3933 265.826 80.3933C266.196 80.3933 266.51 80.4585 266.766 80.5889C267.023 80.7193 267.222 80.898 267.365 81.1252C267.513 81.3523 267.601 81.6131 267.63 81.9075L266.671 81.958C266.659 81.8024 266.617 81.6678 266.545 81.5542C266.474 81.4364 266.377 81.346 266.255 81.2829C266.133 81.2198 265.986 81.1883 265.813 81.1883C265.595 81.1883 265.422 81.2366 265.296 81.3334C265.174 81.4301 265.113 81.5563 265.113 81.712C265.113 81.8213 265.14 81.9139 265.195 81.9896C265.254 82.0611 265.349 82.1242 265.479 82.1788C265.614 82.2335 265.803 82.2861 266.047 82.3366C266.463 82.4207 266.791 82.528 267.031 82.6584C267.275 82.7845 267.448 82.936 267.548 83.1126C267.649 83.2893 267.7 83.4912 267.7 83.7183C267.7 83.9959 267.628 84.2378 267.485 84.4439C267.347 84.6458 267.147 84.8014 266.886 84.9108C266.629 85.0201 266.324 85.0748 265.971 85.0748ZM245.827 94.9739L244.212 90.4943H245.202L246.395 93.895L247.587 90.4943H248.578L246.956 94.9739H245.827ZM248.995 94.9739V90.4943H249.954V94.9739H248.995ZM252.561 95.0748C252.174 95.0748 251.841 95.0096 251.564 94.8792C251.286 94.7488 251.07 94.5659 250.914 94.3303C250.758 94.0948 250.67 93.8172 250.649 93.4975L251.614 93.4533C251.64 93.63 251.69 93.7814 251.766 93.9076C251.846 94.0296 251.951 94.1221 252.081 94.1852C252.216 94.2483 252.38 94.2799 252.573 94.2799C252.733 94.2799 252.868 94.2609 252.977 94.2231C253.091 94.1852 253.177 94.1284 253.236 94.0527C253.295 93.9728 253.324 93.8761 253.324 93.7625C253.324 93.6573 253.299 93.5669 253.248 93.4912C253.198 93.4113 253.101 93.3398 252.958 93.2767C252.815 93.2094 252.605 93.1442 252.327 93.0811C251.945 92.9927 251.635 92.8939 251.4 92.7845C251.168 92.6752 251 92.5385 250.895 92.3744C250.79 92.2062 250.737 91.9959 250.737 91.7435C250.737 91.4743 250.803 91.2388 250.933 91.0369C251.068 90.835 251.261 90.6772 251.513 90.5637C251.766 90.4501 252.066 90.3933 252.416 90.3933C252.786 90.3933 253.099 90.4585 253.356 90.5889C253.612 90.7193 253.812 90.898 253.955 91.1252C254.102 91.3523 254.191 91.6131 254.22 91.9075L253.261 91.958C253.248 91.8024 253.206 91.6678 253.135 91.5542C253.063 91.4364 252.967 91.346 252.845 91.2829C252.723 91.2198 252.575 91.1883 252.403 91.1883C252.184 91.1883 252.012 91.2366 251.886 91.3334C251.764 91.4301 251.703 91.5563 251.703 91.712C251.703 91.8213 251.73 91.9139 251.785 91.9896C251.844 92.0611 251.938 92.1242 252.069 92.1788C252.203 92.2335 252.392 92.2861 252.636 92.3366C253.053 92.4207 253.381 92.528 253.621 92.6584C253.865 92.7845 254.037 92.936 254.138 93.1126C254.239 93.2893 254.289 93.4912 254.289 93.7183C254.289 93.9959 254.218 94.2378 254.075 94.4439C253.936 94.6458 253.736 94.8014 253.476 94.9108C253.219 95.0201 252.914 95.0748 252.561 95.0748ZM254.984 94.9739V90.4943H255.943V94.9739H254.984ZM258.758 95.0748C258.304 95.0748 257.912 94.9802 257.584 94.7909C257.26 94.6016 257.01 94.3324 256.834 93.9833C256.661 93.6342 256.575 93.2199 256.575 92.7404C256.575 92.2609 256.661 91.8466 256.834 91.4974C257.01 91.1441 257.26 90.8728 257.584 90.6835C257.912 90.49 258.304 90.3933 258.758 90.3933C259.212 90.3933 259.601 90.49 259.925 90.6835C260.253 90.8728 260.503 91.1441 260.676 91.4974C260.853 91.8466 260.941 92.2609 260.941 92.7404C260.941 93.2199 260.853 93.6342 260.676 93.9833C260.503 94.3324 260.253 94.6016 259.925 94.7909C259.601 94.9802 259.212 95.0748 258.758 95.0748ZM258.752 94.2672C259.004 94.2672 259.218 94.2083 259.395 94.0906C259.576 93.9686 259.713 93.794 259.805 93.5669C259.902 93.3398 259.95 93.0643 259.95 92.7404C259.95 92.4165 259.902 92.141 259.805 91.9139C259.713 91.6825 259.576 91.5058 259.395 91.3839C259.218 91.2619 259.004 91.2009 258.752 91.2009C258.503 91.2009 258.291 91.2619 258.114 91.3839C257.938 91.5058 257.801 91.6825 257.704 91.9139C257.612 92.141 257.565 92.4165 257.565 92.7404C257.565 93.0643 257.612 93.3398 257.704 93.5669C257.801 93.794 257.938 93.9686 258.114 94.0906C258.295 94.2083 258.508 94.2672 258.752 94.2672ZM261.577 94.9739V90.4943H262.636L264.416 93.5858V90.4943H265.375V94.9739H264.302L262.536 91.9896V94.9739H261.577ZM245.517 104.974V100.494H246.476V104.715L245.946 104.166H248.539V104.974H245.517ZM249.078 104.974V100.494H250.037V104.715L249.507 104.166H252.1V104.974H249.078ZM254.371 105.075C253.815 105.075 253.386 104.949 253.084 104.696C252.785 104.44 252.625 104.095 252.604 103.662L253.582 103.624C253.603 103.847 253.681 104.011 253.815 104.116C253.954 104.217 254.139 104.267 254.371 104.267C254.522 104.267 254.657 104.246 254.774 104.204C254.892 104.158 254.985 104.088 255.052 103.996C255.124 103.903 255.159 103.788 255.159 103.649C255.159 103.434 255.086 103.275 254.939 103.169C254.791 103.06 254.592 103.005 254.339 103.005H253.942V102.292H254.339C254.533 102.292 254.692 102.252 254.819 102.173C254.949 102.088 255.014 101.948 255.014 101.75C255.014 101.582 254.962 101.449 254.857 101.352C254.751 101.251 254.585 101.201 254.358 101.201C254.131 101.201 253.961 101.247 253.847 101.34C253.733 101.432 253.664 101.552 253.639 101.699L252.673 101.649C252.716 101.27 252.882 100.967 253.172 100.74C253.466 100.509 253.862 100.393 254.358 100.393C254.711 100.393 255.01 100.444 255.254 100.545C255.498 100.646 255.683 100.791 255.809 100.98C255.935 101.169 255.998 101.392 255.998 101.649C255.998 101.914 255.91 102.133 255.733 102.305C255.561 102.477 255.311 102.595 254.983 102.658V102.551C255.357 102.606 255.645 102.734 255.847 102.936C256.049 103.138 256.15 103.399 256.15 103.718C256.15 104 256.076 104.244 255.929 104.45C255.782 104.652 255.576 104.808 255.311 104.917C255.046 105.022 254.732 105.075 254.371 105.075ZM258.638 105.075C258.243 105.075 257.902 104.982 257.616 104.797C257.33 104.608 257.109 104.339 256.954 103.99C256.802 103.641 256.727 103.224 256.727 102.74C256.727 102.257 256.804 101.84 256.96 101.491C257.116 101.138 257.334 100.867 257.616 100.677C257.902 100.488 258.243 100.393 258.638 100.393C259.029 100.393 259.366 100.488 259.648 100.677C259.934 100.867 260.155 101.138 260.31 101.491C260.466 101.84 260.544 102.257 260.544 102.74C260.544 103.22 260.466 103.634 260.31 103.983C260.159 104.332 259.94 104.602 259.654 104.791C259.368 104.98 259.029 105.075 258.638 105.075ZM258.638 104.267C258.933 104.267 259.158 104.139 259.313 103.882C259.473 103.626 259.553 103.245 259.553 102.74C259.553 102.4 259.517 102.116 259.446 101.889C259.379 101.661 259.275 101.491 259.137 101.378C259.002 101.26 258.836 101.201 258.638 101.201C258.436 101.201 258.266 101.26 258.127 101.378C257.993 101.491 257.89 101.661 257.818 101.889C257.751 102.116 257.717 102.4 257.717 102.74C257.717 103.245 257.795 103.626 257.951 103.882C258.11 104.139 258.34 104.267 258.638 104.267ZM261.127 104.974C261.127 104.591 261.178 104.259 261.279 103.977C261.384 103.695 261.552 103.443 261.784 103.22C262.019 102.997 262.33 102.785 262.717 102.583C262.923 102.477 263.085 102.385 263.203 102.305C263.325 102.221 263.411 102.137 263.462 102.053C263.512 101.969 263.538 101.87 263.538 101.756C263.538 101.647 263.512 101.552 263.462 101.472C263.416 101.388 263.346 101.323 263.254 101.277C263.161 101.226 263.045 101.201 262.907 101.201C262.68 101.201 262.499 101.268 262.364 101.403C262.234 101.533 262.152 101.725 262.118 101.977L261.134 101.92C261.176 101.445 261.348 101.073 261.651 100.803C261.958 100.53 262.372 100.393 262.894 100.393C263.239 100.393 263.531 100.45 263.771 100.564C264.015 100.677 264.2 100.835 264.326 101.037C264.457 101.239 264.522 101.474 264.522 101.743C264.522 101.979 264.482 102.177 264.402 102.337C264.326 102.496 264.202 102.644 264.03 102.778C263.857 102.913 263.63 103.056 263.348 103.207C262.987 103.401 262.719 103.58 262.547 103.744C262.375 103.903 262.282 104.044 262.269 104.166H264.522V104.974H261.127Z" fill="#151515"/>
<path d="M283.315 84.9739V81.3018H281.977V80.4943H285.624V81.3018H284.28V84.9739H283.315ZM286.034 84.9739V80.4943H286.993V82.6205L286.571 82.3176H289.12L288.691 82.6205V80.4943H289.65V84.9739H288.691V82.8224L289.12 83.1252H286.571L286.993 82.8224V84.9739H286.034ZM290.495 84.9739V80.4943H293.612V81.3018H291.454V82.3303H293.536V83.1252H291.454V84.1663H293.663V84.9739H290.495ZM297.629 85.0748C297.242 85.0748 296.909 85.0096 296.632 84.8792C296.354 84.7488 296.138 84.5659 295.982 84.3303C295.826 84.0948 295.738 83.8172 295.717 83.4975L296.682 83.4533C296.708 83.63 296.758 83.7814 296.834 83.9076C296.914 84.0296 297.019 84.1221 297.149 84.1852C297.284 84.2483 297.448 84.2799 297.641 84.2799C297.801 84.2799 297.936 84.2609 298.045 84.2231C298.159 84.1852 298.245 84.1284 298.304 84.0527C298.363 83.9728 298.392 83.8761 298.392 83.7625C298.392 83.6573 298.367 83.5669 298.316 83.4912C298.266 83.4113 298.169 83.3398 298.026 83.2767C297.883 83.2094 297.673 83.1442 297.395 83.0811C297.012 82.9927 296.703 82.8939 296.468 82.7845C296.236 82.6752 296.068 82.5385 295.963 82.3744C295.858 82.2062 295.805 81.9959 295.805 81.7435C295.805 81.4743 295.87 81.2388 296.001 81.0369C296.135 80.835 296.329 80.6772 296.581 80.5637C296.834 80.4501 297.134 80.3933 297.484 80.3933C297.854 80.3933 298.167 80.4585 298.424 80.5889C298.68 80.7193 298.88 80.898 299.023 81.1252C299.17 81.3523 299.259 81.6131 299.288 81.9075L298.329 81.958C298.316 81.8024 298.274 81.6678 298.203 81.5542C298.131 81.4364 298.035 81.346 297.913 81.2829C297.791 81.2198 297.643 81.1883 297.471 81.1883C297.252 81.1883 297.08 81.2366 296.954 81.3334C296.832 81.4301 296.771 81.5563 296.771 81.712C296.771 81.8213 296.798 81.9139 296.853 81.9896C296.912 82.0611 297.006 82.1242 297.137 82.1788C297.271 82.2335 297.46 82.2861 297.704 82.3366C298.121 82.4207 298.449 82.528 298.689 82.6584C298.933 82.7845 299.105 82.936 299.206 83.1126C299.307 83.2893 299.357 83.4912 299.357 83.7183C299.357 83.9959 299.286 84.2378 299.143 84.4439C299.004 84.6458 298.804 84.8014 298.544 84.9108C298.287 85.0201 297.982 85.0748 297.629 85.0748ZM302.131 85.0748C301.677 85.0748 301.286 84.9802 300.958 84.7909C300.634 84.6016 300.384 84.3324 300.207 83.9833C300.035 83.6342 299.948 83.2199 299.948 82.7404C299.948 82.2609 300.035 81.8466 300.207 81.4974C300.384 81.1441 300.634 80.8728 300.958 80.6835C301.286 80.49 301.677 80.3933 302.131 80.3933C302.586 80.3933 302.975 80.49 303.299 80.6835C303.627 80.8728 303.877 81.1441 304.049 81.4974C304.226 81.8466 304.314 82.2609 304.314 82.7404C304.314 83.2199 304.226 83.6342 304.049 83.9833C303.877 84.3324 303.627 84.6016 303.299 84.7909C302.975 84.9802 302.586 85.0748 302.131 85.0748ZM302.125 84.2672C302.377 84.2672 302.592 84.2083 302.769 84.0906C302.95 83.9686 303.086 83.794 303.179 83.5669C303.276 83.3398 303.324 83.0643 303.324 82.7404C303.324 82.4165 303.276 82.141 303.179 81.9139C303.086 81.6825 302.95 81.5058 302.769 81.3839C302.592 81.2619 302.377 81.2009 302.125 81.2009C301.877 81.2009 301.665 81.2619 301.488 81.3839C301.311 81.5058 301.175 81.6825 301.078 81.9139C300.985 82.141 300.939 82.4165 300.939 82.7404C300.939 83.0643 300.985 83.3398 301.078 83.5669C301.175 83.794 301.311 83.9686 301.488 84.0906C301.669 84.2083 301.881 84.2672 302.125 84.2672ZM306.803 85.0748C306.424 85.0748 306.096 85.0054 305.818 84.8666C305.545 84.7278 305.333 84.5301 305.181 84.2735C305.03 84.0128 304.954 83.7078 304.954 83.3587V80.4879H305.913V83.3587C305.913 83.6489 305.989 83.8739 306.14 84.0338C306.296 84.1894 306.517 84.2672 306.803 84.2672C307.089 84.2672 307.307 84.1894 307.459 84.0338C307.61 83.8739 307.686 83.6489 307.686 83.3587V80.4879H308.645V83.3587C308.645 83.7078 308.569 84.0128 308.418 84.2735C308.271 84.5301 308.058 84.7278 307.781 84.8666C307.503 85.0054 307.177 85.0748 306.803 85.0748ZM309.577 84.9739V80.4943H311.369C311.908 80.4943 312.328 80.6246 312.631 80.8854C312.938 81.1462 313.092 81.5037 313.092 81.958C313.092 82.2567 313.022 82.5174 312.883 82.7404C312.749 82.9591 312.551 83.1294 312.29 83.2514C312.034 83.3692 311.727 83.4281 311.369 83.4281H310.536V84.9739H309.577ZM310.536 82.6205H311.312C311.565 82.6205 311.76 82.5658 311.899 82.4565C312.038 82.3429 312.107 82.1767 312.107 81.958C312.107 81.7435 312.038 81.5816 311.899 81.4722C311.765 81.3586 311.569 81.3018 311.312 81.3018H310.536V82.6205ZM285.578 94.9739V90.4943H286.859L288.001 93.7562L289.137 90.4943H290.418V94.9739H289.459V92.0716L288.405 94.9613H287.585L286.537 92.0716V94.9739H285.578ZM290.943 94.9739L292.558 90.4943H293.694L295.309 94.9739H294.312L293.984 94.0212H292.262L291.934 94.9739H290.943ZM292.533 93.2325H293.719L293.126 91.5037L292.533 93.2325ZM295.739 94.9739V90.4943H297.701C298.029 90.4943 298.313 90.5489 298.553 90.6583C298.797 90.7677 298.984 90.9233 299.114 91.1252C299.245 91.3229 299.31 91.5584 299.31 91.8318C299.31 92.0379 299.266 92.2209 299.177 92.3807C299.093 92.5406 298.975 92.671 298.824 92.7719C298.677 92.8729 298.506 92.936 298.313 92.9612L298.294 92.9044C298.593 92.9044 298.82 92.9696 298.975 93.1C299.131 93.2262 299.219 93.4218 299.24 93.6868L299.354 94.9739H298.376L298.294 93.8382C298.281 93.6657 298.227 93.5396 298.13 93.4596C298.037 93.3755 297.878 93.3335 297.65 93.3335H296.698V94.9739H295.739ZM296.698 92.5322H297.594C297.825 92.5322 298.004 92.4796 298.13 92.3744C298.26 92.2651 298.326 92.1115 298.326 91.9139C298.326 91.712 298.26 91.5605 298.13 91.4596C298 91.3544 297.81 91.3018 297.562 91.3018H296.698V92.5322ZM300.058 94.9739V90.4943H301.017V92.4501L302.645 90.4943H303.761L302.115 92.4691L303.862 94.9739H302.771L301.484 93.1126L301.017 93.6552V94.9739H300.058ZM304.346 94.9739V90.4943H307.463V91.3018H305.305V92.3303H307.387V93.1252H305.305V94.1663H307.514V94.9739H304.346ZM309.211 94.9739V91.3018H307.874V90.4943H311.52V91.3018H310.177V94.9739H309.211ZM288.866 104.974V100.494H289.825V104.715L289.295 104.166H291.888V104.974H288.866ZM292.427 104.974V100.494H293.386V104.715L292.856 104.166H295.449V104.974H292.427ZM297.72 105.075C297.164 105.075 296.735 104.949 296.433 104.696C296.134 104.44 295.974 104.095 295.953 103.662L296.931 103.624C296.952 103.847 297.03 104.011 297.164 104.116C297.303 104.217 297.488 104.267 297.72 104.267C297.871 104.267 298.006 104.246 298.123 104.204C298.241 104.158 298.334 104.088 298.401 103.996C298.473 103.903 298.508 103.788 298.508 103.649C298.508 103.434 298.435 103.275 298.287 103.169C298.14 103.06 297.94 103.005 297.688 103.005H297.291V102.292H297.688C297.882 102.292 298.041 102.252 298.168 102.173C298.298 102.088 298.363 101.948 298.363 101.75C298.363 101.582 298.311 101.449 298.205 101.352C298.1 101.251 297.934 101.201 297.707 101.201C297.48 101.201 297.309 101.247 297.196 101.34C297.082 101.432 297.013 101.552 296.988 101.699L296.022 101.649C296.064 101.27 296.231 100.967 296.521 100.74C296.815 100.509 297.211 100.393 297.707 100.393C298.06 100.393 298.359 100.444 298.603 100.545C298.847 100.646 299.032 100.791 299.158 100.98C299.284 101.169 299.347 101.392 299.347 101.649C299.347 101.914 299.259 102.133 299.082 102.305C298.91 102.477 298.66 102.595 298.332 102.658V102.551C298.706 102.606 298.994 102.734 299.196 102.936C299.398 103.138 299.499 103.399 299.499 103.718C299.499 104 299.425 104.244 299.278 104.45C299.131 104.652 298.925 104.808 298.66 104.917C298.395 105.022 298.081 105.075 297.72 105.075ZM301.987 105.075C301.592 105.075 301.251 104.982 300.965 104.797C300.679 104.608 300.458 104.339 300.303 103.99C300.151 103.641 300.075 103.224 300.075 102.74C300.075 102.257 300.153 101.84 300.309 101.491C300.465 101.138 300.683 100.867 300.965 100.677C301.251 100.488 301.592 100.393 301.987 100.393C302.378 100.393 302.715 100.488 302.997 100.677C303.283 100.867 303.504 101.138 303.659 101.491C303.815 101.84 303.893 102.257 303.893 102.74C303.893 103.22 303.815 103.634 303.659 103.983C303.508 104.332 303.289 104.602 303.003 104.791C302.717 104.98 302.378 105.075 301.987 105.075ZM301.987 104.267C302.282 104.267 302.507 104.139 302.662 103.882C302.822 103.626 302.902 103.245 302.902 102.74C302.902 102.4 302.866 102.116 302.795 101.889C302.727 101.661 302.624 101.491 302.486 101.378C302.351 101.26 302.185 101.201 301.987 101.201C301.785 101.201 301.615 101.26 301.476 101.378C301.342 101.491 301.238 101.661 301.167 101.889C301.1 102.116 301.066 102.4 301.066 102.74C301.066 103.245 301.144 103.626 301.299 103.882C301.459 104.139 301.689 104.267 301.987 104.267ZM306.235 105.075C305.68 105.075 305.25 104.949 304.948 104.696C304.649 104.44 304.489 104.095 304.468 103.662L305.446 103.624C305.467 103.847 305.545 104.011 305.68 104.116C305.818 104.217 306.003 104.267 306.235 104.267C306.386 104.267 306.521 104.246 306.639 104.204C306.756 104.158 306.849 104.088 306.916 103.996C306.988 103.903 307.023 103.788 307.023 103.649C307.023 103.434 306.95 103.275 306.803 103.169C306.655 103.06 306.456 103.005 306.203 103.005H305.806V102.292H306.203C306.397 102.292 306.557 102.252 306.683 102.173C306.813 102.088 306.878 101.948 306.878 101.75C306.878 101.582 306.826 101.449 306.721 101.352C306.615 101.251 306.449 101.201 306.222 101.201C305.995 101.201 305.825 101.247 305.711 101.34C305.597 101.432 305.528 101.552 305.503 101.699L304.538 101.649C304.58 101.27 304.746 100.967 305.036 100.74C305.33 100.509 305.726 100.393 306.222 100.393C306.575 100.393 306.874 100.444 307.118 100.545C307.362 100.646 307.547 100.791 307.673 100.98C307.799 101.169 307.863 101.392 307.863 101.649C307.863 101.914 307.774 102.133 307.598 102.305C307.425 102.477 307.175 102.595 306.847 102.658V102.551C307.221 102.606 307.509 102.734 307.711 102.936C307.913 103.138 308.014 103.399 308.014 103.718C308.014 104 307.94 104.244 307.793 104.45C307.646 104.652 307.44 104.808 307.175 104.917C306.91 105.022 306.596 105.075 306.235 105.075Z" fill="#151515"/>
<path d="M343.275 92.5452V88.8731H341.938V88.0655H345.585V88.8731H344.241V92.5452H343.275ZM345.995 92.5452V88.0655H346.954V90.1918L346.532 89.8889H349.08L348.651 90.1918V88.0655H349.61V92.5452H348.651V90.3937L349.08 90.6965H346.532L346.954 90.3937V92.5452H345.995ZM350.456 92.5452V88.0655H353.573V88.8731H351.415V89.9016H353.497V90.6965H351.415V91.7376H353.623V92.5452H350.456ZM355.817 92.5452V88.0655H357.362C358.09 88.0655 358.649 88.2611 359.041 88.6523C359.432 89.0393 359.627 89.5924 359.627 90.3117C359.627 91.0267 359.434 91.5777 359.047 91.9647C358.664 92.3517 358.115 92.5452 357.4 92.5452H355.817ZM356.776 91.7376H357.362C357.796 91.7376 358.115 91.6219 358.321 91.3906C358.532 91.155 358.637 90.7933 358.637 90.3054C358.637 89.8174 358.532 89.4578 358.321 89.2265C358.115 88.9909 357.796 88.8731 357.362 88.8731H356.776V91.7376ZM360.259 92.5452V88.0655H363.376V88.8731H361.218V89.9016H363.3V90.6965H361.218V91.7376H363.426V92.5452H360.259ZM364.184 92.5452V88.0655H365.143V92.2865L364.613 91.7376H367.206V92.5452H364.184ZM367.745 92.5452V88.0655H368.704V92.2865L368.174 91.7376H370.767V92.5452H367.745ZM371.497 92.5452V90.8038L369.939 88.0655H370.999L371.977 89.87L372.949 88.0655H374.009L372.456 90.8038V92.5452H371.497ZM348.417 102.545V98.0655H349.376V102.286L348.846 101.738H351.439V102.545H348.417ZM351.978 102.545V98.0655H352.937V102.286L352.407 101.738H355V102.545H351.978ZM357.271 102.646C356.715 102.646 356.286 102.52 355.984 102.268C355.685 102.011 355.525 101.666 355.504 101.233L356.482 101.195C356.503 101.418 356.581 101.582 356.715 101.687C356.854 101.788 357.039 101.839 357.271 101.839C357.422 101.839 357.557 101.817 357.674 101.775C357.792 101.729 357.885 101.66 357.952 101.567C358.024 101.475 358.059 101.359 358.059 101.22C358.059 101.006 357.986 100.846 357.839 100.741C357.691 100.631 357.492 100.577 357.239 100.577H356.842V99.8637H357.239C357.433 99.8637 357.592 99.8237 357.719 99.7438C357.849 99.6597 357.914 99.5188 357.914 99.3211C357.914 99.1528 357.862 99.0204 357.757 98.9236C357.651 98.8227 357.485 98.7722 357.258 98.7722C357.031 98.7722 356.861 98.8185 356.747 98.911C356.633 99.0035 356.564 99.1234 356.539 99.2706L355.573 99.2201C355.616 98.8416 355.782 98.5387 356.072 98.3116C356.366 98.0803 356.762 97.9646 357.258 97.9646C357.611 97.9646 357.91 98.0151 358.154 98.116C358.398 98.217 358.583 98.3621 358.709 98.5514C358.835 98.7406 358.899 98.9636 358.899 99.2201C358.899 99.4851 358.81 99.7039 358.634 99.8763C358.461 100.049 358.211 100.167 357.883 100.23V100.122C358.257 100.177 358.545 100.305 358.747 100.507C358.949 100.709 359.05 100.97 359.05 101.29C359.05 101.571 358.976 101.815 358.829 102.021C358.682 102.223 358.476 102.379 358.211 102.488C357.946 102.594 357.632 102.646 357.271 102.646ZM361.538 102.646C361.143 102.646 360.802 102.554 360.516 102.369C360.23 102.179 360.009 101.91 359.854 101.561C359.702 101.212 359.627 100.795 359.627 100.312C359.627 99.8279 359.704 99.4115 359.86 99.0624C360.016 98.7091 360.234 98.4378 360.516 98.2485C360.802 98.0592 361.143 97.9646 361.538 97.9646C361.929 97.9646 362.266 98.0592 362.548 98.2485C362.834 98.4378 363.055 98.7091 363.21 99.0624C363.366 99.4115 363.444 99.8279 363.444 100.312C363.444 100.791 363.366 101.205 363.21 101.555C363.059 101.904 362.84 102.173 362.554 102.362C362.268 102.551 361.929 102.646 361.538 102.646ZM361.538 101.839C361.833 101.839 362.058 101.71 362.213 101.454C362.373 101.197 362.453 100.816 362.453 100.312C362.453 99.971 362.417 99.687 362.346 99.4599C362.279 99.2328 362.176 99.0624 362.037 98.9488C361.902 98.8311 361.736 98.7722 361.538 98.7722C361.336 98.7722 361.166 98.8311 361.027 98.9488C360.893 99.0624 360.79 99.2328 360.718 99.4599C360.651 99.687 360.617 99.971 360.617 100.312C360.617 100.816 360.695 101.197 360.851 101.454C361.01 101.71 361.24 101.839 361.538 101.839ZM366.12 102.545V101.693H363.893V100.93L365.937 98.0655H367.079V100.886H367.603V101.693H367.079V102.545H366.12ZM364.909 100.886H366.12V99.2454L364.909 100.886Z" fill="#151515"/>
<path d="M401.209 116.521V112.041H402.168V116.262L401.638 115.713H404.231V116.521H401.209ZM404.77 116.521V112.041H405.729V116.262L405.199 115.713H407.793V116.521H404.77ZM410.063 116.621C409.508 116.621 409.079 116.495 408.776 116.243C408.477 115.986 408.317 115.641 408.296 115.208L409.274 115.17C409.295 115.393 409.373 115.557 409.508 115.662C409.647 115.763 409.832 115.814 410.063 115.814C410.214 115.814 410.349 115.793 410.467 115.751C410.585 115.705 410.677 115.635 410.744 115.543C410.816 115.45 410.852 115.334 410.852 115.196C410.852 114.981 410.778 114.821 410.631 114.716C410.484 114.607 410.284 114.552 410.031 114.552H409.634V113.839H410.031C410.225 113.839 410.385 113.799 410.511 113.719C410.641 113.635 410.707 113.494 410.707 113.296C410.707 113.128 410.654 112.996 410.549 112.899C410.444 112.798 410.278 112.748 410.05 112.748C409.823 112.748 409.653 112.794 409.539 112.886C409.426 112.979 409.356 113.099 409.331 113.246L408.366 113.195C408.408 112.817 408.574 112.514 408.864 112.287C409.159 112.056 409.554 111.94 410.05 111.94C410.404 111.94 410.702 111.99 410.946 112.091C411.19 112.192 411.375 112.337 411.502 112.527C411.628 112.716 411.691 112.939 411.691 113.195C411.691 113.46 411.603 113.679 411.426 113.852C411.253 114.024 411.003 114.142 410.675 114.205V114.098C411.049 114.152 411.338 114.281 411.539 114.483C411.741 114.684 411.842 114.945 411.842 115.265C411.842 115.547 411.769 115.791 411.621 115.997C411.474 116.199 411.268 116.354 411.003 116.464C410.738 116.569 410.425 116.621 410.063 116.621ZM414.331 116.621C413.935 116.621 413.595 116.529 413.308 116.344C413.022 116.155 412.802 115.885 412.646 115.536C412.495 115.187 412.419 114.771 412.419 114.287C412.419 113.803 412.497 113.387 412.652 113.038C412.808 112.684 413.027 112.413 413.308 112.224C413.595 112.035 413.935 111.94 414.331 111.94C414.722 111.94 415.058 112.035 415.34 112.224C415.626 112.413 415.847 112.684 416.003 113.038C416.158 113.387 416.236 113.803 416.236 114.287C416.236 114.767 416.158 115.181 416.003 115.53C415.851 115.879 415.632 116.148 415.346 116.338C415.06 116.527 414.722 116.621 414.331 116.621ZM414.331 115.814C414.625 115.814 414.85 115.686 415.006 115.429C415.166 115.172 415.245 114.792 415.245 114.287C415.245 113.946 415.21 113.662 415.138 113.435C415.071 113.208 414.968 113.038 414.829 112.924C414.694 112.806 414.528 112.748 414.331 112.748C414.129 112.748 413.958 112.806 413.82 112.924C413.685 113.038 413.582 113.208 413.51 113.435C413.443 113.662 413.409 113.946 413.409 114.287C413.409 114.792 413.487 115.172 413.643 115.429C413.803 115.686 414.032 115.814 414.331 115.814ZM418.629 116.621C418.246 116.621 417.924 116.539 417.663 116.375C417.407 116.211 417.213 115.976 417.083 115.669C416.952 115.357 416.887 114.983 416.887 114.546C416.887 114.171 416.925 113.826 417.001 113.511C417.077 113.191 417.19 112.916 417.342 112.684C417.497 112.449 417.695 112.266 417.935 112.136C418.174 112.005 418.456 111.94 418.78 111.94C419.218 111.94 419.562 112.045 419.815 112.255C420.071 112.466 420.242 112.752 420.326 113.113L419.436 113.177C419.386 113.038 419.312 112.928 419.215 112.848C419.119 112.769 418.974 112.729 418.78 112.729C418.486 112.729 418.254 112.857 418.086 113.113C417.918 113.37 417.823 113.765 417.802 114.3L417.67 114.274C417.716 114.152 417.79 114.039 417.89 113.934C417.991 113.829 418.12 113.744 418.275 113.681C418.435 113.614 418.62 113.58 418.831 113.58C419.133 113.58 419.398 113.641 419.626 113.763C419.857 113.885 420.034 114.056 420.156 114.274C420.282 114.493 420.345 114.75 420.345 115.044C420.345 115.381 420.273 115.667 420.13 115.902C419.987 116.134 419.787 116.312 419.531 116.438C419.274 116.56 418.974 116.621 418.629 116.621ZM418.622 115.858C418.854 115.858 419.039 115.787 419.178 115.644C419.321 115.496 419.392 115.301 419.392 115.057C419.392 114.897 419.361 114.758 419.297 114.64C419.239 114.523 419.152 114.43 419.039 114.363C418.929 114.295 418.801 114.262 418.654 114.262C418.498 114.262 418.359 114.295 418.237 114.363C418.115 114.43 418.021 114.523 417.954 114.64C417.886 114.758 417.853 114.897 417.853 115.057C417.853 115.212 417.884 115.351 417.947 115.473C418.01 115.595 418.099 115.69 418.212 115.757C418.33 115.824 418.467 115.858 418.622 115.858Z" fill="#151515"/>
<path d="M60.0197 37.5942H121.782C125.267 37.5942 128.091 40.419 128.091 43.9036V86.1562C128.091 89.6407 125.267 92.4655 121.782 92.4655H112.24V125.388H126.66C130.144 125.388 132.969 128.213 132.969 131.698V142.247C132.969 145.731 130.144 148.556 126.66 148.556H84.1944H60.0197C56.5352 148.556 53.7104 145.731 53.7104 142.247V92.4655V43.9036C53.7104 40.419 56.5352 37.5942 60.0197 37.5942Z" fill="#CAE8F2"/>
<path d="M112.24 92.4655H121.782C125.267 92.4655 128.091 89.6407 128.091 86.1562V43.9036C128.091 40.419 125.267 37.5942 121.782 37.5942H60.0197C56.5352 37.5942 53.7104 40.419 53.7104 43.9036V92.4655M112.24 92.4655V125.388M112.24 92.4655H84.1944M112.24 125.388H126.66C130.144 125.388 132.969 128.213 132.969 131.698V142.247C132.969 145.731 130.144 148.556 126.66 148.556H84.1944M112.24 125.388H84.1944M53.7104 92.4655V142.247C53.7104 145.731 56.5352 148.556 60.0197 148.556H84.1944M53.7104 92.4655H84.1944M84.1944 92.4655V148.556" stroke="black" stroke-width="1.26187"/>
<path d="M112.24 92.4655H121.782C125.267 92.4655 128.091 89.6407 128.091 86.1562V43.9036C128.091 40.419 125.267 37.5942 121.782 37.5942H60.0197C56.5352 37.5942 53.7104 40.419 53.7104 43.9036V92.4655M112.24 92.4655V125.388M112.24 92.4655H84.1944M112.24 125.388H126.66C130.144 125.388 132.969 128.213 132.969 131.698V142.247C132.969 145.731 130.144 148.556 126.66 148.556H84.1944M112.24 125.388H84.1944M53.7104 92.4655V142.247C53.7104 145.731 56.5352 148.556 60.0197 148.556H84.1944M53.7104 92.4655H84.1944M84.1944 92.4655V148.556" stroke="black" stroke-opacity="0.2" stroke-width="1.26187"/>
<path d="M77.1954 126.213C77.1954 126.523 77.1433 126.789 77.0389 127.011C76.9346 127.233 76.7883 127.406 76.5998 127.531C76.4114 127.655 76.1893 127.726 75.9335 127.743L75.8982 126.97C76.0395 126.95 76.1607 126.91 76.2616 126.849C76.3592 126.785 76.4332 126.701 76.4837 126.597C76.5342 126.489 76.5594 126.358 76.5594 126.203C76.5594 126.075 76.5443 125.968 76.514 125.88C76.4837 125.789 76.4383 125.72 76.3777 125.673C76.3138 125.626 76.2364 125.602 76.1455 125.602C76.0614 125.602 75.9891 125.623 75.9285 125.663C75.8646 125.703 75.8074 125.781 75.7569 125.895C75.703 126.01 75.6509 126.178 75.6004 126.4C75.5298 126.706 75.4507 126.953 75.3632 127.142C75.2757 127.327 75.1663 127.462 75.0351 127.546C74.9005 127.63 74.7323 127.672 74.5304 127.672C74.315 127.672 74.1266 127.62 73.965 127.515C73.8035 127.408 73.6773 127.253 73.5865 127.051C73.4956 126.849 73.4502 126.609 73.4502 126.329C73.4502 126.033 73.5024 125.782 73.6067 125.577C73.711 125.372 73.854 125.212 74.0357 125.098C74.2174 124.98 74.426 124.909 74.6616 124.886L74.702 125.653C74.5775 125.663 74.4698 125.697 74.3789 125.754C74.2847 125.811 74.2124 125.888 74.1619 125.986C74.1114 126.084 74.0862 126.201 74.0862 126.339C74.0862 126.514 74.1249 126.652 74.2023 126.753C74.2797 126.851 74.3806 126.9 74.5051 126.9C74.5926 126.9 74.6666 126.878 74.7272 126.834C74.7844 126.787 74.8349 126.711 74.8786 126.607C74.9224 126.499 74.9644 126.348 75.0048 126.153C75.0721 125.819 75.1579 125.557 75.2622 125.365C75.3632 125.17 75.4843 125.032 75.6257 124.951C75.767 124.871 75.9285 124.83 76.1102 124.83C76.3323 124.83 76.5258 124.887 76.6907 125.002C76.8522 125.113 76.9767 125.273 77.0642 125.481C77.1517 125.687 77.1954 125.931 77.1954 126.213ZM77.1147 123.646H74.177V124.716H73.531V121.799H74.177V122.874H77.1147V123.646ZM77.1147 122.157L73.531 120.865V119.956L77.1147 118.664V119.461L76.3525 119.724V121.102L77.1147 121.364V122.157ZM75.7216 120.885V119.936L74.3385 120.41L75.7216 120.885ZM77.1147 118.32H73.531V117.553H77.1147V118.32ZM77.1147 116.876H73.531V115.306C73.531 115.044 73.5747 114.817 73.6622 114.625C73.7497 114.43 73.8742 114.28 74.0357 114.176C74.1939 114.071 74.3823 114.019 74.601 114.019C74.7659 114.019 74.9123 114.055 75.0401 114.125C75.168 114.193 75.2723 114.287 75.3531 114.408C75.4338 114.526 75.4843 114.662 75.5045 114.817L75.4591 114.832C75.4591 114.593 75.5112 114.411 75.6156 114.287C75.7165 114.162 75.873 114.092 76.085 114.075L77.1147 113.984V114.766L76.2061 114.832C76.0681 114.842 75.9672 114.886 75.9033 114.963C75.836 115.037 75.8023 115.165 75.8023 115.347V116.109H77.1147V116.876ZM75.1613 116.109V115.392C75.1613 115.207 75.1192 115.064 75.0351 114.963C74.9476 114.859 74.8248 114.807 74.6666 114.807C74.5051 114.807 74.384 114.859 74.3032 114.963C74.2191 115.067 74.177 115.219 74.177 115.417V116.109H75.1613ZM77.1954 112.012C77.1954 112.322 77.1433 112.588 77.0389 112.81C76.9346 113.032 76.7883 113.205 76.5998 113.33C76.4114 113.454 76.1893 113.525 75.9335 113.542L75.8982 112.769C76.0395 112.749 76.1607 112.709 76.2616 112.648C76.3592 112.584 76.4332 112.5 76.4837 112.396C76.5342 112.288 76.5594 112.157 76.5594 112.002C76.5594 111.874 76.5443 111.767 76.514 111.679C76.4837 111.588 76.4383 111.519 76.3777 111.472C76.3138 111.425 76.2364 111.402 76.1455 111.402C76.0614 111.402 75.9891 111.422 75.9285 111.462C75.8646 111.502 75.8074 111.58 75.7569 111.694C75.703 111.809 75.6509 111.977 75.6004 112.199C75.5298 112.505 75.4507 112.753 75.3632 112.941C75.2757 113.126 75.1663 113.261 75.0351 113.345C74.9005 113.429 74.7323 113.471 74.5304 113.471C74.315 113.471 74.1266 113.419 73.965 113.315C73.8035 113.207 73.6773 113.052 73.5865 112.85C73.4956 112.648 73.4502 112.408 73.4502 112.128C73.4502 111.832 73.5024 111.582 73.6067 111.376C73.711 111.171 73.854 111.011 74.0357 110.897C74.2174 110.779 74.426 110.708 74.6616 110.685L74.702 111.452C74.5775 111.462 74.4698 111.496 74.3789 111.553C74.2847 111.61 74.2124 111.688 74.1619 111.785C74.1114 111.883 74.0862 112 74.0862 112.138C74.0862 112.313 74.1249 112.451 74.2023 112.552C74.2797 112.65 74.3806 112.699 74.5051 112.699C74.5926 112.699 74.6666 112.677 74.7272 112.633C74.7844 112.586 74.8349 112.51 74.8786 112.406C74.9224 112.298 74.9644 112.147 75.0048 111.952C75.0721 111.619 75.1579 111.356 75.2622 111.164C75.3632 110.969 75.4843 110.831 75.6257 110.75C75.767 110.67 75.9285 110.629 76.1102 110.629C76.3323 110.629 76.5258 110.686 76.6907 110.801C76.8522 110.912 76.9767 111.072 77.0642 111.28C77.1517 111.486 77.1954 111.73 77.1954 112.012Z" fill="#151515"/>
<path d="M146.318 163.179L161.663 182.908L167.076 177.177L172.488 171.446L178.503 165.078L180.638 162.817C181.578 161.821 182.887 161.257 184.257 161.257H187.524H192.937H197.748C201.415 161.257 203.322 165.625 200.83 168.315L197.748 171.639L191.763 178.097L185.72 184.617L179.705 191.106L173.926 197.342L165.702 206.215C163.596 208.488 159.948 208.305 158.079 205.833L156.544 203.804L154.446 201.028L130.41 169.239C127.93 165.959 130.27 161.257 134.382 161.257H142.388C143.924 161.257 145.375 161.966 146.318 163.179Z" fill="#CAE8F2"/>
<path d="M161.663 182.908L146.318 163.179C145.375 161.966 143.924 161.257 142.388 161.257H134.382C130.27 161.257 127.93 165.959 130.41 169.239L154.446 201.028M161.663 182.908L167.076 177.177M161.663 182.908L173.926 197.342M192.937 161.257L154.446 201.028M192.937 161.257H197.748M192.937 161.257H187.524M154.446 201.028L156.544 203.804M197.748 161.257L156.544 203.804M197.748 161.257C201.415 161.257 203.322 165.625 200.83 168.315L197.748 171.639M156.544 203.804L158.079 205.833C159.948 208.305 163.596 208.488 165.702 206.215L173.926 197.342M187.524 161.257H184.257C182.887 161.257 181.578 161.821 180.638 162.817L178.503 165.078M187.524 161.257L197.748 171.639M197.748 171.639L191.763 178.097M178.503 165.078L191.763 178.097M178.503 165.078L172.488 171.446M191.763 178.097L185.72 184.617M172.488 171.446L185.72 184.617M172.488 171.446L167.076 177.177M185.72 184.617L179.705 191.106M167.076 177.177L179.705 191.106M179.705 191.106L173.926 197.342" stroke="black" stroke-width="1.26187"/>
<path d="M70.5556 129.272V139.259C70.5556 139.68 70.2148 140.02 69.7945 140.02H68.2457C67.8254 140.02 67.4846 139.68 67.4846 139.259V99.3231C67.4846 98.9027 67.8254 98.562 68.2457 98.562H69.7945C70.2148 98.562 70.5556 98.9027 70.5556 99.3231V106.239M70.5556 129.272H59.8072M70.5556 129.272V121.594M59.8072 129.272V136.188C59.8072 136.609 60.1479 136.949 60.5682 136.949H77.472C77.8923 136.949 78.2331 136.609 78.2331 136.188V100.859C78.2331 100.438 77.8923 100.097 77.472 100.097H60.5682C60.1479 100.097 59.8072 100.438 59.8072 100.859V106.239M59.8072 129.272V121.594M70.5556 121.594H59.8072M70.5556 121.594V113.917M59.8072 121.594V113.917M70.5556 113.917H59.8072M70.5556 113.917V106.239M59.8072 113.917V106.239M70.5556 106.239H59.8072" stroke="black" stroke-width="1.26187"/>
<path d="M141.015 173.956C140.786 173.644 140.642 173.337 140.583 173.036C140.524 172.735 140.544 172.452 140.642 172.187C140.739 171.923 140.911 171.687 141.157 171.481L141.763 172.234C141.635 172.359 141.543 172.489 141.486 172.624C141.435 172.761 141.422 172.901 141.449 173.043C141.477 173.189 141.549 173.34 141.663 173.496C141.758 173.625 141.853 173.722 141.948 173.788C142.045 173.857 142.142 173.893 142.238 173.896C142.337 173.896 142.433 173.863 142.524 173.796C142.609 173.733 142.667 173.66 142.698 173.574C142.733 173.486 142.733 173.366 142.7 173.213C142.67 173.058 142.598 172.85 142.485 172.589C142.33 172.228 142.226 171.92 142.175 171.665C142.127 171.414 142.138 171.198 142.208 171.016C142.281 170.832 142.42 170.665 142.623 170.516C142.841 170.356 143.069 170.27 143.309 170.256C143.551 170.245 143.793 170.308 144.034 170.444C144.275 170.58 144.498 170.789 144.705 171.071C144.923 171.37 145.056 171.661 145.103 171.945C145.149 172.229 145.123 172.496 145.024 172.745C144.928 172.998 144.77 173.224 144.55 173.422L143.942 172.678C144.06 172.576 144.144 172.462 144.193 172.337C144.246 172.21 144.262 172.079 144.241 171.943C144.22 171.807 144.158 171.67 144.056 171.531C143.927 171.354 143.786 171.244 143.633 171.199C143.483 171.158 143.345 171.184 143.22 171.276C143.131 171.34 143.073 171.417 143.044 171.506C143.021 171.596 143.026 171.709 143.059 171.847C143.095 171.988 143.164 172.171 143.268 172.398C143.446 172.784 143.554 173.112 143.59 173.382C143.633 173.653 143.612 173.882 143.53 174.068C143.447 174.254 143.314 174.414 143.131 174.548C142.907 174.712 142.669 174.797 142.419 174.804C142.174 174.811 141.93 174.742 141.688 174.597C141.448 174.454 141.223 174.241 141.015 173.956ZM142.993 176.484L145.955 174.313L145.164 173.235L145.815 172.757L147.971 175.698L147.32 176.176L146.525 175.092L143.564 177.263L142.993 176.484ZM144.094 177.986L148.661 176.64L149.333 177.556L146.675 181.507L146.085 180.703L146.66 179.875L145.641 178.486L144.679 178.784L144.094 177.986ZM146.438 178.238L147.139 179.195L148.183 177.695L146.438 178.238ZM146.929 181.853L150.542 179.205L151.109 179.979L147.495 182.627L146.929 181.853ZM147.996 183.309L151.609 180.661L152.769 182.244C152.963 182.508 153.087 182.77 153.14 183.028C153.196 183.289 153.181 183.532 153.095 183.757C153.013 183.979 152.862 184.171 152.641 184.332C152.475 184.454 152.301 184.527 152.12 184.55C151.941 184.576 151.767 184.559 151.596 184.496C151.427 184.437 151.276 184.337 151.141 184.196L151.176 184.147C151.352 184.388 151.434 184.61 151.421 184.812C151.411 185.012 151.305 185.199 151.104 185.373L150.133 186.225L149.555 185.437L150.422 184.699C150.554 184.587 150.623 184.468 150.631 184.343C150.644 184.219 150.583 184.065 150.449 183.882L149.886 183.113L148.563 184.083L147.996 183.309ZM150.532 182.639L151.062 183.362C151.199 183.549 151.347 183.662 151.506 183.701C151.671 183.742 151.834 183.704 151.993 183.587C152.156 183.467 152.24 183.325 152.244 183.161C152.252 182.993 152.182 182.809 152.035 182.609L151.524 181.912L150.532 182.639ZM151.509 188.273C151.28 187.961 151.136 187.654 151.077 187.353C151.018 187.052 151.038 186.769 151.136 186.504C151.234 186.24 151.405 186.004 151.651 185.798L152.257 186.551C152.129 186.676 152.037 186.806 151.98 186.942C151.929 187.078 151.916 187.218 151.943 187.36C151.971 187.506 152.043 187.657 152.157 187.813C152.252 187.942 152.347 188.039 152.442 188.105C152.539 188.174 152.636 188.21 152.732 188.213C152.831 188.213 152.927 188.18 153.018 188.113C153.103 188.05 153.161 187.977 153.192 187.891C153.227 187.803 153.228 187.683 153.194 187.53C153.164 187.375 153.092 187.167 152.979 186.906C152.824 186.545 152.721 186.237 152.67 185.982C152.621 185.731 152.632 185.515 152.702 185.333C152.775 185.149 152.914 184.982 153.118 184.833C153.335 184.674 153.563 184.587 153.803 184.573C154.045 184.562 154.287 184.625 154.528 184.761C154.769 184.898 154.992 185.107 155.199 185.388C155.417 185.687 155.55 185.978 155.597 186.262C155.643 186.546 155.617 186.813 155.518 187.062C155.422 187.315 155.264 187.541 155.044 187.739L154.436 186.995C154.555 186.893 154.638 186.779 154.688 186.655C154.74 186.527 154.756 186.396 154.735 186.26C154.714 186.124 154.652 185.987 154.55 185.848C154.421 185.671 154.28 185.561 154.127 185.516C153.977 185.475 153.839 185.501 153.714 185.593C153.625 185.657 153.567 185.734 153.538 185.823C153.515 185.913 153.52 186.026 153.553 186.164C153.589 186.305 153.658 186.488 153.762 186.715C153.94 187.101 154.048 187.429 154.084 187.699C154.127 187.97 154.106 188.199 154.024 188.385C153.941 188.571 153.808 188.731 153.625 188.865C153.401 189.029 153.163 189.115 152.913 189.121C152.668 189.128 152.424 189.059 152.182 188.914C151.942 188.771 151.717 188.558 151.509 188.273Z" fill="#151515"/>
</svg>
