<svg width="1845" height="529" viewBox="0 0 1845 529" fill="none" xmlns="http://www.w3.org/2000/svg">
<path d="M542.5 0C616.782 0 677 59.678 677 133.294C677 206.91 616.782 266.588 542.5 266.588C468.218 266.588 408 206.91 408 133.294C408 59.678 468.218 0 542.5 0ZM542 31C484.562 31 438 76.8908 438 133.5C438 190.109 484.562 236 542 236C599.438 236 646 190.109 646 133.5C646 76.8908 599.438 31 542 31Z" fill="#223F43"/>
<path d="M443.073 469V295.724H518.972C531.663 295.724 542.645 297.839 551.919 302.069C561.356 306.3 568.596 312.319 573.64 320.129C578.683 327.776 581.205 336.887 581.205 347.463C581.205 355.435 579.497 362.513 576.08 368.695C572.826 374.878 568.271 379.922 562.413 383.826C556.719 387.731 550.13 390.172 542.645 391.148L541.913 388.951C553.465 388.951 562.251 391.473 568.271 396.517C574.291 401.398 577.707 408.964 578.521 419.214L582.914 469H545.086L541.913 425.071C541.425 418.4 539.31 413.519 535.568 410.428C531.988 407.174 525.806 405.547 517.02 405.547H480.168V469H443.073ZM480.168 374.552H514.824C523.772 374.552 530.687 372.519 535.568 368.451C540.612 364.221 543.133 358.282 543.133 350.635C543.133 342.826 540.612 336.969 535.568 333.064C530.524 328.996 523.203 326.963 513.603 326.963H480.168V374.552ZM666.303 471.929C652.961 471.929 641.328 469.163 631.403 463.631C621.479 457.936 613.75 449.964 608.219 439.714C602.687 429.464 599.921 417.424 599.921 403.594C599.921 389.765 602.687 377.806 608.219 367.719C613.75 357.469 621.479 349.497 631.403 343.802C641.328 338.108 652.961 335.26 666.303 335.26C679.644 335.26 691.277 338.108 701.202 343.802C711.127 349.497 718.855 357.469 724.387 367.719C729.919 377.806 732.684 389.765 732.684 403.594C732.684 417.424 729.919 429.464 724.387 439.714C718.855 449.964 711.127 457.936 701.202 463.631C691.277 469.163 679.644 471.929 666.303 471.929ZM666.303 443.863C675.414 443.863 682.491 440.365 687.535 433.369C692.579 426.21 695.101 416.285 695.101 403.594C695.101 390.904 692.579 381.06 687.535 374.064C682.491 366.905 675.414 363.326 666.303 363.326C657.191 363.326 650.114 366.905 645.07 374.064C640.027 381.06 637.505 390.904 637.505 403.594C637.505 416.285 640.027 426.21 645.07 433.369C650.114 440.365 657.191 443.863 666.303 443.863ZM814.783 471.929C801.441 471.929 789.808 469.163 779.883 463.631C769.959 457.936 762.23 449.964 756.699 439.714C751.167 429.464 748.401 417.424 748.401 403.594C748.401 389.765 751.167 377.806 756.699 367.719C762.23 357.469 769.959 349.497 779.883 343.802C789.808 338.108 801.441 335.26 814.783 335.26C828.124 335.26 839.757 338.108 849.682 343.802C859.607 349.497 867.335 357.469 872.867 367.719C878.399 377.806 881.164 389.765 881.164 403.594C881.164 417.424 878.399 429.464 872.867 439.714C867.335 449.964 859.607 457.936 849.682 463.631C839.757 469.163 828.124 471.929 814.783 471.929ZM814.783 443.863C823.894 443.863 830.971 440.365 836.015 433.369C841.059 426.21 843.581 416.285 843.581 403.594C843.581 390.904 841.059 381.06 836.015 374.064C830.971 366.905 823.894 363.326 814.783 363.326C805.671 363.326 798.594 366.905 793.55 374.064C788.507 381.06 785.985 390.904 785.985 403.594C785.985 416.285 788.507 426.21 793.55 433.369C798.594 440.365 805.671 443.863 814.783 443.863ZM903.958 469V338.189H936.905L938.126 369.671L934.709 368.207C936.499 361.211 939.183 355.272 942.762 350.391C946.505 345.51 950.979 341.768 956.185 339.165C961.392 336.562 967.086 335.26 973.269 335.26C984.17 335.26 992.956 338.433 999.626 344.778C1006.46 351.124 1010.85 359.665 1012.81 370.404L1008.17 370.648C1009.63 363.001 1012.15 356.574 1015.73 351.368C1019.48 345.998 1024.03 342.012 1029.4 339.409C1034.77 336.643 1040.79 335.26 1047.46 335.26C1056.57 335.26 1064.38 337.131 1070.89 340.873C1077.4 344.616 1082.44 350.229 1086.02 357.713C1089.6 365.034 1091.39 374.064 1091.39 384.803V469H1054.78V395.053C1054.78 384.803 1053.24 377.156 1050.14 372.112C1047.05 366.905 1042.01 364.302 1035.01 364.302C1030.62 364.302 1026.88 365.523 1023.79 367.963C1020.7 370.404 1018.26 373.983 1016.47 378.701C1014.84 383.257 1014.03 388.87 1014.03 395.541V469H981.078V395.541C981.078 385.453 979.614 377.725 976.686 372.356C973.757 366.987 968.713 364.302 961.554 364.302C957.161 364.302 953.338 365.523 950.084 367.963C946.993 370.404 944.634 373.983 943.007 378.701C941.38 383.42 940.566 389.033 940.566 395.541V469H903.958ZM1121.55 469V338.189H1158.16V469H1121.55ZM1120.82 322.082V292.795H1158.65V322.082H1120.82ZM1260.57 472.905C1243.81 472.905 1229.5 469.081 1217.62 461.434C1205.74 453.788 1196.55 443.212 1190.04 429.708C1183.7 416.041 1180.52 400.34 1180.52 382.606C1180.52 365.197 1183.78 349.659 1190.29 335.992C1196.79 322.326 1206.15 311.587 1218.35 303.778C1230.72 295.805 1245.52 291.819 1262.77 291.819C1277.74 291.819 1290.35 294.341 1300.6 299.385C1311.01 304.266 1319.31 311.262 1325.49 320.373C1331.67 329.484 1335.98 340.223 1338.42 352.588L1300.11 354.296C1298.32 344.697 1294.49 337.131 1288.64 331.599C1282.94 325.905 1274.4 323.058 1263.01 323.058C1253.09 323.058 1244.79 325.661 1238.12 330.867C1231.61 336.074 1226.73 343.151 1223.48 352.1C1220.38 361.048 1218.84 371.217 1218.84 382.606C1218.84 394.158 1220.38 404.408 1223.48 413.356C1226.73 422.142 1231.61 429.057 1238.12 434.101C1244.79 439.144 1253.33 441.666 1263.74 441.666C1271.39 441.666 1277.98 440.121 1283.51 437.029C1289.21 433.938 1293.6 429.708 1296.69 424.339C1299.95 418.97 1301.9 412.868 1302.55 406.035H1263.01V378.945H1338.91V469H1315.97L1314.02 431.904L1318.41 433.857C1316.78 441.504 1313.21 448.256 1307.67 454.113C1302.14 459.97 1295.31 464.607 1287.17 468.024C1279.2 471.278 1270.33 472.905 1260.57 472.905ZM1404.65 471.929C1391.14 471.929 1380.08 468.837 1371.46 462.655C1363 456.309 1358.77 447.524 1358.77 436.297C1358.77 424.745 1362.35 415.878 1369.5 409.696C1376.83 403.35 1387.56 398.713 1401.72 395.785L1443.94 387.487C1443.94 379.027 1441.99 372.681 1438.08 368.451C1434.34 364.058 1428.89 361.862 1421.73 361.862C1414.73 361.862 1409.28 363.489 1405.38 366.743C1401.47 369.834 1398.95 374.471 1397.81 380.654L1360.96 378.945C1363.4 364.628 1369.83 353.808 1380.24 346.487C1390.82 339.002 1404.65 335.26 1421.73 335.26C1441.25 335.26 1455.9 339.897 1465.66 349.171C1475.58 358.445 1480.55 372.031 1480.55 389.928V434.589C1480.55 438.331 1481.12 440.853 1482.26 442.154C1483.56 443.293 1485.43 443.863 1487.87 443.863H1491.53V469C1490.39 469.325 1488.52 469.651 1485.92 469.976C1483.48 470.302 1481.04 470.464 1478.59 470.464C1473.39 470.464 1468.51 469.569 1463.95 467.78C1459.56 465.99 1455.98 462.98 1453.21 458.75C1450.45 454.357 1449.06 448.174 1449.06 440.202L1452.24 442.643C1450.61 448.5 1447.68 453.625 1443.45 458.018C1439.38 462.411 1434.01 465.827 1427.34 468.268C1420.84 470.708 1413.27 471.929 1404.65 471.929ZM1413.43 446.791C1419.45 446.791 1424.74 445.652 1429.3 443.375C1433.85 440.934 1437.43 437.436 1440.03 432.881C1442.64 428.325 1443.94 422.956 1443.94 416.773V410.428L1414.17 416.773C1408.31 417.912 1403.83 419.864 1400.74 422.63C1397.81 425.234 1396.35 428.65 1396.35 432.881C1396.35 437.273 1397.81 440.69 1400.74 443.131C1403.67 445.571 1407.9 446.791 1413.43 446.791ZM1557.78 469C1544.27 469 1534.35 465.909 1528 459.726C1521.66 453.381 1518.49 443.375 1518.49 429.708V307.438H1555.09V425.315C1555.09 431.66 1556.39 435.972 1559 438.25C1561.76 440.527 1565.83 441.666 1571.2 441.666H1589.5V469H1557.78ZM1497.5 365.523V338.189H1589.5V365.523H1497.5ZM1668.24 471.929C1654.9 471.929 1643.27 469.163 1633.35 463.631C1623.42 457.936 1615.69 449.964 1610.16 439.714C1604.63 429.464 1601.86 417.424 1601.86 403.594C1601.86 389.765 1604.63 377.806 1610.16 367.719C1615.69 357.469 1623.42 349.497 1633.35 343.802C1643.27 338.108 1654.9 335.26 1668.24 335.26C1681.59 335.26 1693.22 338.108 1703.14 343.802C1713.07 349.497 1720.8 357.469 1726.33 367.719C1731.86 377.806 1734.63 389.765 1734.63 403.594C1734.63 417.424 1731.86 429.464 1726.33 439.714C1720.8 449.964 1713.07 457.936 1703.14 463.631C1693.22 469.163 1681.59 471.929 1668.24 471.929ZM1668.24 443.863C1677.36 443.863 1684.43 440.365 1689.48 433.369C1694.52 426.21 1697.04 416.285 1697.04 403.594C1697.04 390.904 1694.52 381.06 1689.48 374.064C1684.43 366.905 1677.36 363.326 1668.24 363.326C1659.13 363.326 1652.06 366.905 1647.01 374.064C1641.97 381.06 1639.45 390.904 1639.45 403.594C1639.45 416.285 1641.97 426.21 1647.01 433.369C1652.06 440.365 1659.13 443.863 1668.24 443.863ZM1757.42 469V338.189H1792.08L1793.3 376.261L1790.61 375.529C1792.73 362.35 1796.47 352.832 1801.84 346.975C1807.21 341.117 1814.61 338.189 1824.05 338.189H1836V368.451H1824.05C1817.21 368.451 1811.6 369.346 1807.21 371.136C1802.81 372.925 1799.48 375.773 1797.2 379.677C1795.09 383.582 1794.03 388.87 1794.03 395.541V469H1757.42Z" fill="#3F95B2"/>
<path d="M373.911 271.551C335.406 278.778 315.771 262.957 310.767 254.144L297.109 277.348C320.131 312.74 362.616 307.509 380.98 300.47C394.668 287.819 412.417 264.325 373.911 271.551Z" fill="#66B4CE"/>
<path d="M191.5 175.5C137.9 160.3 156 140.5 191.5 140.5L216 184.5L185 368L57 379.5L41.8348 357.479C34.5295 365.885 29.7336 370.82 40.7997 355.976L20.5 326.5C48.3934 301.543 52.0404 325.191 50.1347 343.68C77.2725 308.926 88.35 336.308 90.5 354.5C98.4656 306.707 127.912 340.209 141.327 360.241C106.028 307.334 145.373 317.691 170 332.5C125.2 294.1 161.333 291.5 185 295C138.2 270.2 169.833 257.667 191.5 254.5C133.5 240.5 167.333 220.333 191.5 212C122.3 194.4 162.667 180.333 191.5 175.5Z" fill="#3F95B2"/>
<path d="M307 87C331.853 87 352 110.505 352 139.5C352 141.935 351.997 144.331 351.971 146.678C380.719 148.371 408.15 150.412 429.5 152.83C456.495 155.887 450.498 210.5 429.5 222.5C405.143 227.103 375.327 240.771 343.23 252.604C373.223 395.647 336.144 404.965 311.405 411.182L311.198 411.234V460H262.812V417L234.877 422V460H182C182 460 182.473 449.363 183.133 432.684C95.6165 454.865 17.8563 384.314 0 297C101.708 404.165 186.184 342.964 184.064 250.174C184.043 250.159 184.021 250.144 184 250.129C184 201.04 184 153.005 184 142.235C183.894 139.936 183.892 137.525 184 135C184 108.49 202.147 87 227 87C244.865 87 260.298 98.105 267.564 114.196C275.223 97.9841 290.011 87 307 87Z" fill="#66B4CE"/>
<path d="M264 136.5C264 155.002 249.818 170 232.324 170C214.831 170 201.001 160.927 202.057 136.5C202.057 117.998 214.831 103 232.324 103C249.818 103 264 117.998 264 136.5Z" fill="white"/>
<path d="M342 134.5C342 153.002 327.818 168 310.324 168C292.831 168 279.001 158.927 280.057 134.5C280.057 115.998 292.831 101 310.324 101C327.818 101 342 115.998 342 134.5Z" fill="white"/>
<path d="M283 264.5C305 267.5 315.5 263.5 336 254C362.5 390.5 348.5 408.5 259.5 408.5C259.5 408.5 286.5 358.5 283 264.5Z" fill="#D0CAF2"/>
<path d="M333 317.193L456.418 209L474 235.8L349.203 343L333 317.193Z" fill="#223F43"/>
<path d="M354.073 316.501C315.799 324.866 271.966 318.146 266.703 309.485L253.739 333.084C277.799 367.778 343.847 352.778 361.995 345.198C375.302 332.147 392.347 308.137 354.073 316.501Z" fill="#66B4CE"/>
<ellipse cx="239.5" cy="140.5" rx="19.5" ry="23.5" fill="#3F95B2"/>
<ellipse cx="317.5" cy="138" rx="20.5" ry="24" fill="#3F95B2"/>
<ellipse cx="408.081" cy="160.551" rx="13.498" ry="23.3619" transform="rotate(-6.68011 408.081 160.551)" fill="#66B4CE"/>
<path d="M445.207 156.203C450.28 199.516 441.922 180.109 434.518 180.977C427.114 181.844 419.895 172.158 418.394 159.343C416.893 146.529 421.679 135.437 429.083 134.57C436.487 133.703 443.706 143.388 445.207 156.203Z" fill="#66B4CE"/>
<ellipse cx="431.954" cy="154.619" rx="5.71069" ry="9.86392" transform="rotate(-6.68011 431.954 154.619)" fill="white"/>
<ellipse cx="408.235" cy="157.397" rx="5.71069" ry="9.86392" transform="rotate(-6.68011 408.235 157.397)" fill="white"/>
<path d="M446 184.5C409 184.5 308.815 208.5 276.5 208.5C261 208.5 238 206 226 188.5" stroke="#3F95B2" stroke-width="6" stroke-linecap="round"/>
</svg>
