<svg width="318" height="84" viewBox="0 0 318 84" fill="none" xmlns="http://www.w3.org/2000/svg">
<path d="M9.85742 2.02441H308.143C312.468 2.02441 315.976 5.53168 315.976 9.85742V74.1426C315.976 78.4683 312.468 81.9756 308.143 81.9756H9.85742C5.53168 81.9756 2.02441 78.4683 2.02441 74.1426V9.85742C2.02441 5.53168 5.53168 2.02441 9.85742 2.02441Z" fill="#FBCC58"/>
<path d="M9.85742 2.02441H308.143C312.468 2.02441 315.976 5.53168 315.976 9.85742V74.1426C315.976 78.4683 312.468 81.9756 308.143 81.9756H9.85742C5.53168 81.9756 2.02441 78.4683 2.02441 74.1426V9.85742C2.02441 5.53168 5.53168 2.02441 9.85742 2.02441Z" stroke="black" stroke-width="4.04939"/>
<path d="M39.6798 55.0464C37.7446 55.0464 36.0598 54.6935 34.6254 53.9877C33.2138 53.2819 32.0982 52.3029 31.2785 51.0507C30.4589 49.7985 29.9808 48.3413 29.8442 46.6793L33.635 46.4402C33.7944 47.5786 34.1245 48.5463 34.6254 49.3431C35.1263 50.1172 35.7979 50.7092 36.6403 51.119C37.5055 51.5061 38.5414 51.6996 39.7481 51.6996C40.7954 51.6996 41.6834 51.5744 42.4119 51.3239C43.1633 51.0507 43.7325 50.6523 44.1195 50.1286C44.5066 49.6049 44.7001 48.9675 44.7001 48.2161C44.7001 47.5331 44.5293 46.9297 44.1878 46.4061C43.8691 45.8597 43.243 45.3702 42.3095 44.9376C41.3988 44.4822 40.0555 44.0383 38.2796 43.6057C36.3444 43.1275 34.7962 42.6039 33.635 42.0347C32.4738 41.4655 31.6314 40.7597 31.1078 39.9173C30.6069 39.0521 30.3565 37.9934 30.3565 36.7412C30.3565 35.3524 30.6866 34.1343 31.3468 33.087C32.0299 32.0169 32.9975 31.1859 34.2497 30.5939C35.5019 30.002 37.0046 29.706 38.7577 29.706C40.6019 29.706 42.1729 30.0475 43.4706 30.7305C44.7912 31.4136 45.8271 32.347 46.5784 33.531C47.3525 34.7149 47.8306 36.0696 48.0128 37.595L44.222 37.7999C44.1081 36.8664 43.8235 36.0468 43.3682 35.341C42.9128 34.6124 42.2981 34.0546 41.524 33.6676C40.7499 33.2578 39.805 33.0528 38.6894 33.0528C37.2778 33.0528 36.1622 33.383 35.3426 34.0432C34.5457 34.6807 34.1473 35.5345 34.1473 36.6046C34.1473 37.2876 34.3066 37.8682 34.6254 38.3463C34.9669 38.8017 35.5589 39.2001 36.4013 39.5416C37.2664 39.8832 38.4845 40.2474 40.0555 40.6345C42.1501 41.1126 43.8122 41.7046 45.0416 42.4104C46.2938 43.0934 47.1818 43.9016 47.7054 44.8351C48.2291 45.7686 48.4909 46.8273 48.4909 48.0112C48.4909 49.4456 48.1152 50.6978 47.3639 51.7679C46.6353 52.8152 45.6108 53.6234 44.2903 54.1926C42.9697 54.7618 41.4329 55.0464 39.6798 55.0464ZM59.0731 54.5C57.3427 54.5 56.0677 54.1016 55.2481 53.3047C54.4285 52.5078 54.0187 51.267 54.0187 49.5822V32.0625H57.6387V49.309C57.6387 50.1514 57.8209 50.7319 58.1851 51.0507C58.5494 51.3694 59.1072 51.5288 59.8586 51.5288H62.4541V54.5H59.0731ZM51.2524 39.3026V36.3314H62.4541V39.3026H51.2524ZM70.902 54.9098C69.0123 54.9098 67.4983 54.4772 66.3599 53.6121C65.2443 52.7469 64.6865 51.5288 64.6865 49.9578C64.6865 48.3869 65.1532 47.1688 66.0867 46.3036C67.0429 45.4157 68.5114 44.7782 70.4922 44.3912L76.742 43.1958C76.742 41.7843 76.4118 40.7369 75.7516 40.0539C75.0913 39.3481 74.1123 38.9952 72.8145 38.9952C71.6534 38.9952 70.7427 39.257 70.0824 39.7807C69.4221 40.2816 68.9668 41.0329 68.7163 42.0347L64.9938 41.7956C65.3353 39.9742 66.1777 38.5399 67.521 37.4925C68.8871 36.4452 70.6516 35.9216 72.8145 35.9216C75.2734 35.9216 77.1404 36.5818 78.4154 37.9024C79.7131 39.2001 80.362 41.0329 80.362 43.4008V50.4701C80.362 50.9027 80.4303 51.2101 80.5669 51.3922C80.7263 51.5516 80.9767 51.6313 81.3183 51.6313H81.9671V54.5C81.8533 54.5228 81.6712 54.5455 81.4207 54.5683C81.1703 54.5911 80.9084 54.6025 80.6352 54.6025C79.8611 54.6025 79.1895 54.4772 78.6203 54.2268C78.0739 53.9763 77.664 53.5665 77.3908 52.9973C77.1176 52.4054 76.981 51.6199 76.981 50.6409L77.3567 50.8116C77.1745 51.6085 76.7761 52.3143 76.1614 52.929C75.5694 53.5438 74.8067 54.0333 73.8732 54.3975C72.9625 54.7391 71.9721 54.9098 70.902 54.9098ZM71.4826 52.0411C72.5755 52.0411 73.5089 51.8362 74.283 51.4264C75.0571 50.9938 75.6605 50.4018 76.0931 49.6505C76.5257 48.8992 76.742 48.0454 76.742 47.0891V45.928L71.4143 46.9525C70.3215 47.1574 69.5474 47.4876 69.092 47.9429C68.6594 48.3755 68.4431 48.9333 68.4431 49.6163C68.4431 50.3904 68.705 50.9938 69.2286 51.4264C69.775 51.8362 70.5264 52.0411 71.4826 52.0411ZM85.0237 54.5V36.3314H88.3364L88.473 41.1468L88.1656 41.0443C88.4161 39.405 88.917 38.2097 89.6683 37.4584C90.4424 36.7071 91.4783 36.3314 92.7761 36.3314H94.5178V39.5758H92.7761C91.8654 39.5758 91.1027 39.7238 90.4879 40.0198C89.8732 40.3157 89.4065 40.7711 89.0877 41.3858C88.7917 42.0005 88.6438 42.7974 88.6438 43.7764V54.5H85.0237ZM103.93 54.5C102.2 54.5 100.925 54.1016 100.105 53.3047C99.2857 52.5078 98.8759 51.267 98.8759 49.5822V32.0625H102.496V49.309C102.496 50.1514 102.678 50.7319 103.042 51.0507C103.407 51.3694 103.964 51.5288 104.716 51.5288H107.311V54.5H103.93ZM96.1096 39.3026V36.3314H107.311V39.3026H96.1096ZM119.651 54.5V30.2524H124.33L135.531 50.0262V30.2524H139.22V54.5H134.37L123.339 35.1702V54.5H119.651ZM149.477 54.9098C147.587 54.9098 146.073 54.4772 144.935 53.6121C143.819 52.7469 143.262 51.5288 143.262 49.9578C143.262 48.3869 143.728 47.1688 144.662 46.3036C145.618 45.4157 147.087 44.7782 149.067 44.3912L155.317 43.1958C155.317 41.7843 154.987 40.7369 154.327 40.0539C153.666 39.3481 152.687 38.9952 151.39 38.9952C150.229 38.9952 149.318 39.257 148.658 39.7807C147.997 40.2816 147.542 41.0329 147.292 42.0347L143.569 41.7956C143.911 39.9742 144.753 38.5399 146.096 37.4925C147.462 36.4452 149.227 35.9216 151.39 35.9216C153.849 35.9216 155.716 36.5818 156.991 37.9024C158.288 39.2001 158.937 41.0329 158.937 43.4008V50.4701C158.937 50.9027 159.005 51.2101 159.142 51.3922C159.301 51.5516 159.552 51.6313 159.893 51.6313H160.542V54.5C160.428 54.5228 160.246 54.5455 159.996 54.5683C159.745 54.5911 159.484 54.6025 159.21 54.6025C158.436 54.6025 157.765 54.4772 157.195 54.2268C156.649 53.9763 156.239 53.5665 155.966 52.9973C155.693 52.4054 155.556 51.6199 155.556 50.6409L155.932 50.8116C155.75 51.6085 155.351 52.3143 154.737 52.929C154.145 53.5438 153.382 54.0333 152.448 54.3975C151.538 54.7391 150.547 54.9098 149.477 54.9098ZM150.058 52.0411C151.151 52.0411 152.084 51.8362 152.858 51.4264C153.632 50.9938 154.236 50.4018 154.668 49.6505C155.101 48.8992 155.317 48.0454 155.317 47.0891V45.928L149.989 46.9525C148.897 47.1574 148.123 47.4876 147.667 47.9429C147.235 48.3755 147.018 48.9333 147.018 49.6163C147.018 50.3904 147.28 50.9938 147.804 51.4264C148.35 51.8362 149.102 52.0411 150.058 52.0411ZM167.58 54.5L160.955 36.3314H164.814L169.766 50.8116L174.718 36.3314H178.611L171.952 54.5H167.58ZM181.542 54.5V36.3314H185.162V54.5H181.542ZM181.473 33.7017V30.0817H185.23V33.7017H181.473ZM197.255 60.0325C195.82 60.0325 194.557 59.8163 193.464 59.3837C192.371 58.9511 191.472 58.3364 190.766 57.5395C190.06 56.7654 189.582 55.8547 189.331 54.8074L193.088 54.5683C193.339 55.3196 193.771 55.9116 194.386 56.3442C195.023 56.7995 195.98 57.0272 197.255 57.0272C198.757 57.0272 199.907 56.7085 200.704 56.071C201.524 55.4335 201.933 54.4658 201.933 53.1681V50.5384C201.501 51.4719 200.806 52.2118 199.85 52.7583C198.894 53.3047 197.824 53.5779 196.64 53.5779C195.114 53.5779 193.76 53.2022 192.576 52.4509C191.392 51.6996 190.47 50.6636 189.81 49.3431C189.149 48.0226 188.819 46.4972 188.819 44.7668C188.819 43.0137 189.138 41.4769 189.775 40.1564C190.436 38.8358 191.346 37.7999 192.508 37.0486C193.692 36.2972 195.023 35.9216 196.503 35.9216C197.801 35.9216 198.939 36.2176 199.918 36.8095C200.92 37.4015 201.637 38.1983 202.07 39.2001V36.3314H205.553V53.0656C205.553 54.5683 205.212 55.8319 204.529 56.8565C203.869 57.9038 202.912 58.6893 201.66 59.2129C200.431 59.7593 198.962 60.0325 197.255 60.0325ZM197.22 50.5043C198.632 50.5043 199.759 49.992 200.601 48.9675C201.467 47.9429 201.911 46.5313 201.933 44.7327C201.956 43.5487 201.774 42.5356 201.387 41.6932C201 40.828 200.442 40.1677 199.714 39.7124C199.008 39.2343 198.177 38.9952 197.22 38.9952C195.741 38.9952 194.591 39.5189 193.771 40.5662C192.974 41.5907 192.576 42.9796 192.576 44.7327C192.576 46.5085 192.986 47.9201 193.805 48.9675C194.648 49.992 195.786 50.5043 197.22 50.5043ZM215.779 54.9098C213.889 54.9098 212.375 54.4772 211.237 53.6121C210.121 52.7469 209.564 51.5288 209.564 49.9578C209.564 48.3869 210.03 47.1688 210.964 46.3036C211.92 45.4157 213.389 44.7782 215.369 44.3912L221.619 43.1958C221.619 41.7843 221.289 40.7369 220.629 40.0539C219.968 39.3481 218.989 38.9952 217.692 38.9952C216.531 38.9952 215.62 39.257 214.96 39.7807C214.299 40.2816 213.844 41.0329 213.593 42.0347L209.871 41.7956C210.212 39.9742 211.055 38.5399 212.398 37.4925C213.764 36.4452 215.529 35.9216 217.692 35.9216C220.151 35.9216 222.018 36.5818 223.293 37.9024C224.59 39.2001 225.239 41.0329 225.239 43.4008V50.4701C225.239 50.9027 225.307 51.2101 225.444 51.3922C225.603 51.5516 225.854 51.6313 226.195 51.6313H226.844V54.5C226.73 54.5228 226.548 54.5455 226.298 54.5683C226.047 54.5911 225.786 54.6025 225.512 54.6025C224.738 54.6025 224.067 54.4772 223.497 54.2268C222.951 53.9763 222.541 53.5665 222.268 52.9973C221.995 52.4054 221.858 51.6199 221.858 50.6409L222.234 50.8116C222.052 51.6085 221.653 52.3143 221.039 52.929C220.447 53.5438 219.684 54.0333 218.75 54.3975C217.84 54.7391 216.849 54.9098 215.779 54.9098ZM216.36 52.0411C217.453 52.0411 218.386 51.8362 219.16 51.4264C219.934 50.9938 220.538 50.4018 220.97 49.6505C221.403 48.8992 221.619 48.0454 221.619 47.0891V45.928L216.291 46.9525C215.199 47.1574 214.425 47.4876 213.969 47.9429C213.537 48.3755 213.32 48.9333 213.32 49.6163C213.32 50.3904 213.582 50.9938 214.106 51.4264C214.652 51.8362 215.404 52.0411 216.36 52.0411ZM235.934 54.5C234.204 54.5 232.929 54.1016 232.109 53.3047C231.289 52.5078 230.879 51.267 230.879 49.5822V32.0625H234.5V49.309C234.5 50.1514 234.682 50.7319 235.046 51.0507C235.41 51.3694 235.968 51.5288 236.719 51.5288H239.315V54.5H235.934ZM228.113 39.3026V36.3314H239.315V39.3026H228.113ZM242.774 54.5V36.3314H246.394V54.5H242.774ZM242.706 33.7017V30.0817H246.463V33.7017H242.706ZM251.812 54.5V36.3314H255.125L255.262 41.1809L254.818 40.9418C255.023 39.7579 255.41 38.8017 255.979 38.0731C256.548 37.3446 257.243 36.8095 258.062 36.468C258.882 36.1037 259.77 35.9216 260.726 35.9216C262.092 35.9216 263.219 36.2289 264.107 36.8437C265.018 37.4356 265.701 38.2553 266.156 39.3026C266.634 40.3271 266.873 41.4997 266.873 42.8202V54.5H263.253V43.913C263.253 42.8429 263.139 41.9436 262.912 41.2151C262.684 40.4865 262.308 39.9287 261.785 39.5416C261.261 39.1546 260.578 38.9611 259.736 38.9611C258.461 38.9611 257.425 39.3823 256.628 40.2247C255.831 41.0671 255.433 42.2965 255.433 43.913V54.5H251.812ZM278.898 60.0325C277.464 60.0325 276.2 59.8163 275.107 59.3837C274.014 58.9511 273.115 58.3364 272.409 57.5395C271.704 56.7654 271.225 55.8547 270.975 54.8074L274.732 54.5683C274.982 55.3196 275.415 55.9116 276.029 56.3442C276.667 56.7995 277.623 57.0272 278.898 57.0272C280.401 57.0272 281.551 56.7085 282.347 56.071C283.167 55.4335 283.577 54.4658 283.577 53.1681V50.5384C283.144 51.4719 282.45 52.2118 281.494 52.7583C280.537 53.3047 279.467 53.5779 278.283 53.5779C276.758 53.5779 275.403 53.2022 274.219 52.4509C273.035 51.6996 272.113 50.6636 271.453 49.3431C270.793 48.0226 270.463 46.4972 270.463 44.7668C270.463 43.0137 270.781 41.4769 271.419 40.1564C272.079 38.8358 272.99 37.7999 274.151 37.0486C275.335 36.2972 276.667 35.9216 278.147 35.9216C279.445 35.9216 280.583 36.2176 281.562 36.8095C282.564 37.4015 283.281 38.1983 283.713 39.2001V36.3314H287.197V53.0656C287.197 54.5683 286.855 55.8319 286.172 56.8565C285.512 57.9038 284.556 58.6893 283.304 59.2129C282.074 59.7593 280.606 60.0325 278.898 60.0325ZM278.864 50.5043C280.276 50.5043 281.403 49.992 282.245 48.9675C283.11 47.9429 283.554 46.5313 283.577 44.7327C283.6 43.5487 283.417 42.5356 283.03 41.6932C282.643 40.828 282.086 40.1677 281.357 39.7124C280.651 39.2343 279.82 38.9952 278.864 38.9952C277.384 38.9952 276.234 39.5189 275.415 40.5662C274.618 41.5907 274.219 42.9796 274.219 44.7327C274.219 46.5085 274.629 47.9201 275.449 48.9675C276.291 49.992 277.43 50.5043 278.864 50.5043Z" fill="#18181B"/>
</svg>
